<?xml version="1.0" encoding="utf-8" standalone="no"?>
<!DOCTYPE svg PUBLIC "-//W3C//DTD SVG 1.1//EN"
  "http://www.w3.org/Graphics/SVG/1.1/DTD/svg11.dtd">
<svg xmlns:xlink="http://www.w3.org/1999/xlink" width="475.1625pt" height="258.434656pt" viewBox="0 0 475.1625 258.434656" xmlns="http://www.w3.org/2000/svg" version="1.1">
 <metadata>
  <rdf:RDF xmlns:dc="http://purl.org/dc/elements/1.1/" xmlns:cc="http://creativecommons.org/ns#" xmlns:rdf="http://www.w3.org/1999/02/22-rdf-syntax-ns#">
   <cc:Work>
    <dc:type rdf:resource="http://purl.org/dc/dcmitype/StillImage"/>
    <dc:date>2026-06-30T13:24:34.087033</dc:date>
    <dc:format>image/svg+xml</dc:format>
    <dc:creator>
     <cc:Agent>
      <dc:title>Matplotlib v3.11.0, https://matplotlib.org/</dc:title>
     </cc:Agent>
    </dc:creator>
   </cc:Work>
  </rdf:RDF>
 </metadata>
 <defs>
  <style type="text/css">*{stroke-linejoin: round; stroke-linecap: butt}</style>
 </defs>
 <g id="figure_1">
  <g id="patch_1">
   <path d="M 0 258.434656 
L 475.1625 258.434656 
L 475.1625 0 
L 0 0 
z
" style="fill: #ffffff"/>
  </g>
  <g id="axes_1">
   <g id="patch_2">
    <path d="M 36.3225 228.630281 
L 471.5625 228.630281 
L 471.5625 17.958281 
L 36.3225 17.958281 
z
" style="fill: #ffffff"/>
   </g>
   <g id="patch_3">
    <path d="M 56.106136 400.998281 
L 110.681685 400.998281 
L 110.681685 57.371156 
L 56.106136 57.371156 
z
" clip-path="url(#p268c5e81bd)" style="fill: #376fa6; stroke: #ffffff; stroke-width: 0.8; stroke-linejoin: miter"/>
   </g>
   <g id="patch_4">
    <path d="M 124.325572 400.998281 
L 178.901121 400.998281 
L 178.901121 31.816307 
L 124.325572 31.816307 
z
" clip-path="url(#p268c5e81bd)" style="fill: #4f7d54; stroke: #ffffff; stroke-width: 0.8; stroke-linejoin: miter"/>
   </g>
   <g id="patch_5">
    <path d="M 192.545008 400.998281 
L 247.120556 400.998281 
L 247.120556 44.111204 
L 192.545008 44.111204 
z
" clip-path="url(#p268c5e81bd)" style="fill: #5f8c61; stroke: #ffffff; stroke-width: 0.8; stroke-linejoin: miter"/>
   </g>
   <g id="patch_6">
    <path d="M 260.764444 400.998281 
L 315.339992 400.998281 
L 315.339992 50.983094 
L 260.764444 50.983094 
z
" clip-path="url(#p268c5e81bd)" style="fill: #719965; stroke: #ffffff; stroke-width: 0.8; stroke-linejoin: miter"/>
   </g>
   <g id="patch_7">
    <path d="M 328.983879 400.998281 
L 383.559428 400.998281 
L 383.559428 197.604041 
L 328.983879 197.604041 
z
" clip-path="url(#p268c5e81bd)" style="fill: #d98b2b; stroke: #ffffff; stroke-width: 0.8; stroke-linejoin: miter"/>
   </g>
   <g id="patch_8">
    <path d="M 397.203315 400.998281 
L 451.778864 400.998281 
L 451.778864 102.610121 
L 397.203315 102.610121 
z
" clip-path="url(#p268c5e81bd)" style="fill: #8eb06e; stroke: #ffffff; stroke-width: 0.8; stroke-linejoin: miter"/>
   </g>
   <g id="matplotlib.axis_1">
    <g id="xtick_1">
     <g id="line2d_1">
      <defs>
       <path id="m97802576e0" d="M 0 0 
L 0 3.5 
" style="stroke: #000000; stroke-width: 0.8"/>
      </defs>
      <g>
       <use xlink:href="#m97802576e0" x="83.393911" y="228.630281" style="stroke: #000000; stroke-width: 0.8"/>
      </g>
     </g>
     <g id="text_1">
      <!-- Internal -->
      <g transform="translate(67.977661 242.509812) scale(0.08 -0.08)">
       <defs>
        <path id="DejaVuSans-2c" d="M 628 4666 
L 1259 4666 
L 1259 0 
L 628 0 
L 628 4666 
z
" transform="scale(0.015625)"/>
        <path id="DejaVuSans-51" d="M 3513 2113 
L 3513 0 
L 2938 0 
L 2938 2094 
Q 2938 2591 2744 2837 
Q 2550 3084 2163 3084 
Q 1697 3084 1428 2787 
Q 1159 2491 1159 1978 
L 1159 0 
L 581 0 
L 581 3500 
L 1159 3500 
L 1159 2956 
Q 1366 3272 1645 3428 
Q 1925 3584 2291 3584 
Q 2894 3584 3203 3211 
Q 3513 2838 3513 2113 
z
" transform="scale(0.015625)"/>
        <path id="DejaVuSans-57" d="M 1172 4494 
L 1172 3500 
L 2356 3500 
L 2356 3053 
L 1172 3053 
L 1172 1153 
Q 1172 725 1289 603 
Q 1406 481 1766 481 
L 2356 481 
L 2356 0 
L 1766 0 
Q 1100 0 847 248 
Q 594 497 594 1153 
L 594 3053 
L 172 3053 
L 172 3500 
L 594 3500 
L 594 4494 
L 1172 4494 
z
" transform="scale(0.015625)"/>
        <path id="DejaVuSans-48" d="M 3597 1894 
L 3597 1613 
L 953 1613 
Q 991 1019 1311 708 
Q 1631 397 2203 397 
Q 2534 397 2845 478 
Q 3156 559 3463 722 
L 3463 178 
Q 3153 47 2828 -22 
Q 2503 -91 2169 -91 
Q 1331 -91 842 396 
Q 353 884 353 1716 
Q 353 2575 817 3079 
Q 1281 3584 2069 3584 
Q 2775 3584 3186 3129 
Q 3597 2675 3597 1894 
z
M 3022 2063 
Q 3016 2534 2758 2815 
Q 2500 3097 2075 3097 
Q 1594 3097 1305 2825 
Q 1016 2553 972 2059 
L 3022 2063 
z
" transform="scale(0.015625)"/>
        <path id="DejaVuSans-55" d="M 2631 2963 
Q 2534 3019 2420 3045 
Q 2306 3072 2169 3072 
Q 1681 3072 1420 2755 
Q 1159 2438 1159 1844 
L 1159 0 
L 581 0 
L 581 3500 
L 1159 3500 
L 1159 2956 
Q 1341 3275 1631 3429 
Q 1922 3584 2338 3584 
Q 2397 3584 2469 3576 
Q 2541 3569 2628 3553 
L 2631 2963 
z
" transform="scale(0.015625)"/>
        <path id="DejaVuSans-44" d="M 2194 1759 
Q 1497 1759 1228 1600 
Q 959 1441 959 1056 
Q 959 750 1161 570 
Q 1363 391 1709 391 
Q 2188 391 2477 730 
Q 2766 1069 2766 1631 
L 2766 1759 
L 2194 1759 
z
M 3341 1997 
L 3341 0 
L 2766 0 
L 2766 531 
Q 2569 213 2275 61 
Q 1981 -91 1556 -91 
Q 1019 -91 701 211 
Q 384 513 384 1019 
Q 384 1609 779 1909 
Q 1175 2209 1959 2209 
L 2766 2209 
L 2766 2266 
Q 2766 2663 2505 2880 
Q 2244 3097 1772 3097 
Q 1472 3097 1187 3025 
Q 903 2953 641 2809 
L 641 3341 
Q 956 3463 1253 3523 
Q 1550 3584 1831 3584 
Q 2591 3584 2966 3190 
Q 3341 2797 3341 1997 
z
" transform="scale(0.015625)"/>
        <path id="DejaVuSans-4f" d="M 603 4863 
L 1178 4863 
L 1178 0 
L 603 0 
L 603 4863 
z
" transform="scale(0.015625)"/>
       </defs>
       <use xlink:href="#DejaVuSans-2c"/>
       <use xlink:href="#DejaVuSans-51" transform="translate(29.5 0)"/>
       <use xlink:href="#DejaVuSans-57" transform="translate(92.875 0)"/>
       <use xlink:href="#DejaVuSans-48" transform="translate(132.078125 0)"/>
       <use xlink:href="#DejaVuSans-55" transform="translate(193.609375 0)"/>
       <use xlink:href="#DejaVuSans-51" transform="translate(232.96875 0)"/>
       <use xlink:href="#DejaVuSans-44" transform="translate(296.34375 0)"/>
       <use xlink:href="#DejaVuSans-4f" transform="translate(357.625 0)"/>
      </g>
      <!-- audio fusion -->
      <g transform="translate(58.917661 252.112) scale(0.08 -0.08)">
       <defs>
        <path id="DejaVuSans-58" d="M 544 1381 
L 544 3500 
L 1119 3500 
L 1119 1403 
Q 1119 906 1312 657 
Q 1506 409 1894 409 
Q 2359 409 2629 706 
Q 2900 1003 2900 1516 
L 2900 3500 
L 3475 3500 
L 3475 0 
L 2900 0 
L 2900 538 
Q 2691 219 2414 64 
Q 2138 -91 1772 -91 
Q 1169 -91 856 284 
Q 544 659 544 1381 
z
M 1991 3584 
L 1991 3584 
z
" transform="scale(0.015625)"/>
        <path id="DejaVuSans-47" d="M 2906 2969 
L 2906 4863 
L 3481 4863 
L 3481 0 
L 2906 0 
L 2906 525 
Q 2725 213 2448 61 
Q 2172 -91 1784 -91 
Q 1150 -91 751 415 
Q 353 922 353 1747 
Q 353 2572 751 3078 
Q 1150 3584 1784 3584 
Q 2172 3584 2448 3432 
Q 2725 3281 2906 2969 
z
M 947 1747 
Q 947 1113 1208 752 
Q 1469 391 1925 391 
Q 2381 391 2643 752 
Q 2906 1113 2906 1747 
Q 2906 2381 2643 2742 
Q 2381 3103 1925 3103 
Q 1469 3103 1208 2742 
Q 947 2381 947 1747 
z
" transform="scale(0.015625)"/>
        <path id="DejaVuSans-4c" d="M 603 3500 
L 1178 3500 
L 1178 0 
L 603 0 
L 603 3500 
z
M 603 4863 
L 1178 4863 
L 1178 4134 
L 603 4134 
L 603 4863 
z
" transform="scale(0.015625)"/>
        <path id="DejaVuSans-52" d="M 1959 3097 
Q 1497 3097 1228 2736 
Q 959 2375 959 1747 
Q 959 1119 1226 758 
Q 1494 397 1959 397 
Q 2419 397 2687 759 
Q 2956 1122 2956 1747 
Q 2956 2369 2687 2733 
Q 2419 3097 1959 3097 
z
M 1959 3584 
Q 2709 3584 3137 3096 
Q 3566 2609 3566 1747 
Q 3566 888 3137 398 
Q 2709 -91 1959 -91 
Q 1206 -91 779 398 
Q 353 888 353 1747 
Q 353 2609 779 3096 
Q 1206 3584 1959 3584 
z
" transform="scale(0.015625)"/>
        <path id="DejaVuSans-3" transform="scale(0.015625)"/>
        <path id="DejaVuSans-49" d="M 2375 4863 
L 2375 4384 
L 1825 4384 
Q 1516 4384 1395 4259 
Q 1275 4134 1275 3809 
L 1275 3500 
L 2222 3500 
L 2222 3053 
L 1275 3053 
L 1275 0 
L 697 0 
L 697 3053 
L 147 3053 
L 147 3500 
L 697 3500 
L 697 3744 
Q 697 4328 969 4595 
Q 1241 4863 1831 4863 
L 2375 4863 
z
" transform="scale(0.015625)"/>
        <path id="DejaVuSans-56" d="M 2834 3397 
L 2834 2853 
Q 2591 2978 2328 3040 
Q 2066 3103 1784 3103 
Q 1356 3103 1142 2972 
Q 928 2841 928 2578 
Q 928 2378 1081 2264 
Q 1234 2150 1697 2047 
L 1894 2003 
Q 2506 1872 2764 1633 
Q 3022 1394 3022 966 
Q 3022 478 2636 193 
Q 2250 -91 1575 -91 
Q 1294 -91 989 -36 
Q 684 19 347 128 
L 347 722 
Q 666 556 975 473 
Q 1284 391 1588 391 
Q 1994 391 2212 530 
Q 2431 669 2431 922 
Q 2431 1156 2273 1281 
Q 2116 1406 1581 1522 
L 1381 1569 
Q 847 1681 609 1914 
Q 372 2147 372 2553 
Q 372 3047 722 3315 
Q 1072 3584 1716 3584 
Q 2034 3584 2315 3537 
Q 2597 3491 2834 3397 
z
" transform="scale(0.015625)"/>
       </defs>
       <use xlink:href="#DejaVuSans-44"/>
       <use xlink:href="#DejaVuSans-58" transform="translate(61.28125 0)"/>
       <use xlink:href="#DejaVuSans-47" transform="translate(124.65625 0)"/>
       <use xlink:href="#DejaVuSans-4c" transform="translate(188.140625 0)"/>
       <use xlink:href="#DejaVuSans-52" transform="translate(215.921875 0)"/>
       <use xlink:href="#DejaVuSans-3" transform="translate(277.109375 0)"/>
       <use xlink:href="#DejaVuSans-49" transform="translate(308.890625 0)"/>
       <use xlink:href="#DejaVuSans-58" transform="translate(344.09375 0)"/>
       <use xlink:href="#DejaVuSans-56" transform="translate(407.46875 0)"/>
       <use xlink:href="#DejaVuSans-4c" transform="translate(459.5625 0)"/>
       <use xlink:href="#DejaVuSans-52" transform="translate(487.34375 0)"/>
       <use xlink:href="#DejaVuSans-51" transform="translate(548.53125 0)"/>
      </g>
     </g>
    </g>
    <g id="xtick_2">
     <g id="line2d_2">
      <g>
       <use xlink:href="#m97802576e0" x="151.613346" y="228.630281" style="stroke: #000000; stroke-width: 0.8"/>
      </g>
     </g>
     <g id="text_2">
      <!-- Full safe -->
      <g transform="translate(135.098346 242.509812) scale(0.08 -0.08)">
       <defs>
        <path id="DejaVuSans-29" d="M 628 4666 
L 3309 4666 
L 3309 4134 
L 1259 4134 
L 1259 2759 
L 3109 2759 
L 3109 2228 
L 1259 2228 
L 1259 0 
L 628 0 
L 628 4666 
z
" transform="scale(0.015625)"/>
       </defs>
       <use xlink:href="#DejaVuSans-29"/>
       <use xlink:href="#DejaVuSans-58" transform="translate(52.046875 0)"/>
       <use xlink:href="#DejaVuSans-4f" transform="translate(115.421875 0)"/>
       <use xlink:href="#DejaVuSans-4f" transform="translate(143.203125 0)"/>
       <use xlink:href="#DejaVuSans-3" transform="translate(170.984375 0)"/>
       <use xlink:href="#DejaVuSans-56" transform="translate(202.765625 0)"/>
       <use xlink:href="#DejaVuSans-44" transform="translate(254.859375 0)"/>
       <use xlink:href="#DejaVuSans-49" transform="translate(316.140625 0)"/>
       <use xlink:href="#DejaVuSans-48" transform="translate(351.34375 0)"/>
      </g>
      <!-- metadata -->
      <g transform="translate(132.226471 252.112) scale(0.08 -0.08)">
       <defs>
        <path id="DejaVuSans-50" d="M 3328 2828 
Q 3544 3216 3844 3400 
Q 4144 3584 4550 3584 
Q 5097 3584 5394 3201 
Q 5691 2819 5691 2113 
L 5691 0 
L 5113 0 
L 5113 2094 
Q 5113 2597 4934 2840 
Q 4756 3084 4391 3084 
Q 3944 3084 3684 2787 
Q 3425 2491 3425 1978 
L 3425 0 
L 2847 0 
L 2847 2094 
Q 2847 2600 2669 2842 
Q 2491 3084 2119 3084 
Q 1678 3084 1418 2786 
Q 1159 2488 1159 1978 
L 1159 0 
L 581 0 
L 581 3500 
L 1159 3500 
L 1159 2956 
Q 1356 3278 1631 3431 
Q 1906 3584 2284 3584 
Q 2666 3584 2933 3390 
Q 3200 3197 3328 2828 
z
" transform="scale(0.015625)"/>
       </defs>
       <use xlink:href="#DejaVuSans-50"/>
       <use xlink:href="#DejaVuSans-48" transform="translate(97.40625 0)"/>
       <use xlink:href="#DejaVuSans-57" transform="translate(158.9375 0)"/>
       <use xlink:href="#DejaVuSans-44" transform="translate(198.140625 0)"/>
       <use xlink:href="#DejaVuSans-47" transform="translate(259.421875 0)"/>
       <use xlink:href="#DejaVuSans-44" transform="translate(322.90625 0)"/>
       <use xlink:href="#DejaVuSans-57" transform="translate(384.1875 0)"/>
       <use xlink:href="#DejaVuSans-44" transform="translate(423.390625 0)"/>
      </g>
     </g>
    </g>
    <g id="xtick_3">
     <g id="line2d_3">
      <g>
       <use xlink:href="#m97802576e0" x="219.832782" y="228.630281" style="stroke: #000000; stroke-width: 0.8"/>
      </g>
     </g>
     <g id="text_3">
      <!-- Symptoms -->
      <g transform="translate(198.494657 242.509187) scale(0.08 -0.08)">
       <defs>
        <path id="DejaVuSans-36" d="M 3425 4513 
L 3425 3897 
Q 3066 4069 2747 4153 
Q 2428 4238 2131 4238 
Q 1616 4238 1336 4038 
Q 1056 3838 1056 3469 
Q 1056 3159 1242 3001 
Q 1428 2844 1947 2747 
L 2328 2669 
Q 3034 2534 3370 2195 
Q 3706 1856 3706 1288 
Q 3706 609 3251 259 
Q 2797 -91 1919 -91 
Q 1588 -91 1214 -16 
Q 841 59 441 206 
L 441 856 
Q 825 641 1194 531 
Q 1563 422 1919 422 
Q 2459 422 2753 634 
Q 3047 847 3047 1241 
Q 3047 1584 2836 1778 
Q 2625 1972 2144 2069 
L 1759 2144 
Q 1053 2284 737 2584 
Q 422 2884 422 3419 
Q 422 4038 858 4394 
Q 1294 4750 2059 4750 
Q 2388 4750 2728 4690 
Q 3069 4631 3425 4513 
z
" transform="scale(0.015625)"/>
        <path id="DejaVuSans-5c" d="M 2059 -325 
Q 1816 -950 1584 -1140 
Q 1353 -1331 966 -1331 
L 506 -1331 
L 506 -850 
L 844 -850 
Q 1081 -850 1212 -737 
Q 1344 -625 1503 -206 
L 1606 56 
L 191 3500 
L 800 3500 
L 1894 763 
L 2988 3500 
L 3597 3500 
L 2059 -325 
z
" transform="scale(0.015625)"/>
        <path id="DejaVuSans-53" d="M 1159 525 
L 1159 -1331 
L 581 -1331 
L 581 3500 
L 1159 3500 
L 1159 2969 
Q 1341 3281 1617 3432 
Q 1894 3584 2278 3584 
Q 2916 3584 3314 3078 
Q 3713 2572 3713 1747 
Q 3713 922 3314 415 
Q 2916 -91 2278 -91 
Q 1894 -91 1617 61 
Q 1341 213 1159 525 
z
M 3116 1747 
Q 3116 2381 2855 2742 
Q 2594 3103 2138 3103 
Q 1681 3103 1420 2742 
Q 1159 2381 1159 1747 
Q 1159 1113 1420 752 
Q 1681 391 2138 391 
Q 2594 391 2855 752 
Q 3116 1113 3116 1747 
z
" transform="scale(0.015625)"/>
       </defs>
       <use xlink:href="#DejaVuSans-36"/>
       <use xlink:href="#DejaVuSans-5c" transform="translate(63.484375 0)"/>
       <use xlink:href="#DejaVuSans-50" transform="translate(122.671875 0)"/>
       <use xlink:href="#DejaVuSans-53" transform="translate(220.078125 0)"/>
       <use xlink:href="#DejaVuSans-57" transform="translate(283.5625 0)"/>
       <use xlink:href="#DejaVuSans-52" transform="translate(322.765625 0)"/>
       <use xlink:href="#DejaVuSans-50" transform="translate(383.953125 0)"/>
       <use xlink:href="#DejaVuSans-56" transform="translate(481.359375 0)"/>
      </g>
      <!-- only -->
      <g transform="translate(211.371532 252.111375) scale(0.08 -0.08)">
       <use xlink:href="#DejaVuSans-52"/>
       <use xlink:href="#DejaVuSans-51" transform="translate(61.1875 0)"/>
       <use xlink:href="#DejaVuSans-4f" transform="translate(124.5625 0)"/>
       <use xlink:href="#DejaVuSans-5c" transform="translate(152.34375 0)"/>
      </g>
     </g>
    </g>
    <g id="xtick_4">
     <g id="line2d_4">
      <g>
       <use xlink:href="#m97802576e0" x="288.052218" y="228.630281" style="stroke: #000000; stroke-width: 0.8"/>
      </g>
     </g>
     <g id="text_4">
      <!-- Demographic+ -->
      <g transform="translate(257.795343 242.509812) scale(0.08 -0.08)">
       <defs>
        <path id="DejaVuSans-27" d="M 1259 4147 
L 1259 519 
L 2022 519 
Q 2988 519 3436 956 
Q 3884 1394 3884 2338 
Q 3884 3275 3436 3711 
Q 2988 4147 2022 4147 
L 1259 4147 
z
M 628 4666 
L 1925 4666 
Q 3281 4666 3915 4102 
Q 4550 3538 4550 2338 
Q 4550 1131 3912 565 
Q 3275 0 1925 0 
L 628 0 
L 628 4666 
z
" transform="scale(0.015625)"/>
        <path id="DejaVuSans-4a" d="M 2906 1791 
Q 2906 2416 2648 2759 
Q 2391 3103 1925 3103 
Q 1463 3103 1205 2759 
Q 947 2416 947 1791 
Q 947 1169 1205 825 
Q 1463 481 1925 481 
Q 2391 481 2648 825 
Q 2906 1169 2906 1791 
z
M 3481 434 
Q 3481 -459 3084 -895 
Q 2688 -1331 1869 -1331 
Q 1566 -1331 1297 -1286 
Q 1028 -1241 775 -1147 
L 775 -588 
Q 1028 -725 1275 -790 
Q 1522 -856 1778 -856 
Q 2344 -856 2625 -561 
Q 2906 -266 2906 331 
L 2906 616 
Q 2728 306 2450 153 
Q 2172 0 1784 0 
Q 1141 0 747 490 
Q 353 981 353 1791 
Q 353 2603 747 3093 
Q 1141 3584 1784 3584 
Q 2172 3584 2450 3431 
Q 2728 3278 2906 2969 
L 2906 3500 
L 3481 3500 
L 3481 434 
z
" transform="scale(0.015625)"/>
        <path id="DejaVuSans-4b" d="M 3513 2113 
L 3513 0 
L 2938 0 
L 2938 2094 
Q 2938 2591 2744 2837 
Q 2550 3084 2163 3084 
Q 1697 3084 1428 2787 
Q 1159 2491 1159 1978 
L 1159 0 
L 581 0 
L 581 4863 
L 1159 4863 
L 1159 2956 
Q 1366 3272 1645 3428 
Q 1925 3584 2291 3584 
Q 2894 3584 3203 3211 
Q 3513 2838 3513 2113 
z
" transform="scale(0.015625)"/>
        <path id="DejaVuSans-46" d="M 3122 3366 
L 3122 2828 
Q 2878 2963 2633 3030 
Q 2388 3097 2138 3097 
Q 1578 3097 1268 2742 
Q 959 2388 959 1747 
Q 959 1106 1268 751 
Q 1578 397 2138 397 
Q 2388 397 2633 464 
Q 2878 531 3122 666 
L 3122 134 
Q 2881 22 2623 -34 
Q 2366 -91 2075 -91 
Q 1284 -91 818 406 
Q 353 903 353 1747 
Q 353 2603 823 3093 
Q 1294 3584 2113 3584 
Q 2378 3584 2631 3529 
Q 2884 3475 3122 3366 
z
" transform="scale(0.015625)"/>
        <path id="DejaVuSans-e" d="M 2944 4013 
L 2944 2272 
L 4684 2272 
L 4684 1741 
L 2944 1741 
L 2944 0 
L 2419 0 
L 2419 1741 
L 678 1741 
L 678 2272 
L 2419 2272 
L 2419 4013 
L 2944 4013 
z
" transform="scale(0.015625)"/>
       </defs>
       <use xlink:href="#DejaVuSans-27"/>
       <use xlink:href="#DejaVuSans-48" transform="translate(77 0)"/>
       <use xlink:href="#DejaVuSans-50" transform="translate(138.53125 0)"/>
       <use xlink:href="#DejaVuSans-52" transform="translate(235.9375 0)"/>
       <use xlink:href="#DejaVuSans-4a" transform="translate(297.125 0)"/>
       <use xlink:href="#DejaVuSans-55" transform="translate(360.609375 0)"/>
       <use xlink:href="#DejaVuSans-44" transform="translate(401.71875 0)"/>
       <use xlink:href="#DejaVuSans-53" transform="translate(463 0)"/>
       <use xlink:href="#DejaVuSans-4b" transform="translate(526.484375 0)"/>
       <use xlink:href="#DejaVuSans-4c" transform="translate(589.859375 0)"/>
       <use xlink:href="#DejaVuSans-46" transform="translate(617.640625 0)"/>
       <use xlink:href="#DejaVuSans-e" transform="translate(672.625 0)"/>
      </g>
      <!-- protocol -->
      <g transform="translate(271.735343 252.112) scale(0.08 -0.08)">
       <use xlink:href="#DejaVuSans-53"/>
       <use xlink:href="#DejaVuSans-55" transform="translate(63.484375 0)"/>
       <use xlink:href="#DejaVuSans-52" transform="translate(102.390625 0)"/>
       <use xlink:href="#DejaVuSans-57" transform="translate(163.578125 0)"/>
       <use xlink:href="#DejaVuSans-52" transform="translate(202.78125 0)"/>
       <use xlink:href="#DejaVuSans-46" transform="translate(263.96875 0)"/>
       <use xlink:href="#DejaVuSans-52" transform="translate(318.953125 0)"/>
       <use xlink:href="#DejaVuSans-4f" transform="translate(380.140625 0)"/>
      </g>
     </g>
    </g>
    <g id="xtick_5">
     <g id="line2d_5">
      <g>
       <use xlink:href="#m97802576e0" x="356.271654" y="228.630281" style="stroke: #000000; stroke-width: 0.8"/>
      </g>
     </g>
     <g id="text_5">
      <!-- Temporal full -->
      <g transform="translate(330.519779 242.509812) scale(0.08 -0.08)">
       <defs>
        <path id="DejaVuSans-37" d="M -19 4666 
L 3928 4666 
L 3928 4134 
L 2272 4134 
L 2272 0 
L 1638 0 
L 1638 4134 
L -19 4134 
L -19 4666 
z
" transform="scale(0.015625)"/>
       </defs>
       <use xlink:href="#DejaVuSans-37"/>
       <use xlink:href="#DejaVuSans-48" transform="translate(44.09375 0)"/>
       <use xlink:href="#DejaVuSans-50" transform="translate(105.625 0)"/>
       <use xlink:href="#DejaVuSans-53" transform="translate(203.03125 0)"/>
       <use xlink:href="#DejaVuSans-52" transform="translate(266.515625 0)"/>
       <use xlink:href="#DejaVuSans-55" transform="translate(327.703125 0)"/>
       <use xlink:href="#DejaVuSans-44" transform="translate(368.8125 0)"/>
       <use xlink:href="#DejaVuSans-4f" transform="translate(430.09375 0)"/>
       <use xlink:href="#DejaVuSans-3" transform="translate(457.875 0)"/>
       <use xlink:href="#DejaVuSans-49" transform="translate(489.65625 0)"/>
       <use xlink:href="#DejaVuSans-58" transform="translate(524.859375 0)"/>
       <use xlink:href="#DejaVuSans-4f" transform="translate(588.234375 0)"/>
       <use xlink:href="#DejaVuSans-4f" transform="translate(616.015625 0)"/>
      </g>
      <!-- metadata -->
      <g transform="translate(336.884779 252.112) scale(0.08 -0.08)">
       <use xlink:href="#DejaVuSans-50"/>
       <use xlink:href="#DejaVuSans-48" transform="translate(97.40625 0)"/>
       <use xlink:href="#DejaVuSans-57" transform="translate(158.9375 0)"/>
       <use xlink:href="#DejaVuSans-44" transform="translate(198.140625 0)"/>
       <use xlink:href="#DejaVuSans-47" transform="translate(259.421875 0)"/>
       <use xlink:href="#DejaVuSans-44" transform="translate(322.90625 0)"/>
       <use xlink:href="#DejaVuSans-57" transform="translate(384.1875 0)"/>
       <use xlink:href="#DejaVuSans-44" transform="translate(423.390625 0)"/>
      </g>
     </g>
    </g>
    <g id="xtick_6">
     <g id="line2d_6">
      <g>
       <use xlink:href="#m97802576e0" x="424.491089" y="228.630281" style="stroke: #000000; stroke-width: 0.8"/>
      </g>
     </g>
     <g id="text_6">
      <!-- Temporal remove -->
      <g transform="translate(389.714839 242.509812) scale(0.08 -0.08)">
       <defs>
        <path id="DejaVuSans-59" d="M 191 3500 
L 800 3500 
L 1894 563 
L 2988 3500 
L 3597 3500 
L 2284 0 
L 1503 0 
L 191 3500 
z
" transform="scale(0.015625)"/>
       </defs>
       <use xlink:href="#DejaVuSans-37"/>
       <use xlink:href="#DejaVuSans-48" transform="translate(44.09375 0)"/>
       <use xlink:href="#DejaVuSans-50" transform="translate(105.625 0)"/>
       <use xlink:href="#DejaVuSans-53" transform="translate(203.03125 0)"/>
       <use xlink:href="#DejaVuSans-52" transform="translate(266.515625 0)"/>
       <use xlink:href="#DejaVuSans-55" transform="translate(327.703125 0)"/>
       <use xlink:href="#DejaVuSans-44" transform="translate(368.8125 0)"/>
       <use xlink:href="#DejaVuSans-4f" transform="translate(430.09375 0)"/>
       <use xlink:href="#DejaVuSans-3" transform="translate(457.875 0)"/>
       <use xlink:href="#DejaVuSans-55" transform="translate(489.65625 0)"/>
       <use xlink:href="#DejaVuSans-48" transform="translate(528.5625 0)"/>
       <use xlink:href="#DejaVuSans-50" transform="translate(590.09375 0)"/>
       <use xlink:href="#DejaVuSans-52" transform="translate(687.5 0)"/>
       <use xlink:href="#DejaVuSans-59" transform="translate(748.6875 0)"/>
       <use xlink:href="#DejaVuSans-48" transform="translate(807.875 0)"/>
      </g>
      <!-- month -->
      <g transform="translate(411.509214 252.112) scale(0.08 -0.08)">
       <use xlink:href="#DejaVuSans-50"/>
       <use xlink:href="#DejaVuSans-52" transform="translate(97.40625 0)"/>
       <use xlink:href="#DejaVuSans-51" transform="translate(158.59375 0)"/>
       <use xlink:href="#DejaVuSans-57" transform="translate(221.96875 0)"/>
       <use xlink:href="#DejaVuSans-4b" transform="translate(261.171875 0)"/>
      </g>
     </g>
    </g>
   </g>
   <g id="matplotlib.axis_2">
    <g id="ytick_1">
     <g id="line2d_7">
      <path d="M 36.3225 209.478281 
L 471.5625 209.478281 
" clip-path="url(#p268c5e81bd)" style="fill: none; stroke: #d8dee6; stroke-width: 0.8; stroke-linecap: square"/>
     </g>
     <g id="line2d_8">
      <defs>
       <path id="m060f7ec04d" d="M 0 0 
L -3.5 0 
" style="stroke: #000000; stroke-width: 0.8"/>
      </defs>
      <g>
       <use xlink:href="#m060f7ec04d" x="36.3225" y="209.478281" style="stroke: #000000; stroke-width: 0.8"/>
      </g>
     </g>
     <g id="text_7">
      <!-- 0.5 -->
      <g transform="translate(16.6 212.517344) scale(0.08 -0.08)">
       <defs>
        <path id="DejaVuSans-13" d="M 2034 4250 
Q 1547 4250 1301 3770 
Q 1056 3291 1056 2328 
Q 1056 1369 1301 889 
Q 1547 409 2034 409 
Q 2525 409 2770 889 
Q 3016 1369 3016 2328 
Q 3016 3291 2770 3770 
Q 2525 4250 2034 4250 
z
M 2034 4750 
Q 2819 4750 3233 4129 
Q 3647 3509 3647 2328 
Q 3647 1150 3233 529 
Q 2819 -91 2034 -91 
Q 1250 -91 836 529 
Q 422 1150 422 2328 
Q 422 3509 836 4129 
Q 1250 4750 2034 4750 
z
" transform="scale(0.015625)"/>
        <path id="DejaVuSans-11" d="M 684 794 
L 1344 794 
L 1344 0 
L 684 0 
L 684 794 
z
" transform="scale(0.015625)"/>
        <path id="DejaVuSans-18" d="M 691 4666 
L 3169 4666 
L 3169 4134 
L 1269 4134 
L 1269 2991 
Q 1406 3038 1543 3061 
Q 1681 3084 1819 3084 
Q 2600 3084 3056 2656 
Q 3513 2228 3513 1497 
Q 3513 744 3044 326 
Q 2575 -91 1722 -91 
Q 1428 -91 1123 -41 
Q 819 9 494 109 
L 494 744 
Q 775 591 1075 516 
Q 1375 441 1709 441 
Q 2250 441 2565 725 
Q 2881 1009 2881 1497 
Q 2881 1984 2565 2268 
Q 2250 2553 1709 2553 
Q 1456 2553 1204 2497 
Q 953 2441 691 2322 
L 691 4666 
z
" transform="scale(0.015625)"/>
       </defs>
       <use xlink:href="#DejaVuSans-13"/>
       <use xlink:href="#DejaVuSans-11" transform="translate(63.625 0)"/>
       <use xlink:href="#DejaVuSans-18" transform="translate(95.40625 0)"/>
      </g>
     </g>
    </g>
    <g id="ytick_2">
     <g id="line2d_9">
      <path d="M 36.3225 171.174281 
L 471.5625 171.174281 
" clip-path="url(#p268c5e81bd)" style="fill: none; stroke: #d8dee6; stroke-width: 0.8; stroke-linecap: square"/>
     </g>
     <g id="line2d_10">
      <g>
       <use xlink:href="#m060f7ec04d" x="36.3225" y="171.174281" style="stroke: #000000; stroke-width: 0.8"/>
      </g>
     </g>
     <g id="text_8">
      <!-- 0.6 -->
      <g transform="translate(16.6 174.213344) scale(0.08 -0.08)">
       <defs>
        <path id="DejaVuSans-19" d="M 2113 2584 
Q 1688 2584 1439 2293 
Q 1191 2003 1191 1497 
Q 1191 994 1439 701 
Q 1688 409 2113 409 
Q 2538 409 2786 701 
Q 3034 994 3034 1497 
Q 3034 2003 2786 2293 
Q 2538 2584 2113 2584 
z
M 3366 4563 
L 3366 3988 
Q 3128 4100 2886 4159 
Q 2644 4219 2406 4219 
Q 1781 4219 1451 3797 
Q 1122 3375 1075 2522 
Q 1259 2794 1537 2939 
Q 1816 3084 2150 3084 
Q 2853 3084 3261 2657 
Q 3669 2231 3669 1497 
Q 3669 778 3244 343 
Q 2819 -91 2113 -91 
Q 1303 -91 875 529 
Q 447 1150 447 2328 
Q 447 3434 972 4092 
Q 1497 4750 2381 4750 
Q 2619 4750 2861 4703 
Q 3103 4656 3366 4563 
z
" transform="scale(0.015625)"/>
       </defs>
       <use xlink:href="#DejaVuSans-13"/>
       <use xlink:href="#DejaVuSans-11" transform="translate(63.625 0)"/>
       <use xlink:href="#DejaVuSans-19" transform="translate(95.40625 0)"/>
      </g>
     </g>
    </g>
    <g id="ytick_3">
     <g id="line2d_11">
      <path d="M 36.3225 132.870281 
L 471.5625 132.870281 
" clip-path="url(#p268c5e81bd)" style="fill: none; stroke: #d8dee6; stroke-width: 0.8; stroke-linecap: square"/>
     </g>
     <g id="line2d_12">
      <g>
       <use xlink:href="#m060f7ec04d" x="36.3225" y="132.870281" style="stroke: #000000; stroke-width: 0.8"/>
      </g>
     </g>
     <g id="text_9">
      <!-- 0.7 -->
      <g transform="translate(16.6 135.909344) scale(0.08 -0.08)">
       <defs>
        <path id="DejaVuSans-1a" d="M 525 4666 
L 3525 4666 
L 3525 4397 
L 1831 0 
L 1172 0 
L 2766 4134 
L 525 4134 
L 525 4666 
z
" transform="scale(0.015625)"/>
       </defs>
       <use xlink:href="#DejaVuSans-13"/>
       <use xlink:href="#DejaVuSans-11" transform="translate(63.625 0)"/>
       <use xlink:href="#DejaVuSans-1a" transform="translate(95.40625 0)"/>
      </g>
     </g>
    </g>
    <g id="ytick_4">
     <g id="line2d_13">
      <path d="M 36.3225 94.566281 
L 471.5625 94.566281 
" clip-path="url(#p268c5e81bd)" style="fill: none; stroke: #d8dee6; stroke-width: 0.8; stroke-linecap: square"/>
     </g>
     <g id="line2d_14">
      <g>
       <use xlink:href="#m060f7ec04d" x="36.3225" y="94.566281" style="stroke: #000000; stroke-width: 0.8"/>
      </g>
     </g>
     <g id="text_10">
      <!-- 0.8 -->
      <g transform="translate(16.6 97.605344) scale(0.08 -0.08)">
       <defs>
        <path id="DejaVuSans-1b" d="M 2034 2216 
Q 1584 2216 1326 1975 
Q 1069 1734 1069 1313 
Q 1069 891 1326 650 
Q 1584 409 2034 409 
Q 2484 409 2743 651 
Q 3003 894 3003 1313 
Q 3003 1734 2745 1975 
Q 2488 2216 2034 2216 
z
M 1403 2484 
Q 997 2584 770 2862 
Q 544 3141 544 3541 
Q 544 4100 942 4425 
Q 1341 4750 2034 4750 
Q 2731 4750 3128 4425 
Q 3525 4100 3525 3541 
Q 3525 3141 3298 2862 
Q 3072 2584 2669 2484 
Q 3125 2378 3379 2068 
Q 3634 1759 3634 1313 
Q 3634 634 3220 271 
Q 2806 -91 2034 -91 
Q 1263 -91 848 271 
Q 434 634 434 1313 
Q 434 1759 690 2068 
Q 947 2378 1403 2484 
z
M 1172 3481 
Q 1172 3119 1398 2916 
Q 1625 2713 2034 2713 
Q 2441 2713 2670 2916 
Q 2900 3119 2900 3481 
Q 2900 3844 2670 4047 
Q 2441 4250 2034 4250 
Q 1625 4250 1398 4047 
Q 1172 3844 1172 3481 
z
" transform="scale(0.015625)"/>
       </defs>
       <use xlink:href="#DejaVuSans-13"/>
       <use xlink:href="#DejaVuSans-11" transform="translate(63.625 0)"/>
       <use xlink:href="#DejaVuSans-1b" transform="translate(95.40625 0)"/>
      </g>
     </g>
    </g>
    <g id="ytick_5">
     <g id="line2d_15">
      <path d="M 36.3225 56.262281 
L 471.5625 56.262281 
" clip-path="url(#p268c5e81bd)" style="fill: none; stroke: #d8dee6; stroke-width: 0.8; stroke-linecap: square"/>
     </g>
     <g id="line2d_16">
      <g>
       <use xlink:href="#m060f7ec04d" x="36.3225" y="56.262281" style="stroke: #000000; stroke-width: 0.8"/>
      </g>
     </g>
     <g id="text_11">
      <!-- 0.9 -->
      <g transform="translate(16.6 59.301344) scale(0.08 -0.08)">
       <defs>
        <path id="DejaVuSans-1c" d="M 703 97 
L 703 672 
Q 941 559 1184 500 
Q 1428 441 1663 441 
Q 2288 441 2617 861 
Q 2947 1281 2994 2138 
Q 2813 1869 2534 1725 
Q 2256 1581 1919 1581 
Q 1219 1581 811 2004 
Q 403 2428 403 3163 
Q 403 3881 828 4315 
Q 1253 4750 1959 4750 
Q 2769 4750 3195 4129 
Q 3622 3509 3622 2328 
Q 3622 1225 3098 567 
Q 2575 -91 1691 -91 
Q 1453 -91 1209 -44 
Q 966 3 703 97 
z
M 1959 2075 
Q 2384 2075 2632 2365 
Q 2881 2656 2881 3163 
Q 2881 3666 2632 3958 
Q 2384 4250 1959 4250 
Q 1534 4250 1286 3958 
Q 1038 3666 1038 3163 
Q 1038 2656 1286 2365 
Q 1534 2075 1959 2075 
z
" transform="scale(0.015625)"/>
       </defs>
       <use xlink:href="#DejaVuSans-13"/>
       <use xlink:href="#DejaVuSans-11" transform="translate(63.625 0)"/>
       <use xlink:href="#DejaVuSans-1c" transform="translate(95.40625 0)"/>
      </g>
     </g>
    </g>
    <g id="ytick_6">
     <g id="line2d_17">
      <path d="M 36.3225 17.958281 
L 471.5625 17.958281 
" clip-path="url(#p268c5e81bd)" style="fill: none; stroke: #d8dee6; stroke-width: 0.8; stroke-linecap: square"/>
     </g>
     <g id="line2d_18">
      <g>
       <use xlink:href="#m060f7ec04d" x="36.3225" y="17.958281" style="stroke: #000000; stroke-width: 0.8"/>
      </g>
     </g>
     <g id="text_12">
      <!-- 1.0 -->
      <g transform="translate(16.6 20.997344) scale(0.08 -0.08)">
       <defs>
        <path id="DejaVuSans-14" d="M 794 531 
L 1825 531 
L 1825 4091 
L 703 3866 
L 703 4441 
L 1819 4666 
L 2450 4666 
L 2450 531 
L 3481 531 
L 3481 0 
L 794 0 
L 794 531 
z
" transform="scale(0.015625)"/>
       </defs>
       <use xlink:href="#DejaVuSans-14"/>
       <use xlink:href="#DejaVuSans-11" transform="translate(63.625 0)"/>
       <use xlink:href="#DejaVuSans-13" transform="translate(95.40625 0)"/>
      </g>
     </g>
    </g>
    <g id="text_13">
     <!-- AUROC -->
     <g transform="translate(10.437891 139.477406) rotate(-90) scale(0.09 -0.09)">
      <defs>
       <path id="DejaVuSans-24" d="M 2188 4044 
L 1331 1722 
L 3047 1722 
L 2188 4044 
z
M 1831 4666 
L 2547 4666 
L 4325 0 
L 3669 0 
L 3244 1197 
L 1141 1197 
L 716 0 
L 50 0 
L 1831 4666 
z
" transform="scale(0.015625)"/>
       <path id="DejaVuSans-38" d="M 556 4666 
L 1191 4666 
L 1191 1831 
Q 1191 1081 1462 751 
Q 1734 422 2344 422 
Q 2950 422 3222 751 
Q 3494 1081 3494 1831 
L 3494 4666 
L 4128 4666 
L 4128 1753 
Q 4128 841 3676 375 
Q 3225 -91 2344 -91 
Q 1459 -91 1007 375 
Q 556 841 556 1753 
L 556 4666 
z
" transform="scale(0.015625)"/>
       <path id="DejaVuSans-35" d="M 2841 2188 
Q 3044 2119 3236 1894 
Q 3428 1669 3622 1275 
L 4263 0 
L 3584 0 
L 2988 1197 
Q 2756 1666 2539 1819 
Q 2322 1972 1947 1972 
L 1259 1972 
L 1259 0 
L 628 0 
L 628 4666 
L 2053 4666 
Q 2853 4666 3247 4331 
Q 3641 3997 3641 3322 
Q 3641 2881 3436 2590 
Q 3231 2300 2841 2188 
z
M 1259 4147 
L 1259 2491 
L 2053 2491 
Q 2509 2491 2742 2702 
Q 2975 2913 2975 3322 
Q 2975 3731 2742 3939 
Q 2509 4147 2053 4147 
L 1259 4147 
z
" transform="scale(0.015625)"/>
       <path id="DejaVuSans-32" d="M 2522 4238 
Q 1834 4238 1429 3725 
Q 1025 3213 1025 2328 
Q 1025 1447 1429 934 
Q 1834 422 2522 422 
Q 3209 422 3611 934 
Q 4013 1447 4013 2328 
Q 4013 3213 3611 3725 
Q 3209 4238 2522 4238 
z
M 2522 4750 
Q 3503 4750 4090 4092 
Q 4678 3434 4678 2328 
Q 4678 1225 4090 567 
Q 3503 -91 2522 -91 
Q 1538 -91 948 565 
Q 359 1222 359 2328 
Q 359 3434 948 4092 
Q 1538 4750 2522 4750 
z
" transform="scale(0.015625)"/>
       <path id="DejaVuSans-26" d="M 4122 4306 
L 4122 3641 
Q 3803 3938 3442 4084 
Q 3081 4231 2675 4231 
Q 1875 4231 1450 3742 
Q 1025 3253 1025 2328 
Q 1025 1406 1450 917 
Q 1875 428 2675 428 
Q 3081 428 3442 575 
Q 3803 722 4122 1019 
L 4122 359 
Q 3791 134 3420 21 
Q 3050 -91 2638 -91 
Q 1578 -91 968 557 
Q 359 1206 359 2328 
Q 359 3453 968 4101 
Q 1578 4750 2638 4750 
Q 3056 4750 3426 4639 
Q 3797 4528 4122 4306 
z
" transform="scale(0.015625)"/>
      </defs>
      <use xlink:href="#DejaVuSans-24"/>
      <use xlink:href="#DejaVuSans-38" transform="translate(68.40625 0)"/>
      <use xlink:href="#DejaVuSans-35" transform="translate(141.59375 0)"/>
      <use xlink:href="#DejaVuSans-32" transform="translate(211.078125 0)"/>
      <use xlink:href="#DejaVuSans-26" transform="translate(289.796875 0)"/>
     </g>
    </g>
   </g>
   <g id="line2d_19">
    <path d="M 36.3225 209.478281 
L 471.5625 209.478281 
" clip-path="url(#p268c5e81bd)" style="fill: none; stroke-dasharray: 3.33,1.44; stroke-dashoffset: 0; stroke: #777777; stroke-width: 0.9"/>
   </g>
   <g id="patch_9">
    <path d="M 36.3225 228.630281 
L 36.3225 17.958281 
" style="fill: none; stroke: #000000; stroke-width: 0.8; stroke-linejoin: miter; stroke-linecap: square"/>
   </g>
   <g id="patch_10">
    <path d="M 36.3225 228.630281 
L 471.5625 228.630281 
" style="fill: none; stroke: #000000; stroke-width: 0.8; stroke-linejoin: miter; stroke-linecap: square"/>
   </g>
   <g id="text_14">
    <!-- 0.897 -->
    <g style="fill: #1f2933" transform="translate(71.656379 50.804754) scale(0.082 -0.082)">
     <use xlink:href="#DejaVuSans-13"/>
     <use xlink:href="#DejaVuSans-11" transform="translate(63.625 0)"/>
     <use xlink:href="#DejaVuSans-1b" transform="translate(95.40625 0)"/>
     <use xlink:href="#DejaVuSans-1c" transform="translate(159.03125 0)"/>
     <use xlink:href="#DejaVuSans-1a" transform="translate(222.65625 0)"/>
    </g>
   </g>
   <g id="text_15">
    <!-- 0.964 -->
    <g style="fill: #1f2933" transform="translate(139.875815 25.249905) scale(0.082 -0.082)">
     <defs>
      <path id="DejaVuSans-17" d="M 2419 4116 
L 825 1625 
L 2419 1625 
L 2419 4116 
z
M 2253 4666 
L 3047 4666 
L 3047 1625 
L 3713 1625 
L 3713 1100 
L 3047 1100 
L 3047 0 
L 2419 0 
L 2419 1100 
L 313 1100 
L 313 1709 
L 2253 4666 
z
" transform="scale(0.015625)"/>
     </defs>
     <use xlink:href="#DejaVuSans-13"/>
     <use xlink:href="#DejaVuSans-11" transform="translate(63.625 0)"/>
     <use xlink:href="#DejaVuSans-1c" transform="translate(95.40625 0)"/>
     <use xlink:href="#DejaVuSans-19" transform="translate(159.03125 0)"/>
     <use xlink:href="#DejaVuSans-17" transform="translate(222.65625 0)"/>
    </g>
   </g>
   <g id="text_16">
    <!-- 0.932 -->
    <g style="fill: #1f2933" transform="translate(208.095251 37.544802) scale(0.082 -0.082)">
     <defs>
      <path id="DejaVuSans-16" d="M 2597 2516 
Q 3050 2419 3304 2112 
Q 3559 1806 3559 1356 
Q 3559 666 3084 287 
Q 2609 -91 1734 -91 
Q 1441 -91 1130 -33 
Q 819 25 488 141 
L 488 750 
Q 750 597 1062 519 
Q 1375 441 1716 441 
Q 2309 441 2620 675 
Q 2931 909 2931 1356 
Q 2931 1769 2642 2001 
Q 2353 2234 1838 2234 
L 1294 2234 
L 1294 2753 
L 1863 2753 
Q 2328 2753 2575 2939 
Q 2822 3125 2822 3475 
Q 2822 3834 2567 4026 
Q 2313 4219 1838 4219 
Q 1578 4219 1281 4162 
Q 984 4106 628 3988 
L 628 4550 
Q 988 4650 1302 4700 
Q 1616 4750 1894 4750 
Q 2613 4750 3031 4423 
Q 3450 4097 3450 3541 
Q 3450 3153 3228 2886 
Q 3006 2619 2597 2516 
z
" transform="scale(0.015625)"/>
      <path id="DejaVuSans-15" d="M 1228 531 
L 3431 531 
L 3431 0 
L 469 0 
L 469 531 
Q 828 903 1448 1529 
Q 2069 2156 2228 2338 
Q 2531 2678 2651 2914 
Q 2772 3150 2772 3378 
Q 2772 3750 2511 3984 
Q 2250 4219 1831 4219 
Q 1534 4219 1204 4116 
Q 875 4013 500 3803 
L 500 4441 
Q 881 4594 1212 4672 
Q 1544 4750 1819 4750 
Q 2544 4750 2975 4387 
Q 3406 4025 3406 3419 
Q 3406 3131 3298 2873 
Q 3191 2616 2906 2266 
Q 2828 2175 2409 1742 
Q 1991 1309 1228 531 
z
" transform="scale(0.015625)"/>
     </defs>
     <use xlink:href="#DejaVuSans-13"/>
     <use xlink:href="#DejaVuSans-11" transform="translate(63.625 0)"/>
     <use xlink:href="#DejaVuSans-1c" transform="translate(95.40625 0)"/>
     <use xlink:href="#DejaVuSans-16" transform="translate(159.03125 0)"/>
     <use xlink:href="#DejaVuSans-15" transform="translate(222.65625 0)"/>
    </g>
   </g>
   <g id="text_17">
    <!-- 0.914 -->
    <g style="fill: #1f2933" transform="translate(276.314687 44.416693) scale(0.082 -0.082)">
     <use xlink:href="#DejaVuSans-13"/>
     <use xlink:href="#DejaVuSans-11" transform="translate(63.625 0)"/>
     <use xlink:href="#DejaVuSans-1c" transform="translate(95.40625 0)"/>
     <use xlink:href="#DejaVuSans-14" transform="translate(159.03125 0)"/>
     <use xlink:href="#DejaVuSans-17" transform="translate(222.65625 0)"/>
    </g>
   </g>
   <g id="text_18">
    <!-- 0.531 -->
    <g style="fill: #1f2933" transform="translate(344.534122 191.037639) scale(0.082 -0.082)">
     <use xlink:href="#DejaVuSans-13"/>
     <use xlink:href="#DejaVuSans-11" transform="translate(63.625 0)"/>
     <use xlink:href="#DejaVuSans-18" transform="translate(95.40625 0)"/>
     <use xlink:href="#DejaVuSans-16" transform="translate(159.03125 0)"/>
     <use xlink:href="#DejaVuSans-14" transform="translate(222.65625 0)"/>
    </g>
   </g>
   <g id="text_19">
    <!-- 0.779 -->
    <g style="fill: #1f2933" transform="translate(412.753558 96.043719) scale(0.082 -0.082)">
     <use xlink:href="#DejaVuSans-13"/>
     <use xlink:href="#DejaVuSans-11" transform="translate(63.625 0)"/>
     <use xlink:href="#DejaVuSans-1a" transform="translate(95.40625 0)"/>
     <use xlink:href="#DejaVuSans-1a" transform="translate(159.03125 0)"/>
     <use xlink:href="#DejaVuSans-1c" transform="translate(222.65625 0)"/>
    </g>
   </g>
   <g id="text_20">
    <!-- Metadata controls expose shortcut risk beyond acoustic performance -->
    <g transform="translate(62.926641 11.958281) scale(0.11 -0.11)">
     <defs>
      <path id="DejaVuSans-30" d="M 628 4666 
L 1569 4666 
L 2759 1491 
L 3956 4666 
L 4897 4666 
L 4897 0 
L 4281 0 
L 4281 4097 
L 3078 897 
L 2444 897 
L 1241 4097 
L 1241 0 
L 628 0 
L 628 4666 
z
" transform="scale(0.015625)"/>
      <path id="DejaVuSans-5b" d="M 3513 3500 
L 2247 1797 
L 3578 0 
L 2900 0 
L 1881 1375 
L 863 0 
L 184 0 
L 1544 1831 
L 300 3500 
L 978 3500 
L 1906 2253 
L 2834 3500 
L 3513 3500 
z
" transform="scale(0.015625)"/>
      <path id="DejaVuSans-4e" d="M 581 4863 
L 1159 4863 
L 1159 1991 
L 2875 3500 
L 3609 3500 
L 1753 1863 
L 3688 0 
L 2938 0 
L 1159 1709 
L 1159 0 
L 581 0 
L 581 4863 
z
" transform="scale(0.015625)"/>
      <path id="DejaVuSans-45" d="M 3116 1747 
Q 3116 2381 2855 2742 
Q 2594 3103 2138 3103 
Q 1681 3103 1420 2742 
Q 1159 2381 1159 1747 
Q 1159 1113 1420 752 
Q 1681 391 2138 391 
Q 2594 391 2855 752 
Q 3116 1113 3116 1747 
z
M 1159 2969 
Q 1341 3281 1617 3432 
Q 1894 3584 2278 3584 
Q 2916 3584 3314 3078 
Q 3713 2572 3713 1747 
Q 3713 922 3314 415 
Q 2916 -91 2278 -91 
Q 1894 -91 1617 61 
Q 1341 213 1159 525 
L 1159 0 
L 581 0 
L 581 4863 
L 1159 4863 
L 1159 2969 
z
" transform="scale(0.015625)"/>
     </defs>
     <use xlink:href="#DejaVuSans-30"/>
     <use xlink:href="#DejaVuSans-48" transform="translate(86.28125 0)"/>
     <use xlink:href="#DejaVuSans-57" transform="translate(147.8125 0)"/>
     <use xlink:href="#DejaVuSans-44" transform="translate(187.015625 0)"/>
     <use xlink:href="#DejaVuSans-47" transform="translate(248.296875 0)"/>
     <use xlink:href="#DejaVuSans-44" transform="translate(311.78125 0)"/>
     <use xlink:href="#DejaVuSans-57" transform="translate(373.0625 0)"/>
     <use xlink:href="#DejaVuSans-44" transform="translate(412.265625 0)"/>
     <use xlink:href="#DejaVuSans-3" transform="translate(473.546875 0)"/>
     <use xlink:href="#DejaVuSans-46" transform="translate(505.328125 0)"/>
     <use xlink:href="#DejaVuSans-52" transform="translate(560.3125 0)"/>
     <use xlink:href="#DejaVuSans-51" transform="translate(621.5 0)"/>
     <use xlink:href="#DejaVuSans-57" transform="translate(684.875 0)"/>
     <use xlink:href="#DejaVuSans-55" transform="translate(724.078125 0)"/>
     <use xlink:href="#DejaVuSans-52" transform="translate(762.984375 0)"/>
     <use xlink:href="#DejaVuSans-4f" transform="translate(824.171875 0)"/>
     <use xlink:href="#DejaVuSans-56" transform="translate(851.953125 0)"/>
     <use xlink:href="#DejaVuSans-3" transform="translate(904.046875 0)"/>
     <use xlink:href="#DejaVuSans-48" transform="translate(935.828125 0)"/>
     <use xlink:href="#DejaVuSans-5b" transform="translate(995.609375 0)"/>
     <use xlink:href="#DejaVuSans-53" transform="translate(1054.796875 0)"/>
     <use xlink:href="#DejaVuSans-52" transform="translate(1118.28125 0)"/>
     <use xlink:href="#DejaVuSans-56" transform="translate(1179.46875 0)"/>
     <use xlink:href="#DejaVuSans-48" transform="translate(1231.5625 0)"/>
     <use xlink:href="#DejaVuSans-3" transform="translate(1293.09375 0)"/>
     <use xlink:href="#DejaVuSans-56" transform="translate(1324.875 0)"/>
     <use xlink:href="#DejaVuSans-4b" transform="translate(1376.96875 0)"/>
     <use xlink:href="#DejaVuSans-52" transform="translate(1440.34375 0)"/>
     <use xlink:href="#DejaVuSans-55" transform="translate(1501.53125 0)"/>
     <use xlink:href="#DejaVuSans-57" transform="translate(1542.640625 0)"/>
     <use xlink:href="#DejaVuSans-46" transform="translate(1581.84375 0)"/>
     <use xlink:href="#DejaVuSans-58" transform="translate(1636.828125 0)"/>
     <use xlink:href="#DejaVuSans-57" transform="translate(1700.203125 0)"/>
     <use xlink:href="#DejaVuSans-3" transform="translate(1739.40625 0)"/>
     <use xlink:href="#DejaVuSans-55" transform="translate(1771.1875 0)"/>
     <use xlink:href="#DejaVuSans-4c" transform="translate(1812.296875 0)"/>
     <use xlink:href="#DejaVuSans-56" transform="translate(1840.078125 0)"/>
     <use xlink:href="#DejaVuSans-4e" transform="translate(1892.171875 0)"/>
     <use xlink:href="#DejaVuSans-3" transform="translate(1950.078125 0)"/>
     <use xlink:href="#DejaVuSans-45" transform="translate(1981.859375 0)"/>
     <use xlink:href="#DejaVuSans-48" transform="translate(2045.34375 0)"/>
     <use xlink:href="#DejaVuSans-5c" transform="translate(2106.875 0)"/>
     <use xlink:href="#DejaVuSans-52" transform="translate(2166.0625 0)"/>
     <use xlink:href="#DejaVuSans-51" transform="translate(2227.25 0)"/>
     <use xlink:href="#DejaVuSans-47" transform="translate(2290.625 0)"/>
     <use xlink:href="#DejaVuSans-3" transform="translate(2354.109375 0)"/>
     <use xlink:href="#DejaVuSans-44" transform="translate(2385.890625 0)"/>
     <use xlink:href="#DejaVuSans-46" transform="translate(2447.171875 0)"/>
     <use xlink:href="#DejaVuSans-52" transform="translate(2502.15625 0)"/>
     <use xlink:href="#DejaVuSans-58" transform="translate(2563.34375 0)"/>
     <use xlink:href="#DejaVuSans-56" transform="translate(2626.71875 0)"/>
     <use xlink:href="#DejaVuSans-57" transform="translate(2678.8125 0)"/>
     <use xlink:href="#DejaVuSans-4c" transform="translate(2718.015625 0)"/>
     <use xlink:href="#DejaVuSans-46" transform="translate(2745.796875 0)"/>
     <use xlink:href="#DejaVuSans-3" transform="translate(2800.78125 0)"/>
     <use xlink:href="#DejaVuSans-53" transform="translate(2832.5625 0)"/>
     <use xlink:href="#DejaVuSans-48" transform="translate(2896.046875 0)"/>
     <use xlink:href="#DejaVuSans-55" transform="translate(2957.578125 0)"/>
     <use xlink:href="#DejaVuSans-49" transform="translate(2998.6875 0)"/>
     <use xlink:href="#DejaVuSans-52" transform="translate(3033.890625 0)"/>
     <use xlink:href="#DejaVuSans-55" transform="translate(3095.078125 0)"/>
     <use xlink:href="#DejaVuSans-50" transform="translate(3134.4375 0)"/>
     <use xlink:href="#DejaVuSans-44" transform="translate(3231.84375 0)"/>
     <use xlink:href="#DejaVuSans-51" transform="translate(3293.125 0)"/>
     <use xlink:href="#DejaVuSans-46" transform="translate(3356.5 0)"/>
     <use xlink:href="#DejaVuSans-48" transform="translate(3411.484375 0)"/>
    </g>
   </g>
  </g>
 </g>
 <defs>
  <clipPath id="p268c5e81bd">
   <rect x="36.3225" y="17.958281" width="435.24" height="210.672"/>
  </clipPath>
 </defs>
</svg>
