<?xml version="1.0" encoding="utf-8" standalone="no"?>
<!DOCTYPE svg PUBLIC "-//W3C//DTD SVG 1.1//EN"
  "http://www.w3.org/Graphics/SVG/1.1/DTD/svg11.dtd">
<svg xmlns:xlink="http://www.w3.org/1999/xlink" width="486.323203pt" height="260.231609pt" viewBox="0 0 486.323203 260.231609" xmlns="http://www.w3.org/2000/svg" version="1.1">
 <metadata>
  <rdf:RDF xmlns:dc="http://purl.org/dc/elements/1.1/" xmlns:cc="http://creativecommons.org/ns#" xmlns:rdf="http://www.w3.org/1999/02/22-rdf-syntax-ns#">
   <cc:Work>
    <dc:type rdf:resource="http://purl.org/dc/dcmitype/StillImage"/>
    <dc:date>2026-06-30T13:24:31.914929</dc:date>
    <dc:format>image/svg+xml</dc:format>
    <dc:creator>
     <cc:Agent>
      <dc:title>Matplotlib v3.11.0, https://matplotlib.org/</dc:title>
     </cc:Agent>
    </dc:creator>
   </cc:Work>
  </rdf:RDF>
 </metadata>
 <defs>
  <style type="text/css">*{stroke-linejoin: round; stroke-linecap: butt}</style>
 </defs>
 <g id="figure_1">
  <g id="patch_1">
   <path d="M 0 260.231609 
L 486.323203 260.231609 
L 486.323203 0 
L 0 0 
z
" style="fill: #ffffff"/>
  </g>
  <g id="axes_1">
   <g id="patch_2">
    <path d="M 36.323203 228.630281 
L 482.723203 228.630281 
L 482.723203 17.958281 
L 36.323203 17.958281 
z
" style="fill: #ffffff"/>
   </g>
   <g id="patch_3">
    <path d="M 56.614112 418.235081 
L 122.361192 418.235081 
L 122.361192 40.245243 
L 56.614112 40.245243 
z
" clip-path="url(#p288a4e4706)" style="fill: #376fa6; opacity: 0.2; stroke: #376fa6; stroke-width: 1.1; stroke-linejoin: miter"/>
   </g>
   <g id="patch_4">
    <path d="M 169.971146 418.235081 
L 235.718226 418.235081 
L 235.718226 60.404255 
L 169.971146 60.404255 
z
" clip-path="url(#p288a4e4706)" style="fill: #5d8a63; opacity: 0.2; stroke: #5d8a63; stroke-width: 1.1; stroke-linejoin: miter"/>
   </g>
   <g id="patch_5">
    <path d="M 283.32818 418.235081 
L 349.07526 418.235081 
L 349.07526 124.138641 
L 283.32818 124.138641 
z
" clip-path="url(#p288a4e4706)" style="fill: #d98b2b; opacity: 0.2; stroke: #d98b2b; stroke-width: 1.1; stroke-linejoin: miter"/>
   </g>
   <g id="patch_6">
    <path d="M 396.685214 418.235081 
L 462.432294 418.235081 
L 462.432294 189.5395 
L 396.685214 189.5395 
z
" clip-path="url(#p288a4e4706)" style="fill: #b74f4a; opacity: 0.2; stroke: #b74f4a; stroke-width: 1.1; stroke-linejoin: miter"/>
   </g>
   <g id="matplotlib.axis_1">
    <g id="xtick_1">
     <g id="line2d_1">
      <defs>
       <path id="m9fd1936945" d="M 0 0 
L 0 3.5 
" style="stroke: #000000; stroke-width: 0.8"/>
      </defs>
      <g>
       <use xlink:href="#m9fd1936945" x="89.487652" y="228.630281" style="stroke: #000000; stroke-width: 0.8"/>
      </g>
     </g>
     <g id="text_1">
      <!-- Internal -->
      <g transform="translate(74.071402 241.709031) scale(0.08 -0.08)">
       <defs>
        <path id="DejaVuSans-2c" d="M 628 4666 
L 1259 4666 
L 1259 0 
L 628 0 
L 628 4666 
z
" transform="scale(0.015625)"/>
        <path id="DejaVuSans-51" d="M 3513 2113 
L 3513 0 
L 2938 0 
L 2938 2094 
Q 2938 2591 2744 2837 
Q 2550 3084 2163 3084 
Q 1697 3084 1428 2787 
Q 1159 2491 1159 1978 
L 1159 0 
L 581 0 
L 581 3500 
L 1159 3500 
L 1159 2956 
Q 1366 3272 1645 3428 
Q 1925 3584 2291 3584 
Q 2894 3584 3203 3211 
Q 3513 2838 3513 2113 
z
" transform="scale(0.015625)"/>
        <path id="DejaVuSans-57" d="M 1172 4494 
L 1172 3500 
L 2356 3500 
L 2356 3053 
L 1172 3053 
L 1172 1153 
Q 1172 725 1289 603 
Q 1406 481 1766 481 
L 2356 481 
L 2356 0 
L 1766 0 
Q 1100 0 847 248 
Q 594 497 594 1153 
L 594 3053 
L 172 3053 
L 172 3500 
L 594 3500 
L 594 4494 
L 1172 4494 
z
" transform="scale(0.015625)"/>
        <path id="DejaVuSans-48" d="M 3597 1894 
L 3597 1613 
L 953 1613 
Q 991 1019 1311 708 
Q 1631 397 2203 397 
Q 2534 397 2845 478 
Q 3156 559 3463 722 
L 3463 178 
Q 3153 47 2828 -22 
Q 2503 -91 2169 -91 
Q 1331 -91 842 396 
Q 353 884 353 1716 
Q 353 2575 817 3079 
Q 1281 3584 2069 3584 
Q 2775 3584 3186 3129 
Q 3597 2675 3597 1894 
z
M 3022 2063 
Q 3016 2534 2758 2815 
Q 2500 3097 2075 3097 
Q 1594 3097 1305 2825 
Q 1016 2553 972 2059 
L 3022 2063 
z
" transform="scale(0.015625)"/>
        <path id="DejaVuSans-55" d="M 2631 2963 
Q 2534 3019 2420 3045 
Q 2306 3072 2169 3072 
Q 1681 3072 1420 2755 
Q 1159 2438 1159 1844 
L 1159 0 
L 581 0 
L 581 3500 
L 1159 3500 
L 1159 2956 
Q 1341 3275 1631 3429 
Q 1922 3584 2338 3584 
Q 2397 3584 2469 3576 
Q 2541 3569 2628 3553 
L 2631 2963 
z
" transform="scale(0.015625)"/>
        <path id="DejaVuSans-44" d="M 2194 1759 
Q 1497 1759 1228 1600 
Q 959 1441 959 1056 
Q 959 750 1161 570 
Q 1363 391 1709 391 
Q 2188 391 2477 730 
Q 2766 1069 2766 1631 
L 2766 1759 
L 2194 1759 
z
M 3341 1997 
L 3341 0 
L 2766 0 
L 2766 531 
Q 2569 213 2275 61 
Q 1981 -91 1556 -91 
Q 1019 -91 701 211 
Q 384 513 384 1019 
Q 384 1609 779 1909 
Q 1175 2209 1959 2209 
L 2766 2209 
L 2766 2266 
Q 2766 2663 2505 2880 
Q 2244 3097 1772 3097 
Q 1472 3097 1187 3025 
Q 903 2953 641 2809 
L 641 3341 
Q 956 3463 1253 3523 
Q 1550 3584 1831 3584 
Q 2591 3584 2966 3190 
Q 3341 2797 3341 1997 
z
" transform="scale(0.015625)"/>
        <path id="DejaVuSans-4f" d="M 603 4863 
L 1178 4863 
L 1178 0 
L 603 0 
L 603 4863 
z
" transform="scale(0.015625)"/>
       </defs>
       <use xlink:href="#DejaVuSans-2c"/>
       <use xlink:href="#DejaVuSans-51" transform="translate(29.5 0)"/>
       <use xlink:href="#DejaVuSans-57" transform="translate(92.875 0)"/>
       <use xlink:href="#DejaVuSans-48" transform="translate(132.078125 0)"/>
       <use xlink:href="#DejaVuSans-55" transform="translate(193.609375 0)"/>
       <use xlink:href="#DejaVuSans-51" transform="translate(232.96875 0)"/>
       <use xlink:href="#DejaVuSans-44" transform="translate(296.34375 0)"/>
       <use xlink:href="#DejaVuSans-4f" transform="translate(357.625 0)"/>
      </g>
     </g>
    </g>
    <g id="xtick_2">
     <g id="line2d_2">
      <g>
       <use xlink:href="#m9fd1936945" x="202.844686" y="228.630281" style="stroke: #000000; stroke-width: 0.8"/>
      </g>
     </g>
     <g id="text_2">
      <!-- Time-aware -->
      <g transform="translate(179.421561 241.709031) scale(0.08 -0.08)">
       <defs>
        <path id="DejaVuSans-37" d="M -19 4666 
L 3928 4666 
L 3928 4134 
L 2272 4134 
L 2272 0 
L 1638 0 
L 1638 4134 
L -19 4134 
L -19 4666 
z
" transform="scale(0.015625)"/>
        <path id="DejaVuSans-4c" d="M 603 3500 
L 1178 3500 
L 1178 0 
L 603 0 
L 603 3500 
z
M 603 4863 
L 1178 4863 
L 1178 4134 
L 603 4134 
L 603 4863 
z
" transform="scale(0.015625)"/>
        <path id="DejaVuSans-50" d="M 3328 2828 
Q 3544 3216 3844 3400 
Q 4144 3584 4550 3584 
Q 5097 3584 5394 3201 
Q 5691 2819 5691 2113 
L 5691 0 
L 5113 0 
L 5113 2094 
Q 5113 2597 4934 2840 
Q 4756 3084 4391 3084 
Q 3944 3084 3684 2787 
Q 3425 2491 3425 1978 
L 3425 0 
L 2847 0 
L 2847 2094 
Q 2847 2600 2669 2842 
Q 2491 3084 2119 3084 
Q 1678 3084 1418 2786 
Q 1159 2488 1159 1978 
L 1159 0 
L 581 0 
L 581 3500 
L 1159 3500 
L 1159 2956 
Q 1356 3278 1631 3431 
Q 1906 3584 2284 3584 
Q 2666 3584 2933 3390 
Q 3200 3197 3328 2828 
z
" transform="scale(0.015625)"/>
        <path id="DejaVuSans-10" d="M 313 2009 
L 1997 2009 
L 1997 1497 
L 313 1497 
L 313 2009 
z
" transform="scale(0.015625)"/>
        <path id="DejaVuSans-5a" d="M 269 3500 
L 844 3500 
L 1563 769 
L 2278 3500 
L 2956 3500 
L 3675 769 
L 4391 3500 
L 4966 3500 
L 4050 0 
L 3372 0 
L 2619 2869 
L 1863 0 
L 1184 0 
L 269 3500 
z
" transform="scale(0.015625)"/>
       </defs>
       <use xlink:href="#DejaVuSans-37"/>
       <use xlink:href="#DejaVuSans-4c" transform="translate(58 0)"/>
       <use xlink:href="#DejaVuSans-50" transform="translate(85.78125 0)"/>
       <use xlink:href="#DejaVuSans-48" transform="translate(183.1875 0)"/>
       <use xlink:href="#DejaVuSans-10" transform="translate(244.71875 0)"/>
       <use xlink:href="#DejaVuSans-44" transform="translate(280.796875 0)"/>
       <use xlink:href="#DejaVuSans-5a" transform="translate(342.078125 0)"/>
       <use xlink:href="#DejaVuSans-44" transform="translate(423.859375 0)"/>
       <use xlink:href="#DejaVuSans-55" transform="translate(485.140625 0)"/>
       <use xlink:href="#DejaVuSans-48" transform="translate(524.046875 0)"/>
      </g>
     </g>
    </g>
    <g id="xtick_3">
     <g id="line2d_3">
      <g>
       <use xlink:href="#m9fd1936945" x="316.20172" y="228.630281" style="stroke: #000000; stroke-width: 0.8"/>
      </g>
     </g>
     <g id="text_3">
      <!-- Temporal -->
      <g transform="translate(297.88672 241.709031) scale(0.08 -0.08)">
       <defs>
        <path id="DejaVuSans-53" d="M 1159 525 
L 1159 -1331 
L 581 -1331 
L 581 3500 
L 1159 3500 
L 1159 2969 
Q 1341 3281 1617 3432 
Q 1894 3584 2278 3584 
Q 2916 3584 3314 3078 
Q 3713 2572 3713 1747 
Q 3713 922 3314 415 
Q 2916 -91 2278 -91 
Q 1894 -91 1617 61 
Q 1341 213 1159 525 
z
M 3116 1747 
Q 3116 2381 2855 2742 
Q 2594 3103 2138 3103 
Q 1681 3103 1420 2742 
Q 1159 2381 1159 1747 
Q 1159 1113 1420 752 
Q 1681 391 2138 391 
Q 2594 391 2855 752 
Q 3116 1113 3116 1747 
z
" transform="scale(0.015625)"/>
        <path id="DejaVuSans-52" d="M 1959 3097 
Q 1497 3097 1228 2736 
Q 959 2375 959 1747 
Q 959 1119 1226 758 
Q 1494 397 1959 397 
Q 2419 397 2687 759 
Q 2956 1122 2956 1747 
Q 2956 2369 2687 2733 
Q 2419 3097 1959 3097 
z
M 1959 3584 
Q 2709 3584 3137 3096 
Q 3566 2609 3566 1747 
Q 3566 888 3137 398 
Q 2709 -91 1959 -91 
Q 1206 -91 779 398 
Q 353 888 353 1747 
Q 353 2609 779 3096 
Q 1206 3584 1959 3584 
z
" transform="scale(0.015625)"/>
       </defs>
       <use xlink:href="#DejaVuSans-37"/>
       <use xlink:href="#DejaVuSans-48" transform="translate(44.09375 0)"/>
       <use xlink:href="#DejaVuSans-50" transform="translate(105.625 0)"/>
       <use xlink:href="#DejaVuSans-53" transform="translate(203.03125 0)"/>
       <use xlink:href="#DejaVuSans-52" transform="translate(266.515625 0)"/>
       <use xlink:href="#DejaVuSans-55" transform="translate(327.703125 0)"/>
       <use xlink:href="#DejaVuSans-44" transform="translate(368.8125 0)"/>
       <use xlink:href="#DejaVuSans-4f" transform="translate(430.09375 0)"/>
      </g>
     </g>
    </g>
    <g id="xtick_4">
     <g id="line2d_4">
      <g>
       <use xlink:href="#m9fd1936945" x="429.558754" y="228.630281" style="stroke: #000000; stroke-width: 0.8"/>
      </g>
     </g>
     <g id="text_4">
      <!-- External -->
      <g transform="translate(412.962504 241.709031) scale(0.08 -0.08)">
       <defs>
        <path id="DejaVuSans-28" d="M 628 4666 
L 3578 4666 
L 3578 4134 
L 1259 4134 
L 1259 2753 
L 3481 2753 
L 3481 2222 
L 1259 2222 
L 1259 531 
L 3634 531 
L 3634 0 
L 628 0 
L 628 4666 
z
" transform="scale(0.015625)"/>
        <path id="DejaVuSans-5b" d="M 3513 3500 
L 2247 1797 
L 3578 0 
L 2900 0 
L 1881 1375 
L 863 0 
L 184 0 
L 1544 1831 
L 300 3500 
L 978 3500 
L 1906 2253 
L 2834 3500 
L 3513 3500 
z
" transform="scale(0.015625)"/>
       </defs>
       <use xlink:href="#DejaVuSans-28"/>
       <use xlink:href="#DejaVuSans-5b" transform="translate(63.1875 0)"/>
       <use xlink:href="#DejaVuSans-57" transform="translate(122.375 0)"/>
       <use xlink:href="#DejaVuSans-48" transform="translate(161.578125 0)"/>
       <use xlink:href="#DejaVuSans-55" transform="translate(223.109375 0)"/>
       <use xlink:href="#DejaVuSans-51" transform="translate(262.46875 0)"/>
       <use xlink:href="#DejaVuSans-44" transform="translate(325.84375 0)"/>
       <use xlink:href="#DejaVuSans-4f" transform="translate(387.125 0)"/>
      </g>
     </g>
    </g>
    <g id="text_5">
     <!-- Increasing distribution shift and deployment relevance -->
     <g transform="translate(136.339922 254.4695) scale(0.09 -0.09)">
      <defs>
       <path id="DejaVuSans-46" d="M 3122 3366 
L 3122 2828 
Q 2878 2963 2633 3030 
Q 2388 3097 2138 3097 
Q 1578 3097 1268 2742 
Q 959 2388 959 1747 
Q 959 1106 1268 751 
Q 1578 397 2138 397 
Q 2388 397 2633 464 
Q 2878 531 3122 666 
L 3122 134 
Q 2881 22 2623 -34 
Q 2366 -91 2075 -91 
Q 1284 -91 818 406 
Q 353 903 353 1747 
Q 353 2603 823 3093 
Q 1294 3584 2113 3584 
Q 2378 3584 2631 3529 
Q 2884 3475 3122 3366 
z
" transform="scale(0.015625)"/>
       <path id="DejaVuSans-56" d="M 2834 3397 
L 2834 2853 
Q 2591 2978 2328 3040 
Q 2066 3103 1784 3103 
Q 1356 3103 1142 2972 
Q 928 2841 928 2578 
Q 928 2378 1081 2264 
Q 1234 2150 1697 2047 
L 1894 2003 
Q 2506 1872 2764 1633 
Q 3022 1394 3022 966 
Q 3022 478 2636 193 
Q 2250 -91 1575 -91 
Q 1294 -91 989 -36 
Q 684 19 347 128 
L 347 722 
Q 666 556 975 473 
Q 1284 391 1588 391 
Q 1994 391 2212 530 
Q 2431 669 2431 922 
Q 2431 1156 2273 1281 
Q 2116 1406 1581 1522 
L 1381 1569 
Q 847 1681 609 1914 
Q 372 2147 372 2553 
Q 372 3047 722 3315 
Q 1072 3584 1716 3584 
Q 2034 3584 2315 3537 
Q 2597 3491 2834 3397 
z
" transform="scale(0.015625)"/>
       <path id="DejaVuSans-4a" d="M 2906 1791 
Q 2906 2416 2648 2759 
Q 2391 3103 1925 3103 
Q 1463 3103 1205 2759 
Q 947 2416 947 1791 
Q 947 1169 1205 825 
Q 1463 481 1925 481 
Q 2391 481 2648 825 
Q 2906 1169 2906 1791 
z
M 3481 434 
Q 3481 -459 3084 -895 
Q 2688 -1331 1869 -1331 
Q 1566 -1331 1297 -1286 
Q 1028 -1241 775 -1147 
L 775 -588 
Q 1028 -725 1275 -790 
Q 1522 -856 1778 -856 
Q 2344 -856 2625 -561 
Q 2906 -266 2906 331 
L 2906 616 
Q 2728 306 2450 153 
Q 2172 0 1784 0 
Q 1141 0 747 490 
Q 353 981 353 1791 
Q 353 2603 747 3093 
Q 1141 3584 1784 3584 
Q 2172 3584 2450 3431 
Q 2728 3278 2906 2969 
L 2906 3500 
L 3481 3500 
L 3481 434 
z
" transform="scale(0.015625)"/>
       <path id="DejaVuSans-3" transform="scale(0.015625)"/>
       <path id="DejaVuSans-47" d="M 2906 2969 
L 2906 4863 
L 3481 4863 
L 3481 0 
L 2906 0 
L 2906 525 
Q 2725 213 2448 61 
Q 2172 -91 1784 -91 
Q 1150 -91 751 415 
Q 353 922 353 1747 
Q 353 2572 751 3078 
Q 1150 3584 1784 3584 
Q 2172 3584 2448 3432 
Q 2725 3281 2906 2969 
z
M 947 1747 
Q 947 1113 1208 752 
Q 1469 391 1925 391 
Q 2381 391 2643 752 
Q 2906 1113 2906 1747 
Q 2906 2381 2643 2742 
Q 2381 3103 1925 3103 
Q 1469 3103 1208 2742 
Q 947 2381 947 1747 
z
" transform="scale(0.015625)"/>
       <path id="DejaVuSans-45" d="M 3116 1747 
Q 3116 2381 2855 2742 
Q 2594 3103 2138 3103 
Q 1681 3103 1420 2742 
Q 1159 2381 1159 1747 
Q 1159 1113 1420 752 
Q 1681 391 2138 391 
Q 2594 391 2855 752 
Q 3116 1113 3116 1747 
z
M 1159 2969 
Q 1341 3281 1617 3432 
Q 1894 3584 2278 3584 
Q 2916 3584 3314 3078 
Q 3713 2572 3713 1747 
Q 3713 922 3314 415 
Q 2916 -91 2278 -91 
Q 1894 -91 1617 61 
Q 1341 213 1159 525 
L 1159 0 
L 581 0 
L 581 4863 
L 1159 4863 
L 1159 2969 
z
" transform="scale(0.015625)"/>
       <path id="DejaVuSans-58" d="M 544 1381 
L 544 3500 
L 1119 3500 
L 1119 1403 
Q 1119 906 1312 657 
Q 1506 409 1894 409 
Q 2359 409 2629 706 
Q 2900 1003 2900 1516 
L 2900 3500 
L 3475 3500 
L 3475 0 
L 2900 0 
L 2900 538 
Q 2691 219 2414 64 
Q 2138 -91 1772 -91 
Q 1169 -91 856 284 
Q 544 659 544 1381 
z
M 1991 3584 
L 1991 3584 
z
" transform="scale(0.015625)"/>
       <path id="DejaVuSans-4b" d="M 3513 2113 
L 3513 0 
L 2938 0 
L 2938 2094 
Q 2938 2591 2744 2837 
Q 2550 3084 2163 3084 
Q 1697 3084 1428 2787 
Q 1159 2491 1159 1978 
L 1159 0 
L 581 0 
L 581 4863 
L 1159 4863 
L 1159 2956 
Q 1366 3272 1645 3428 
Q 1925 3584 2291 3584 
Q 2894 3584 3203 3211 
Q 3513 2838 3513 2113 
z
" transform="scale(0.015625)"/>
       <path id="DejaVuSans-49" d="M 2375 4863 
L 2375 4384 
L 1825 4384 
Q 1516 4384 1395 4259 
Q 1275 4134 1275 3809 
L 1275 3500 
L 2222 3500 
L 2222 3053 
L 1275 3053 
L 1275 0 
L 697 0 
L 697 3053 
L 147 3053 
L 147 3500 
L 697 3500 
L 697 3744 
Q 697 4328 969 4595 
Q 1241 4863 1831 4863 
L 2375 4863 
z
" transform="scale(0.015625)"/>
       <path id="DejaVuSans-5c" d="M 2059 -325 
Q 1816 -950 1584 -1140 
Q 1353 -1331 966 -1331 
L 506 -1331 
L 506 -850 
L 844 -850 
Q 1081 -850 1212 -737 
Q 1344 -625 1503 -206 
L 1606 56 
L 191 3500 
L 800 3500 
L 1894 763 
L 2988 3500 
L 3597 3500 
L 2059 -325 
z
" transform="scale(0.015625)"/>
       <path id="DejaVuSans-59" d="M 191 3500 
L 800 3500 
L 1894 563 
L 2988 3500 
L 3597 3500 
L 2284 0 
L 1503 0 
L 191 3500 
z
" transform="scale(0.015625)"/>
      </defs>
      <use xlink:href="#DejaVuSans-2c"/>
      <use xlink:href="#DejaVuSans-51" transform="translate(29.5 0)"/>
      <use xlink:href="#DejaVuSans-46" transform="translate(92.875 0)"/>
      <use xlink:href="#DejaVuSans-55" transform="translate(147.859375 0)"/>
      <use xlink:href="#DejaVuSans-48" transform="translate(186.765625 0)"/>
      <use xlink:href="#DejaVuSans-44" transform="translate(248.296875 0)"/>
      <use xlink:href="#DejaVuSans-56" transform="translate(309.578125 0)"/>
      <use xlink:href="#DejaVuSans-4c" transform="translate(361.671875 0)"/>
      <use xlink:href="#DejaVuSans-51" transform="translate(389.453125 0)"/>
      <use xlink:href="#DejaVuSans-4a" transform="translate(452.828125 0)"/>
      <use xlink:href="#DejaVuSans-3" transform="translate(516.3125 0)"/>
      <use xlink:href="#DejaVuSans-47" transform="translate(548.09375 0)"/>
      <use xlink:href="#DejaVuSans-4c" transform="translate(611.578125 0)"/>
      <use xlink:href="#DejaVuSans-56" transform="translate(639.359375 0)"/>
      <use xlink:href="#DejaVuSans-57" transform="translate(691.453125 0)"/>
      <use xlink:href="#DejaVuSans-55" transform="translate(730.65625 0)"/>
      <use xlink:href="#DejaVuSans-4c" transform="translate(771.765625 0)"/>
      <use xlink:href="#DejaVuSans-45" transform="translate(799.546875 0)"/>
      <use xlink:href="#DejaVuSans-58" transform="translate(863.03125 0)"/>
      <use xlink:href="#DejaVuSans-57" transform="translate(926.40625 0)"/>
      <use xlink:href="#DejaVuSans-4c" transform="translate(965.609375 0)"/>
      <use xlink:href="#DejaVuSans-52" transform="translate(993.390625 0)"/>
      <use xlink:href="#DejaVuSans-51" transform="translate(1054.578125 0)"/>
      <use xlink:href="#DejaVuSans-3" transform="translate(1117.953125 0)"/>
      <use xlink:href="#DejaVuSans-56" transform="translate(1149.734375 0)"/>
      <use xlink:href="#DejaVuSans-4b" transform="translate(1201.828125 0)"/>
      <use xlink:href="#DejaVuSans-4c" transform="translate(1265.203125 0)"/>
      <use xlink:href="#DejaVuSans-49" transform="translate(1292.984375 0)"/>
      <use xlink:href="#DejaVuSans-57" transform="translate(1326.4375 0)"/>
      <use xlink:href="#DejaVuSans-3" transform="translate(1365.640625 0)"/>
      <use xlink:href="#DejaVuSans-44" transform="translate(1397.421875 0)"/>
      <use xlink:href="#DejaVuSans-51" transform="translate(1458.703125 0)"/>
      <use xlink:href="#DejaVuSans-47" transform="translate(1522.078125 0)"/>
      <use xlink:href="#DejaVuSans-3" transform="translate(1585.5625 0)"/>
      <use xlink:href="#DejaVuSans-47" transform="translate(1617.34375 0)"/>
      <use xlink:href="#DejaVuSans-48" transform="translate(1680.828125 0)"/>
      <use xlink:href="#DejaVuSans-53" transform="translate(1742.359375 0)"/>
      <use xlink:href="#DejaVuSans-4f" transform="translate(1805.84375 0)"/>
      <use xlink:href="#DejaVuSans-52" transform="translate(1833.625 0)"/>
      <use xlink:href="#DejaVuSans-5c" transform="translate(1894.8125 0)"/>
      <use xlink:href="#DejaVuSans-50" transform="translate(1954 0)"/>
      <use xlink:href="#DejaVuSans-48" transform="translate(2051.40625 0)"/>
      <use xlink:href="#DejaVuSans-51" transform="translate(2112.9375 0)"/>
      <use xlink:href="#DejaVuSans-57" transform="translate(2176.3125 0)"/>
      <use xlink:href="#DejaVuSans-3" transform="translate(2215.515625 0)"/>
      <use xlink:href="#DejaVuSans-55" transform="translate(2247.296875 0)"/>
      <use xlink:href="#DejaVuSans-48" transform="translate(2286.203125 0)"/>
      <use xlink:href="#DejaVuSans-4f" transform="translate(2347.734375 0)"/>
      <use xlink:href="#DejaVuSans-48" transform="translate(2375.515625 0)"/>
      <use xlink:href="#DejaVuSans-59" transform="translate(2437.046875 0)"/>
      <use xlink:href="#DejaVuSans-44" transform="translate(2496.234375 0)"/>
      <use xlink:href="#DejaVuSans-51" transform="translate(2557.515625 0)"/>
      <use xlink:href="#DejaVuSans-46" transform="translate(2620.890625 0)"/>
      <use xlink:href="#DejaVuSans-48" transform="translate(2675.875 0)"/>
     </g>
    </g>
   </g>
   <g id="matplotlib.axis_2">
    <g id="ytick_1">
     <g id="line2d_5">
      <path d="M 36.323203 207.563081 
L 482.723203 207.563081 
" clip-path="url(#p288a4e4706)" style="fill: none; stroke: #d8dee6; stroke-width: 0.8; stroke-linecap: square"/>
     </g>
     <g id="line2d_6">
      <defs>
       <path id="me0b0c95a81" d="M 0 0 
L -3.5 0 
" style="stroke: #000000; stroke-width: 0.8"/>
      </defs>
      <g>
       <use xlink:href="#me0b0c95a81" x="36.323203" y="207.563081" style="stroke: #000000; stroke-width: 0.8"/>
      </g>
     </g>
     <g id="text_6">
      <!-- 0.5 -->
      <g transform="translate(16.600703 210.602144) scale(0.08 -0.08)">
       <defs>
        <path id="DejaVuSans-13" d="M 2034 4250 
Q 1547 4250 1301 3770 
Q 1056 3291 1056 2328 
Q 1056 1369 1301 889 
Q 1547 409 2034 409 
Q 2525 409 2770 889 
Q 3016 1369 3016 2328 
Q 3016 3291 2770 3770 
Q 2525 4250 2034 4250 
z
M 2034 4750 
Q 2819 4750 3233 4129 
Q 3647 3509 3647 2328 
Q 3647 1150 3233 529 
Q 2819 -91 2034 -91 
Q 1250 -91 836 529 
Q 422 1150 422 2328 
Q 422 3509 836 4129 
Q 1250 4750 2034 4750 
z
" transform="scale(0.015625)"/>
        <path id="DejaVuSans-11" d="M 684 794 
L 1344 794 
L 1344 0 
L 684 0 
L 684 794 
z
" transform="scale(0.015625)"/>
        <path id="DejaVuSans-18" d="M 691 4666 
L 3169 4666 
L 3169 4134 
L 1269 4134 
L 1269 2991 
Q 1406 3038 1543 3061 
Q 1681 3084 1819 3084 
Q 2600 3084 3056 2656 
Q 3513 2228 3513 1497 
Q 3513 744 3044 326 
Q 2575 -91 1722 -91 
Q 1428 -91 1123 -41 
Q 819 9 494 109 
L 494 744 
Q 775 591 1075 516 
Q 1375 441 1709 441 
Q 2250 441 2565 725 
Q 2881 1009 2881 1497 
Q 2881 1984 2565 2268 
Q 2250 2553 1709 2553 
Q 1456 2553 1204 2497 
Q 953 2441 691 2322 
L 691 4666 
z
" transform="scale(0.015625)"/>
       </defs>
       <use xlink:href="#DejaVuSans-13"/>
       <use xlink:href="#DejaVuSans-11" transform="translate(63.625 0)"/>
       <use xlink:href="#DejaVuSans-18" transform="translate(95.40625 0)"/>
      </g>
     </g>
    </g>
    <g id="ytick_2">
     <g id="line2d_7">
      <path d="M 36.323203 165.428681 
L 482.723203 165.428681 
" clip-path="url(#p288a4e4706)" style="fill: none; stroke: #d8dee6; stroke-width: 0.8; stroke-linecap: square"/>
     </g>
     <g id="line2d_8">
      <g>
       <use xlink:href="#me0b0c95a81" x="36.323203" y="165.428681" style="stroke: #000000; stroke-width: 0.8"/>
      </g>
     </g>
     <g id="text_7">
      <!-- 0.6 -->
      <g transform="translate(16.600703 168.467744) scale(0.08 -0.08)">
       <defs>
        <path id="DejaVuSans-19" d="M 2113 2584 
Q 1688 2584 1439 2293 
Q 1191 2003 1191 1497 
Q 1191 994 1439 701 
Q 1688 409 2113 409 
Q 2538 409 2786 701 
Q 3034 994 3034 1497 
Q 3034 2003 2786 2293 
Q 2538 2584 2113 2584 
z
M 3366 4563 
L 3366 3988 
Q 3128 4100 2886 4159 
Q 2644 4219 2406 4219 
Q 1781 4219 1451 3797 
Q 1122 3375 1075 2522 
Q 1259 2794 1537 2939 
Q 1816 3084 2150 3084 
Q 2853 3084 3261 2657 
Q 3669 2231 3669 1497 
Q 3669 778 3244 343 
Q 2819 -91 2113 -91 
Q 1303 -91 875 529 
Q 447 1150 447 2328 
Q 447 3434 972 4092 
Q 1497 4750 2381 4750 
Q 2619 4750 2861 4703 
Q 3103 4656 3366 4563 
z
" transform="scale(0.015625)"/>
       </defs>
       <use xlink:href="#DejaVuSans-13"/>
       <use xlink:href="#DejaVuSans-11" transform="translate(63.625 0)"/>
       <use xlink:href="#DejaVuSans-19" transform="translate(95.40625 0)"/>
      </g>
     </g>
    </g>
    <g id="ytick_3">
     <g id="line2d_9">
      <path d="M 36.323203 123.294281 
L 482.723203 123.294281 
" clip-path="url(#p288a4e4706)" style="fill: none; stroke: #d8dee6; stroke-width: 0.8; stroke-linecap: square"/>
     </g>
     <g id="line2d_10">
      <g>
       <use xlink:href="#me0b0c95a81" x="36.323203" y="123.294281" style="stroke: #000000; stroke-width: 0.8"/>
      </g>
     </g>
     <g id="text_8">
      <!-- 0.7 -->
      <g transform="translate(16.600703 126.333344) scale(0.08 -0.08)">
       <defs>
        <path id="DejaVuSans-1a" d="M 525 4666 
L 3525 4666 
L 3525 4397 
L 1831 0 
L 1172 0 
L 2766 4134 
L 525 4134 
L 525 4666 
z
" transform="scale(0.015625)"/>
       </defs>
       <use xlink:href="#DejaVuSans-13"/>
       <use xlink:href="#DejaVuSans-11" transform="translate(63.625 0)"/>
       <use xlink:href="#DejaVuSans-1a" transform="translate(95.40625 0)"/>
      </g>
     </g>
    </g>
    <g id="ytick_4">
     <g id="line2d_11">
      <path d="M 36.323203 81.159881 
L 482.723203 81.159881 
" clip-path="url(#p288a4e4706)" style="fill: none; stroke: #d8dee6; stroke-width: 0.8; stroke-linecap: square"/>
     </g>
     <g id="line2d_12">
      <g>
       <use xlink:href="#me0b0c95a81" x="36.323203" y="81.159881" style="stroke: #000000; stroke-width: 0.8"/>
      </g>
     </g>
     <g id="text_9">
      <!-- 0.8 -->
      <g transform="translate(16.600703 84.198944) scale(0.08 -0.08)">
       <defs>
        <path id="DejaVuSans-1b" d="M 2034 2216 
Q 1584 2216 1326 1975 
Q 1069 1734 1069 1313 
Q 1069 891 1326 650 
Q 1584 409 2034 409 
Q 2484 409 2743 651 
Q 3003 894 3003 1313 
Q 3003 1734 2745 1975 
Q 2488 2216 2034 2216 
z
M 1403 2484 
Q 997 2584 770 2862 
Q 544 3141 544 3541 
Q 544 4100 942 4425 
Q 1341 4750 2034 4750 
Q 2731 4750 3128 4425 
Q 3525 4100 3525 3541 
Q 3525 3141 3298 2862 
Q 3072 2584 2669 2484 
Q 3125 2378 3379 2068 
Q 3634 1759 3634 1313 
Q 3634 634 3220 271 
Q 2806 -91 2034 -91 
Q 1263 -91 848 271 
Q 434 634 434 1313 
Q 434 1759 690 2068 
Q 947 2378 1403 2484 
z
M 1172 3481 
Q 1172 3119 1398 2916 
Q 1625 2713 2034 2713 
Q 2441 2713 2670 2916 
Q 2900 3119 2900 3481 
Q 2900 3844 2670 4047 
Q 2441 4250 2034 4250 
Q 1625 4250 1398 4047 
Q 1172 3844 1172 3481 
z
" transform="scale(0.015625)"/>
       </defs>
       <use xlink:href="#DejaVuSans-13"/>
       <use xlink:href="#DejaVuSans-11" transform="translate(63.625 0)"/>
       <use xlink:href="#DejaVuSans-1b" transform="translate(95.40625 0)"/>
      </g>
     </g>
    </g>
    <g id="ytick_5">
     <g id="line2d_13">
      <path d="M 36.323203 39.025481 
L 482.723203 39.025481 
" clip-path="url(#p288a4e4706)" style="fill: none; stroke: #d8dee6; stroke-width: 0.8; stroke-linecap: square"/>
     </g>
     <g id="line2d_14">
      <g>
       <use xlink:href="#me0b0c95a81" x="36.323203" y="39.025481" style="stroke: #000000; stroke-width: 0.8"/>
      </g>
     </g>
     <g id="text_10">
      <!-- 0.9 -->
      <g transform="translate(16.600703 42.064544) scale(0.08 -0.08)">
       <defs>
        <path id="DejaVuSans-1c" d="M 703 97 
L 703 672 
Q 941 559 1184 500 
Q 1428 441 1663 441 
Q 2288 441 2617 861 
Q 2947 1281 2994 2138 
Q 2813 1869 2534 1725 
Q 2256 1581 1919 1581 
Q 1219 1581 811 2004 
Q 403 2428 403 3163 
Q 403 3881 828 4315 
Q 1253 4750 1959 4750 
Q 2769 4750 3195 4129 
Q 3622 3509 3622 2328 
Q 3622 1225 3098 567 
Q 2575 -91 1691 -91 
Q 1453 -91 1209 -44 
Q 966 3 703 97 
z
M 1959 2075 
Q 2384 2075 2632 2365 
Q 2881 2656 2881 3163 
Q 2881 3666 2632 3958 
Q 2384 4250 1959 4250 
Q 1534 4250 1286 3958 
Q 1038 3666 1038 3163 
Q 1038 2656 1286 2365 
Q 1534 2075 1959 2075 
z
" transform="scale(0.015625)"/>
       </defs>
       <use xlink:href="#DejaVuSans-13"/>
       <use xlink:href="#DejaVuSans-11" transform="translate(63.625 0)"/>
       <use xlink:href="#DejaVuSans-1c" transform="translate(95.40625 0)"/>
      </g>
     </g>
    </g>
    <g id="text_11">
     <!-- Held-out AUROC -->
     <g transform="translate(10.438594 160.244203) rotate(-90) scale(0.09 -0.09)">
      <defs>
       <path id="DejaVuSans-2b" d="M 628 4666 
L 1259 4666 
L 1259 2753 
L 3553 2753 
L 3553 4666 
L 4184 4666 
L 4184 0 
L 3553 0 
L 3553 2222 
L 1259 2222 
L 1259 0 
L 628 0 
L 628 4666 
z
" transform="scale(0.015625)"/>
       <path id="DejaVuSans-24" d="M 2188 4044 
L 1331 1722 
L 3047 1722 
L 2188 4044 
z
M 1831 4666 
L 2547 4666 
L 4325 0 
L 3669 0 
L 3244 1197 
L 1141 1197 
L 716 0 
L 50 0 
L 1831 4666 
z
" transform="scale(0.015625)"/>
       <path id="DejaVuSans-38" d="M 556 4666 
L 1191 4666 
L 1191 1831 
Q 1191 1081 1462 751 
Q 1734 422 2344 422 
Q 2950 422 3222 751 
Q 3494 1081 3494 1831 
L 3494 4666 
L 4128 4666 
L 4128 1753 
Q 4128 841 3676 375 
Q 3225 -91 2344 -91 
Q 1459 -91 1007 375 
Q 556 841 556 1753 
L 556 4666 
z
" transform="scale(0.015625)"/>
       <path id="DejaVuSans-35" d="M 2841 2188 
Q 3044 2119 3236 1894 
Q 3428 1669 3622 1275 
L 4263 0 
L 3584 0 
L 2988 1197 
Q 2756 1666 2539 1819 
Q 2322 1972 1947 1972 
L 1259 1972 
L 1259 0 
L 628 0 
L 628 4666 
L 2053 4666 
Q 2853 4666 3247 4331 
Q 3641 3997 3641 3322 
Q 3641 2881 3436 2590 
Q 3231 2300 2841 2188 
z
M 1259 4147 
L 1259 2491 
L 2053 2491 
Q 2509 2491 2742 2702 
Q 2975 2913 2975 3322 
Q 2975 3731 2742 3939 
Q 2509 4147 2053 4147 
L 1259 4147 
z
" transform="scale(0.015625)"/>
       <path id="DejaVuSans-32" d="M 2522 4238 
Q 1834 4238 1429 3725 
Q 1025 3213 1025 2328 
Q 1025 1447 1429 934 
Q 1834 422 2522 422 
Q 3209 422 3611 934 
Q 4013 1447 4013 2328 
Q 4013 3213 3611 3725 
Q 3209 4238 2522 4238 
z
M 2522 4750 
Q 3503 4750 4090 4092 
Q 4678 3434 4678 2328 
Q 4678 1225 4090 567 
Q 3503 -91 2522 -91 
Q 1538 -91 948 565 
Q 359 1222 359 2328 
Q 359 3434 948 4092 
Q 1538 4750 2522 4750 
z
" transform="scale(0.015625)"/>
       <path id="DejaVuSans-26" d="M 4122 4306 
L 4122 3641 
Q 3803 3938 3442 4084 
Q 3081 4231 2675 4231 
Q 1875 4231 1450 3742 
Q 1025 3253 1025 2328 
Q 1025 1406 1450 917 
Q 1875 428 2675 428 
Q 3081 428 3442 575 
Q 3803 722 4122 1019 
L 4122 359 
Q 3791 134 3420 21 
Q 3050 -91 2638 -91 
Q 1578 -91 968 557 
Q 359 1206 359 2328 
Q 359 3453 968 4101 
Q 1578 4750 2638 4750 
Q 3056 4750 3426 4639 
Q 3797 4528 4122 4306 
z
" transform="scale(0.015625)"/>
      </defs>
      <use xlink:href="#DejaVuSans-2b"/>
      <use xlink:href="#DejaVuSans-48" transform="translate(75.203125 0)"/>
      <use xlink:href="#DejaVuSans-4f" transform="translate(136.734375 0)"/>
      <use xlink:href="#DejaVuSans-47" transform="translate(164.515625 0)"/>
      <use xlink:href="#DejaVuSans-10" transform="translate(228 0)"/>
      <use xlink:href="#DejaVuSans-52" transform="translate(265.9375 0)"/>
      <use xlink:href="#DejaVuSans-58" transform="translate(327.125 0)"/>
      <use xlink:href="#DejaVuSans-57" transform="translate(390.5 0)"/>
      <use xlink:href="#DejaVuSans-3" transform="translate(429.703125 0)"/>
      <use xlink:href="#DejaVuSans-24" transform="translate(461.484375 0)"/>
      <use xlink:href="#DejaVuSans-38" transform="translate(529.890625 0)"/>
      <use xlink:href="#DejaVuSans-35" transform="translate(603.078125 0)"/>
      <use xlink:href="#DejaVuSans-32" transform="translate(672.5625 0)"/>
      <use xlink:href="#DejaVuSans-26" transform="translate(751.28125 0)"/>
     </g>
    </g>
   </g>
   <g id="line2d_15">
    <path d="M 36.323203 207.563081 
L 482.723203 207.563081 
" clip-path="url(#p288a4e4706)" style="fill: none; stroke-dasharray: 3.33,1.44; stroke-dashoffset: 0; stroke: #777777; stroke-width: 0.9"/>
   </g>
   <g id="patch_7">
    <path d="M 36.323203 228.630281 
L 36.323203 17.958281 
" style="fill: none; stroke: #000000; stroke-width: 0.8; stroke-linejoin: miter; stroke-linecap: square"/>
   </g>
   <g id="patch_8">
    <path d="M 36.323203 228.630281 
L 482.723203 228.630281 
" style="fill: none; stroke: #000000; stroke-width: 0.8; stroke-linejoin: miter; stroke-linecap: square"/>
   </g>
   <g id="line2d_16">
    <path d="M 89.487652 40.245243 
L 202.844686 60.404255 
L 316.20172 124.138641 
L 429.558754 189.5395 
" clip-path="url(#p288a4e4706)" style="fill: none; stroke: #283747; stroke-width: 1.6; stroke-linecap: square"/>
    <defs>
     <path id="me8fd572f75" d="M 0 3 
C 0.795609 3 1.55874 2.683901 2.12132 2.12132 
C 2.683901 1.55874 3 0.795609 3 0 
C 3 -0.795609 2.683901 -1.55874 2.12132 -2.12132 
C 1.55874 -2.683901 0.795609 -3 0 -3 
C -0.795609 -3 -1.55874 -2.683901 -2.12132 -2.12132 
C -2.683901 -1.55874 -3 -0.795609 -3 0 
C -3 0.795609 -2.683901 1.55874 -2.12132 2.12132 
C -1.55874 2.683901 -0.795609 3 0 3 
z
" style="stroke: #283747"/>
    </defs>
    <g clip-path="url(#p288a4e4706)">
     <use xlink:href="#me8fd572f75" x="89.487652" y="40.245243" style="fill: #283747; stroke: #283747"/>
     <use xlink:href="#me8fd572f75" x="202.844686" y="60.404255" style="fill: #283747; stroke: #283747"/>
     <use xlink:href="#me8fd572f75" x="316.20172" y="124.138641" style="fill: #283747; stroke: #283747"/>
     <use xlink:href="#me8fd572f75" x="429.558754" y="189.5395" style="fill: #283747; stroke: #283747"/>
    </g>
   </g>
   <g id="text_12">
    <!-- 0.897 -->
    <g style="fill: #1f2933" transform="translate(75.254293 27.549534) scale(0.09 -0.09)">
     <defs>
      <path id="DejaVuSans-Bold-13" d="M 2944 2338 
Q 2944 3213 2780 3570 
Q 2616 3928 2228 3928 
Q 1841 3928 1675 3570 
Q 1509 3213 1509 2338 
Q 1509 1453 1675 1090 
Q 1841 728 2228 728 
Q 2613 728 2778 1090 
Q 2944 1453 2944 2338 
z
M 4147 2328 
Q 4147 1169 3647 539 
Q 3147 -91 2228 -91 
Q 1306 -91 806 539 
Q 306 1169 306 2328 
Q 306 3491 806 4120 
Q 1306 4750 2228 4750 
Q 3147 4750 3647 4120 
Q 4147 3491 4147 2328 
z
" transform="scale(0.015625)"/>
      <path id="DejaVuSans-Bold-11" d="M 653 1209 
L 1778 1209 
L 1778 0 
L 653 0 
L 653 1209 
z
" transform="scale(0.015625)"/>
      <path id="DejaVuSans-Bold-1b" d="M 2228 2088 
Q 1891 2088 1709 1903 
Q 1528 1719 1528 1375 
Q 1528 1031 1709 848 
Q 1891 666 2228 666 
Q 2563 666 2741 848 
Q 2919 1031 2919 1375 
Q 2919 1722 2741 1905 
Q 2563 2088 2228 2088 
z
M 1350 2484 
Q 925 2613 709 2878 
Q 494 3144 494 3541 
Q 494 4131 934 4440 
Q 1375 4750 2228 4750 
Q 3075 4750 3515 4442 
Q 3956 4134 3956 3541 
Q 3956 3144 3739 2878 
Q 3522 2613 3097 2484 
Q 3572 2353 3814 2058 
Q 4056 1763 4056 1313 
Q 4056 619 3595 264 
Q 3134 -91 2228 -91 
Q 1319 -91 855 264 
Q 391 619 391 1313 
Q 391 1763 633 2058 
Q 875 2353 1350 2484 
z
M 1631 3419 
Q 1631 3141 1786 2991 
Q 1941 2841 2228 2841 
Q 2509 2841 2662 2991 
Q 2816 3141 2816 3419 
Q 2816 3697 2662 3845 
Q 2509 3994 2228 3994 
Q 1941 3994 1786 3844 
Q 1631 3694 1631 3419 
z
" transform="scale(0.015625)"/>
      <path id="DejaVuSans-Bold-1c" d="M 641 103 
L 641 966 
Q 928 831 1190 764 
Q 1453 697 1709 697 
Q 2247 697 2547 995 
Q 2847 1294 2900 1881 
Q 2688 1725 2447 1647 
Q 2206 1569 1925 1569 
Q 1209 1569 770 1986 
Q 331 2403 331 3084 
Q 331 3838 820 4291 
Q 1309 4744 2131 4744 
Q 3044 4744 3544 4128 
Q 4044 3513 4044 2388 
Q 4044 1231 3459 570 
Q 2875 -91 1856 -91 
Q 1528 -91 1228 -42 
Q 928 6 641 103 
z
M 2125 2350 
Q 2441 2350 2600 2554 
Q 2759 2759 2759 3169 
Q 2759 3575 2600 3781 
Q 2441 3988 2125 3988 
Q 1809 3988 1650 3781 
Q 1491 3575 1491 3169 
Q 1491 2759 1650 2554 
Q 1809 2350 2125 2350 
z
" transform="scale(0.015625)"/>
      <path id="DejaVuSans-Bold-1a" d="M 428 4666 
L 3944 4666 
L 3944 3988 
L 2125 0 
L 953 0 
L 2675 3781 
L 428 3781 
L 428 4666 
z
" transform="scale(0.015625)"/>
     </defs>
     <use xlink:href="#DejaVuSans-Bold-13"/>
     <use xlink:href="#DejaVuSans-Bold-11" transform="translate(69.578125 0)"/>
     <use xlink:href="#DejaVuSans-Bold-1b" transform="translate(107.5625 0)"/>
     <use xlink:href="#DejaVuSans-Bold-1c" transform="translate(177.140625 0)"/>
     <use xlink:href="#DejaVuSans-Bold-1a" transform="translate(246.71875 0)"/>
    </g>
   </g>
   <g id="text_13">
    <!-- cough+speech fusion -->
    <g style="fill: #1f2933" transform="translate(49.453652 199.465187) scale(0.074 -0.074)">
     <defs>
      <path id="DejaVuSans-e" d="M 2944 4013 
L 2944 2272 
L 4684 2272 
L 4684 1741 
L 2944 1741 
L 2944 0 
L 2419 0 
L 2419 1741 
L 678 1741 
L 678 2272 
L 2419 2272 
L 2419 4013 
L 2944 4013 
z
" transform="scale(0.015625)"/>
     </defs>
     <use xlink:href="#DejaVuSans-46"/>
     <use xlink:href="#DejaVuSans-52" transform="translate(54.984375 0)"/>
     <use xlink:href="#DejaVuSans-58" transform="translate(116.171875 0)"/>
     <use xlink:href="#DejaVuSans-4a" transform="translate(179.546875 0)"/>
     <use xlink:href="#DejaVuSans-4b" transform="translate(243.03125 0)"/>
     <use xlink:href="#DejaVuSans-e" transform="translate(306.40625 0)"/>
     <use xlink:href="#DejaVuSans-56" transform="translate(390.203125 0)"/>
     <use xlink:href="#DejaVuSans-53" transform="translate(442.296875 0)"/>
     <use xlink:href="#DejaVuSans-48" transform="translate(505.78125 0)"/>
     <use xlink:href="#DejaVuSans-48" transform="translate(567.3125 0)"/>
     <use xlink:href="#DejaVuSans-46" transform="translate(628.84375 0)"/>
     <use xlink:href="#DejaVuSans-4b" transform="translate(683.828125 0)"/>
     <use xlink:href="#DejaVuSans-3" transform="translate(747.203125 0)"/>
     <use xlink:href="#DejaVuSans-49" transform="translate(778.984375 0)"/>
     <use xlink:href="#DejaVuSans-58" transform="translate(814.1875 0)"/>
     <use xlink:href="#DejaVuSans-56" transform="translate(877.5625 0)"/>
     <use xlink:href="#DejaVuSans-4c" transform="translate(929.65625 0)"/>
     <use xlink:href="#DejaVuSans-52" transform="translate(957.4375 0)"/>
     <use xlink:href="#DejaVuSans-51" transform="translate(1018.625 0)"/>
    </g>
   </g>
   <g id="text_14">
    <!-- 0.849 -->
    <g style="fill: #1f2933" transform="translate(188.611327 47.708546) scale(0.09 -0.09)">
     <defs>
      <path id="DejaVuSans-Bold-17" d="M 2356 3675 
L 1038 1722 
L 2356 1722 
L 2356 3675 
z
M 2156 4666 
L 3494 4666 
L 3494 1722 
L 4159 1722 
L 4159 850 
L 3494 850 
L 3494 0 
L 2356 0 
L 2356 850 
L 288 850 
L 288 1881 
L 2156 4666 
z
" transform="scale(0.015625)"/>
     </defs>
     <use xlink:href="#DejaVuSans-Bold-13"/>
     <use xlink:href="#DejaVuSans-Bold-11" transform="translate(69.578125 0)"/>
     <use xlink:href="#DejaVuSans-Bold-1b" transform="translate(107.5625 0)"/>
     <use xlink:href="#DejaVuSans-Bold-17" transform="translate(177.140625 0)"/>
     <use xlink:href="#DejaVuSans-Bold-1c" transform="translate(246.71875 0)"/>
    </g>
   </g>
   <g id="text_15">
    <!-- cough+breath+speech -->
    <g style="fill: #1f2933" transform="translate(159.96978 189.842441) scale(0.074 -0.074)">
     <use xlink:href="#DejaVuSans-46"/>
     <use xlink:href="#DejaVuSans-52" transform="translate(54.984375 0)"/>
     <use xlink:href="#DejaVuSans-58" transform="translate(116.171875 0)"/>
     <use xlink:href="#DejaVuSans-4a" transform="translate(179.546875 0)"/>
     <use xlink:href="#DejaVuSans-4b" transform="translate(243.03125 0)"/>
     <use xlink:href="#DejaVuSans-e" transform="translate(306.40625 0)"/>
     <use xlink:href="#DejaVuSans-45" transform="translate(390.203125 0)"/>
     <use xlink:href="#DejaVuSans-55" transform="translate(453.6875 0)"/>
     <use xlink:href="#DejaVuSans-48" transform="translate(492.59375 0)"/>
     <use xlink:href="#DejaVuSans-44" transform="translate(554.125 0)"/>
     <use xlink:href="#DejaVuSans-57" transform="translate(615.40625 0)"/>
     <use xlink:href="#DejaVuSans-4b" transform="translate(654.609375 0)"/>
     <use xlink:href="#DejaVuSans-e" transform="translate(717.984375 0)"/>
     <use xlink:href="#DejaVuSans-56" transform="translate(801.78125 0)"/>
     <use xlink:href="#DejaVuSans-53" transform="translate(853.875 0)"/>
     <use xlink:href="#DejaVuSans-48" transform="translate(917.359375 0)"/>
     <use xlink:href="#DejaVuSans-48" transform="translate(978.890625 0)"/>
     <use xlink:href="#DejaVuSans-46" transform="translate(1040.421875 0)"/>
     <use xlink:href="#DejaVuSans-4b" transform="translate(1095.40625 0)"/>
    </g>
    <!-- fusion -->
    <g style="fill: #1f2933" transform="translate(191.633108 198.724464) scale(0.074 -0.074)">
     <use xlink:href="#DejaVuSans-49"/>
     <use xlink:href="#DejaVuSans-58" transform="translate(35.203125 0)"/>
     <use xlink:href="#DejaVuSans-56" transform="translate(98.578125 0)"/>
     <use xlink:href="#DejaVuSans-4c" transform="translate(150.671875 0)"/>
     <use xlink:href="#DejaVuSans-52" transform="translate(178.453125 0)"/>
     <use xlink:href="#DejaVuSans-51" transform="translate(239.640625 0)"/>
    </g>
   </g>
   <g id="text_16">
    <!-- 0.698 -->
    <g style="fill: #1f2933" transform="translate(301.968361 111.442932) scale(0.09 -0.09)">
     <defs>
      <path id="DejaVuSans-Bold-19" d="M 2316 2303 
Q 2000 2303 1842 2098 
Q 1684 1894 1684 1484 
Q 1684 1075 1842 870 
Q 2000 666 2316 666 
Q 2634 666 2792 870 
Q 2950 1075 2950 1484 
Q 2950 1894 2792 2098 
Q 2634 2303 2316 2303 
z
M 3803 4544 
L 3803 3681 
Q 3506 3822 3243 3889 
Q 2981 3956 2731 3956 
Q 2194 3956 1894 3657 
Q 1594 3359 1544 2772 
Q 1750 2925 1990 3001 
Q 2231 3078 2516 3078 
Q 3231 3078 3670 2659 
Q 4109 2241 4109 1563 
Q 4109 813 3618 361 
Q 3128 -91 2303 -91 
Q 1394 -91 895 523 
Q 397 1138 397 2266 
Q 397 3422 980 4083 
Q 1563 4744 2578 4744 
Q 2900 4744 3203 4694 
Q 3506 4644 3803 4544 
z
" transform="scale(0.015625)"/>
     </defs>
     <use xlink:href="#DejaVuSans-Bold-13"/>
     <use xlink:href="#DejaVuSans-Bold-11" transform="translate(69.578125 0)"/>
     <use xlink:href="#DejaVuSans-Bold-19" transform="translate(107.5625 0)"/>
     <use xlink:href="#DejaVuSans-Bold-1c" transform="translate(177.140625 0)"/>
     <use xlink:href="#DejaVuSans-Bold-1b" transform="translate(246.71875 0)"/>
    </g>
   </g>
   <g id="text_17">
    <!-- breath branch -->
    <g style="fill: #1f2933" transform="translate(290.036361 189.842441) scale(0.074 -0.074)">
     <use xlink:href="#DejaVuSans-45"/>
     <use xlink:href="#DejaVuSans-55" transform="translate(63.484375 0)"/>
     <use xlink:href="#DejaVuSans-48" transform="translate(102.390625 0)"/>
     <use xlink:href="#DejaVuSans-44" transform="translate(163.921875 0)"/>
     <use xlink:href="#DejaVuSans-57" transform="translate(225.203125 0)"/>
     <use xlink:href="#DejaVuSans-4b" transform="translate(264.40625 0)"/>
     <use xlink:href="#DejaVuSans-3" transform="translate(327.78125 0)"/>
     <use xlink:href="#DejaVuSans-45" transform="translate(359.5625 0)"/>
     <use xlink:href="#DejaVuSans-55" transform="translate(423.046875 0)"/>
     <use xlink:href="#DejaVuSans-44" transform="translate(464.15625 0)"/>
     <use xlink:href="#DejaVuSans-51" transform="translate(525.4375 0)"/>
     <use xlink:href="#DejaVuSans-46" transform="translate(588.8125 0)"/>
     <use xlink:href="#DejaVuSans-4b" transform="translate(643.796875 0)"/>
    </g>
    <!-- ensemble -->
    <g style="fill: #1f2933" transform="translate(298.118548 198.724464) scale(0.074 -0.074)">
     <use xlink:href="#DejaVuSans-48"/>
     <use xlink:href="#DejaVuSans-51" transform="translate(61.53125 0)"/>
     <use xlink:href="#DejaVuSans-56" transform="translate(124.90625 0)"/>
     <use xlink:href="#DejaVuSans-48" transform="translate(177 0)"/>
     <use xlink:href="#DejaVuSans-50" transform="translate(238.53125 0)"/>
     <use xlink:href="#DejaVuSans-45" transform="translate(335.9375 0)"/>
     <use xlink:href="#DejaVuSans-4f" transform="translate(399.421875 0)"/>
     <use xlink:href="#DejaVuSans-48" transform="translate(427.203125 0)"/>
    </g>
   </g>
   <g id="text_18">
    <!-- 0.543 -->
    <g style="fill: #1f2933" transform="translate(415.325395 176.843791) scale(0.09 -0.09)">
     <defs>
      <path id="DejaVuSans-Bold-18" d="M 678 4666 
L 3669 4666 
L 3669 3781 
L 1638 3781 
L 1638 3059 
Q 1775 3097 1914 3117 
Q 2053 3138 2203 3138 
Q 3056 3138 3531 2711 
Q 4006 2284 4006 1522 
Q 4006 766 3489 337 
Q 2972 -91 2053 -91 
Q 1656 -91 1267 -14 
Q 878 63 494 219 
L 494 1166 
Q 875 947 1217 837 
Q 1559 728 1863 728 
Q 2300 728 2551 942 
Q 2803 1156 2803 1522 
Q 2803 1891 2551 2103 
Q 2300 2316 1863 2316 
Q 1603 2316 1309 2248 
Q 1016 2181 678 2041 
L 678 4666 
z
" transform="scale(0.015625)"/>
      <path id="DejaVuSans-Bold-16" d="M 2981 2516 
Q 3453 2394 3698 2092 
Q 3944 1791 3944 1325 
Q 3944 631 3412 270 
Q 2881 -91 1863 -91 
Q 1503 -91 1142 -33 
Q 781 25 428 141 
L 428 1069 
Q 766 900 1098 814 
Q 1431 728 1753 728 
Q 2231 728 2486 893 
Q 2741 1059 2741 1369 
Q 2741 1688 2480 1852 
Q 2219 2016 1709 2016 
L 1228 2016 
L 1228 2791 
L 1734 2791 
Q 2188 2791 2409 2933 
Q 2631 3075 2631 3366 
Q 2631 3634 2415 3781 
Q 2200 3928 1806 3928 
Q 1516 3928 1219 3862 
Q 922 3797 628 3669 
L 628 4550 
Q 984 4650 1334 4700 
Q 1684 4750 2022 4750 
Q 2931 4750 3382 4451 
Q 3834 4153 3834 3553 
Q 3834 3144 3618 2883 
Q 3403 2622 2981 2516 
z
" transform="scale(0.015625)"/>
     </defs>
     <use xlink:href="#DejaVuSans-Bold-13"/>
     <use xlink:href="#DejaVuSans-Bold-11" transform="translate(69.578125 0)"/>
     <use xlink:href="#DejaVuSans-Bold-18" transform="translate(107.5625 0)"/>
     <use xlink:href="#DejaVuSans-Bold-17" transform="translate(177.140625 0)"/>
     <use xlink:href="#DejaVuSans-Bold-16" transform="translate(246.71875 0)"/>
    </g>
   </g>
   <g id="text_19">
    <!-- cough only -->
    <g style="fill: #1f2933" transform="translate(409.21916 199.465187) scale(0.074 -0.074)">
     <use xlink:href="#DejaVuSans-46"/>
     <use xlink:href="#DejaVuSans-52" transform="translate(54.984375 0)"/>
     <use xlink:href="#DejaVuSans-58" transform="translate(116.171875 0)"/>
     <use xlink:href="#DejaVuSans-4a" transform="translate(179.546875 0)"/>
     <use xlink:href="#DejaVuSans-4b" transform="translate(243.03125 0)"/>
     <use xlink:href="#DejaVuSans-3" transform="translate(306.40625 0)"/>
     <use xlink:href="#DejaVuSans-52" transform="translate(338.1875 0)"/>
     <use xlink:href="#DejaVuSans-51" transform="translate(399.375 0)"/>
     <use xlink:href="#DejaVuSans-4f" transform="translate(462.75 0)"/>
     <use xlink:href="#DejaVuSans-5c" transform="translate(490.53125 0)"/>
    </g>
   </g>
   <g id="text_20">
    <!-- Validation ladder: stronger tests answer narrower but more realistic questions -->
    <g transform="translate(44.708672 11.958281) scale(0.11 -0.11)">
     <defs>
      <path id="DejaVuSans-39" d="M 1831 0 
L 50 4666 
L 709 4666 
L 2188 738 
L 3669 4666 
L 4325 4666 
L 2547 0 
L 1831 0 
z
" transform="scale(0.015625)"/>
      <path id="DejaVuSans-1d" d="M 750 794 
L 1409 794 
L 1409 0 
L 750 0 
L 750 794 
z
M 750 3309 
L 1409 3309 
L 1409 2516 
L 750 2516 
L 750 3309 
z
" transform="scale(0.015625)"/>
      <path id="DejaVuSans-54" d="M 947 1747 
Q 947 1113 1208 752 
Q 1469 391 1925 391 
Q 2381 391 2643 752 
Q 2906 1113 2906 1747 
Q 2906 2381 2643 2742 
Q 2381 3103 1925 3103 
Q 1469 3103 1208 2742 
Q 947 2381 947 1747 
z
M 2906 525 
Q 2725 213 2448 61 
Q 2172 -91 1784 -91 
Q 1150 -91 751 415 
Q 353 922 353 1747 
Q 353 2572 751 3078 
Q 1150 3584 1784 3584 
Q 2172 3584 2448 3432 
Q 2725 3281 2906 2969 
L 2906 3500 
L 3481 3500 
L 3481 -1331 
L 2906 -1331 
L 2906 525 
z
" transform="scale(0.015625)"/>
     </defs>
     <use xlink:href="#DejaVuSans-39"/>
     <use xlink:href="#DejaVuSans-44" transform="translate(60.640625 0)"/>
     <use xlink:href="#DejaVuSans-4f" transform="translate(121.921875 0)"/>
     <use xlink:href="#DejaVuSans-4c" transform="translate(149.703125 0)"/>
     <use xlink:href="#DejaVuSans-47" transform="translate(177.484375 0)"/>
     <use xlink:href="#DejaVuSans-44" transform="translate(240.96875 0)"/>
     <use xlink:href="#DejaVuSans-57" transform="translate(302.25 0)"/>
     <use xlink:href="#DejaVuSans-4c" transform="translate(341.453125 0)"/>
     <use xlink:href="#DejaVuSans-52" transform="translate(369.234375 0)"/>
     <use xlink:href="#DejaVuSans-51" transform="translate(430.421875 0)"/>
     <use xlink:href="#DejaVuSans-3" transform="translate(493.796875 0)"/>
     <use xlink:href="#DejaVuSans-4f" transform="translate(525.578125 0)"/>
     <use xlink:href="#DejaVuSans-44" transform="translate(553.359375 0)"/>
     <use xlink:href="#DejaVuSans-47" transform="translate(614.640625 0)"/>
     <use xlink:href="#DejaVuSans-47" transform="translate(678.125 0)"/>
     <use xlink:href="#DejaVuSans-48" transform="translate(741.609375 0)"/>
     <use xlink:href="#DejaVuSans-55" transform="translate(803.140625 0)"/>
     <use xlink:href="#DejaVuSans-1d" transform="translate(842.5 0)"/>
     <use xlink:href="#DejaVuSans-3" transform="translate(876.1875 0)"/>
     <use xlink:href="#DejaVuSans-56" transform="translate(907.96875 0)"/>
     <use xlink:href="#DejaVuSans-57" transform="translate(960.0625 0)"/>
     <use xlink:href="#DejaVuSans-55" transform="translate(999.265625 0)"/>
     <use xlink:href="#DejaVuSans-52" transform="translate(1038.171875 0)"/>
     <use xlink:href="#DejaVuSans-51" transform="translate(1099.359375 0)"/>
     <use xlink:href="#DejaVuSans-4a" transform="translate(1162.734375 0)"/>
     <use xlink:href="#DejaVuSans-48" transform="translate(1226.21875 0)"/>
     <use xlink:href="#DejaVuSans-55" transform="translate(1287.75 0)"/>
     <use xlink:href="#DejaVuSans-3" transform="translate(1328.859375 0)"/>
     <use xlink:href="#DejaVuSans-57" transform="translate(1360.640625 0)"/>
     <use xlink:href="#DejaVuSans-48" transform="translate(1399.84375 0)"/>
     <use xlink:href="#DejaVuSans-56" transform="translate(1461.375 0)"/>
     <use xlink:href="#DejaVuSans-57" transform="translate(1513.46875 0)"/>
     <use xlink:href="#DejaVuSans-56" transform="translate(1552.671875 0)"/>
     <use xlink:href="#DejaVuSans-3" transform="translate(1604.765625 0)"/>
     <use xlink:href="#DejaVuSans-44" transform="translate(1636.546875 0)"/>
     <use xlink:href="#DejaVuSans-51" transform="translate(1697.828125 0)"/>
     <use xlink:href="#DejaVuSans-56" transform="translate(1761.203125 0)"/>
     <use xlink:href="#DejaVuSans-5a" transform="translate(1813.296875 0)"/>
     <use xlink:href="#DejaVuSans-48" transform="translate(1895.078125 0)"/>
     <use xlink:href="#DejaVuSans-55" transform="translate(1956.609375 0)"/>
     <use xlink:href="#DejaVuSans-3" transform="translate(1997.71875 0)"/>
     <use xlink:href="#DejaVuSans-51" transform="translate(2029.5 0)"/>
     <use xlink:href="#DejaVuSans-44" transform="translate(2092.875 0)"/>
     <use xlink:href="#DejaVuSans-55" transform="translate(2154.15625 0)"/>
     <use xlink:href="#DejaVuSans-55" transform="translate(2193.515625 0)"/>
     <use xlink:href="#DejaVuSans-52" transform="translate(2232.421875 0)"/>
     <use xlink:href="#DejaVuSans-5a" transform="translate(2293.609375 0)"/>
     <use xlink:href="#DejaVuSans-48" transform="translate(2375.390625 0)"/>
     <use xlink:href="#DejaVuSans-55" transform="translate(2436.921875 0)"/>
     <use xlink:href="#DejaVuSans-3" transform="translate(2478.03125 0)"/>
     <use xlink:href="#DejaVuSans-45" transform="translate(2509.8125 0)"/>
     <use xlink:href="#DejaVuSans-58" transform="translate(2573.296875 0)"/>
     <use xlink:href="#DejaVuSans-57" transform="translate(2636.671875 0)"/>
     <use xlink:href="#DejaVuSans-3" transform="translate(2675.875 0)"/>
     <use xlink:href="#DejaVuSans-50" transform="translate(2707.65625 0)"/>
     <use xlink:href="#DejaVuSans-52" transform="translate(2805.0625 0)"/>
     <use xlink:href="#DejaVuSans-55" transform="translate(2866.25 0)"/>
     <use xlink:href="#DejaVuSans-48" transform="translate(2905.15625 0)"/>
     <use xlink:href="#DejaVuSans-3" transform="translate(2966.6875 0)"/>
     <use xlink:href="#DejaVuSans-55" transform="translate(2998.46875 0)"/>
     <use xlink:href="#DejaVuSans-48" transform="translate(3037.375 0)"/>
     <use xlink:href="#DejaVuSans-44" transform="translate(3098.90625 0)"/>
     <use xlink:href="#DejaVuSans-4f" transform="translate(3160.1875 0)"/>
     <use xlink:href="#DejaVuSans-4c" transform="translate(3187.96875 0)"/>
     <use xlink:href="#DejaVuSans-56" transform="translate(3215.75 0)"/>
     <use xlink:href="#DejaVuSans-57" transform="translate(3267.84375 0)"/>
     <use xlink:href="#DejaVuSans-4c" transform="translate(3307.046875 0)"/>
     <use xlink:href="#DejaVuSans-46" transform="translate(3334.828125 0)"/>
     <use xlink:href="#DejaVuSans-3" transform="translate(3389.8125 0)"/>
     <use xlink:href="#DejaVuSans-54" transform="translate(3421.59375 0)"/>
     <use xlink:href="#DejaVuSans-58" transform="translate(3485.078125 0)"/>
     <use xlink:href="#DejaVuSans-48" transform="translate(3548.453125 0)"/>
     <use xlink:href="#DejaVuSans-56" transform="translate(3609.984375 0)"/>
     <use xlink:href="#DejaVuSans-57" transform="translate(3662.078125 0)"/>
     <use xlink:href="#DejaVuSans-4c" transform="translate(3701.28125 0)"/>
     <use xlink:href="#DejaVuSans-52" transform="translate(3729.0625 0)"/>
     <use xlink:href="#DejaVuSans-51" transform="translate(3790.25 0)"/>
     <use xlink:href="#DejaVuSans-56" transform="translate(3853.625 0)"/>
    </g>
   </g>
  </g>
 </g>
 <defs>
  <clipPath id="p288a4e4706">
   <rect x="36.323203" y="17.958281" width="446.4" height="210.672"/>
  </clipPath>
 </defs>
</svg>
