<?xml version="1.0" encoding="utf-8" standalone="no"?>
<!DOCTYPE svg PUBLIC "-//W3C//DTD SVG 1.1//EN"
  "http://www.w3.org/Graphics/SVG/1.1/DTD/svg11.dtd">
<svg xmlns:xlink="http://www.w3.org/1999/xlink" width="580.68pt" height="200.016pt" viewBox="0 0 580.68 200.016" xmlns="http://www.w3.org/2000/svg" version="1.1">
 <metadata>
  <rdf:RDF xmlns:dc="http://purl.org/dc/elements/1.1/" xmlns:cc="http://creativecommons.org/ns#" xmlns:rdf="http://www.w3.org/1999/02/22-rdf-syntax-ns#">
   <cc:Work>
    <dc:type rdf:resource="http://purl.org/dc/dcmitype/StillImage"/>
    <dc:date>2026-06-30T13:28:08.364653</dc:date>
    <dc:format>image/svg+xml</dc:format>
    <dc:creator>
     <cc:Agent>
      <dc:title>Matplotlib v3.11.0, https://matplotlib.org/</dc:title>
     </cc:Agent>
    </dc:creator>
   </cc:Work>
  </rdf:RDF>
 </metadata>
 <defs>
  <style type="text/css">*{stroke-linejoin: round; stroke-linecap: butt}</style>
 </defs>
 <g id="figure_1">
  <g id="patch_1">
   <path d="M 0 200.016 
L 580.68 200.016 
L 580.68 0 
L 0 0 
z
" style="fill: #ffffff"/>
  </g>
  <g id="axes_1">
   <g id="patch_2">
    <path d="M 25.848 155.61432 
L 139.122 155.61432 
Q 148.05 155.61432 148.05 152.598384 
L 148.05 43.647696 
Q 148.05 40.63176 139.122 40.63176 
L 25.848 40.63176 
Q 16.92 40.63176 16.92 43.647696 
L 16.92 152.598384 
Q 16.92 155.61432 25.848 155.61432 
z
" clip-path="url(#pa05d471000)" style="fill: #e9f1f7; stroke: #4b5563; stroke-linejoin: miter"/>
   </g>
   <g id="patch_3">
    <path d="M 145.030588 98.12304 
Q 150.841969 98.12304 155.31171 98.12304 
" clip-path="url(#pa05d471000)" style="fill: none; stroke: #6e7781; stroke-width: 1.2; stroke-linecap: round"/>
    <path d="M 150.51171 95.72304 
L 155.31171 98.12304 
L 150.51171 100.52304 
z
" clip-path="url(#pa05d471000)" style="fill: #6e7781; stroke: #6e7781; stroke-width: 1.2; stroke-linecap: round"/>
   </g>
   <g id="patch_4">
    <path d="M 165.348 155.61432 
L 278.622 155.61432 
Q 287.55 155.61432 287.55 152.598384 
L 287.55 43.647696 
Q 287.55 40.63176 278.622 40.63176 
L 165.348 40.63176 
Q 156.42 40.63176 156.42 43.647696 
L 156.42 152.598384 
Q 156.42 155.61432 165.348 155.61432 
z
" clip-path="url(#pa05d471000)" style="fill: #edf4eb; stroke: #4b5563; stroke-linejoin: miter"/>
   </g>
   <g id="patch_5">
    <path d="M 284.530588 98.12304 
Q 290.341969 98.12304 294.81171 98.12304 
" clip-path="url(#pa05d471000)" style="fill: none; stroke: #6e7781; stroke-width: 1.2; stroke-linecap: round"/>
    <path d="M 290.01171 95.72304 
L 294.81171 98.12304 
L 290.01171 100.52304 
z
" clip-path="url(#pa05d471000)" style="fill: #6e7781; stroke: #6e7781; stroke-width: 1.2; stroke-linecap: round"/>
   </g>
   <g id="patch_6">
    <path d="M 304.848 155.61432 
L 418.122 155.61432 
Q 427.05 155.61432 427.05 152.598384 
L 427.05 43.647696 
Q 427.05 40.63176 418.122 40.63176 
L 304.848 40.63176 
Q 295.92 40.63176 295.92 43.647696 
L 295.92 152.598384 
Q 295.92 155.61432 304.848 155.61432 
z
" clip-path="url(#pa05d471000)" style="fill: #fbf0df; stroke: #4b5563; stroke-linejoin: miter"/>
   </g>
   <g id="patch_7">
    <path d="M 424.030588 98.12304 
Q 429.841969 98.12304 434.31171 98.12304 
" clip-path="url(#pa05d471000)" style="fill: none; stroke: #6e7781; stroke-width: 1.2; stroke-linecap: round"/>
    <path d="M 429.51171 95.72304 
L 434.31171 98.12304 
L 429.51171 100.52304 
z
" clip-path="url(#pa05d471000)" style="fill: #6e7781; stroke: #6e7781; stroke-width: 1.2; stroke-linecap: round"/>
   </g>
   <g id="patch_8">
    <path d="M 444.348 155.61432 
L 557.622 155.61432 
Q 566.55 155.61432 566.55 152.598384 
L 566.55 43.647696 
Q 566.55 40.63176 557.622 40.63176 
L 444.348 40.63176 
Q 435.42 40.63176 435.42 43.647696 
L 435.42 152.598384 
Q 435.42 155.61432 444.348 155.61432 
z
" clip-path="url(#pa05d471000)" style="fill: #f7e7e5; stroke: #4b5563; stroke-linejoin: miter"/>
   </g>
   <g id="text_1">
    <!-- 1. Data -->
    <g style="fill: #1f2933" transform="translate(31.986 63.309096) scale(0.1 -0.1)">
     <defs>
      <path id="DejaVuSans-Bold-14" d="M 750 831 
L 1813 831 
L 1813 3847 
L 722 3622 
L 722 4441 
L 1806 4666 
L 2950 4666 
L 2950 831 
L 4013 831 
L 4013 0 
L 750 0 
L 750 831 
z
" transform="scale(0.015625)"/>
      <path id="DejaVuSans-Bold-11" d="M 653 1209 
L 1778 1209 
L 1778 0 
L 653 0 
L 653 1209 
z
" transform="scale(0.015625)"/>
      <path id="DejaVuSans-Bold-3" transform="scale(0.015625)"/>
      <path id="DejaVuSans-Bold-27" d="M 1791 3756 
L 1791 909 
L 2222 909 
Q 2959 909 3348 1275 
Q 3738 1641 3738 2338 
Q 3738 3031 3350 3393 
Q 2963 3756 2222 3756 
L 1791 3756 
z
M 588 4666 
L 1856 4666 
Q 2919 4666 3439 4514 
Q 3959 4363 4331 4000 
Q 4659 3684 4818 3271 
Q 4978 2859 4978 2338 
Q 4978 1809 4818 1395 
Q 4659 981 4331 666 
Q 3956 303 3431 151 
Q 2906 0 1856 0 
L 588 0 
L 588 4666 
z
" transform="scale(0.015625)"/>
      <path id="DejaVuSans-Bold-44" d="M 2106 1575 
Q 1756 1575 1579 1456 
Q 1403 1338 1403 1106 
Q 1403 894 1545 773 
Q 1688 653 1941 653 
Q 2256 653 2472 879 
Q 2688 1106 2688 1447 
L 2688 1575 
L 2106 1575 
z
M 3816 1997 
L 3816 0 
L 2688 0 
L 2688 519 
Q 2463 200 2181 54 
Q 1900 -91 1497 -91 
Q 953 -91 614 226 
Q 275 544 275 1050 
Q 275 1666 698 1953 
Q 1122 2241 2028 2241 
L 2688 2241 
L 2688 2328 
Q 2688 2594 2478 2717 
Q 2269 2841 1825 2841 
Q 1466 2841 1156 2769 
Q 847 2697 581 2553 
L 581 3406 
Q 941 3494 1303 3539 
Q 1666 3584 2028 3584 
Q 2975 3584 3395 3211 
Q 3816 2838 3816 1997 
z
" transform="scale(0.015625)"/>
      <path id="DejaVuSans-Bold-57" d="M 1759 4494 
L 1759 3500 
L 2913 3500 
L 2913 2700 
L 1759 2700 
L 1759 1216 
Q 1759 972 1856 886 
Q 1953 800 2241 800 
L 2816 800 
L 2816 0 
L 1856 0 
Q 1194 0 917 276 
Q 641 553 641 1216 
L 641 2700 
L 84 2700 
L 84 3500 
L 641 3500 
L 641 4494 
L 1759 4494 
z
" transform="scale(0.015625)"/>
     </defs>
     <use xlink:href="#DejaVuSans-Bold-14"/>
     <use xlink:href="#DejaVuSans-Bold-11" transform="translate(69.578125 0)"/>
     <use xlink:href="#DejaVuSans-Bold-3" transform="translate(107.5625 0)"/>
     <use xlink:href="#DejaVuSans-Bold-27" transform="translate(142.375 0)"/>
     <use xlink:href="#DejaVuSans-Bold-44" transform="translate(225.390625 0)"/>
     <use xlink:href="#DejaVuSans-Bold-57" transform="translate(292.875 0)"/>
     <use xlink:href="#DejaVuSans-Bold-44" transform="translate(340.671875 0)"/>
    </g>
   </g>
   <g id="text_2">
    <!-- Coswara: -->
    <g style="fill: #1f2933" transform="translate(33.102 76.717292) scale(0.078 -0.078)">
     <defs>
      <path id="DejaVuSans-Bold-26" d="M 4288 256 
Q 3956 84 3597 -3 
Q 3238 -91 2847 -91 
Q 1681 -91 1000 561 
Q 319 1213 319 2328 
Q 319 3447 1000 4098 
Q 1681 4750 2847 4750 
Q 3238 4750 3597 4662 
Q 3956 4575 4288 4403 
L 4288 3438 
Q 3953 3666 3628 3772 
Q 3303 3878 2944 3878 
Q 2300 3878 1931 3465 
Q 1563 3053 1563 2328 
Q 1563 1606 1931 1193 
Q 2300 781 2944 781 
Q 3303 781 3628 887 
Q 3953 994 4288 1222 
L 4288 256 
z
" transform="scale(0.015625)"/>
      <path id="DejaVuSans-Bold-52" d="M 2203 2784 
Q 1831 2784 1636 2517 
Q 1441 2250 1441 1747 
Q 1441 1244 1636 976 
Q 1831 709 2203 709 
Q 2569 709 2762 976 
Q 2956 1244 2956 1747 
Q 2956 2250 2762 2517 
Q 2569 2784 2203 2784 
z
M 2203 3584 
Q 3106 3584 3614 3096 
Q 4122 2609 4122 1747 
Q 4122 884 3614 396 
Q 3106 -91 2203 -91 
Q 1297 -91 786 396 
Q 275 884 275 1747 
Q 275 2609 786 3096 
Q 1297 3584 2203 3584 
z
" transform="scale(0.015625)"/>
      <path id="DejaVuSans-Bold-56" d="M 3272 3391 
L 3272 2541 
Q 2913 2691 2578 2766 
Q 2244 2841 1947 2841 
Q 1628 2841 1473 2761 
Q 1319 2681 1319 2516 
Q 1319 2381 1436 2309 
Q 1553 2238 1856 2203 
L 2053 2175 
Q 2913 2066 3209 1816 
Q 3506 1566 3506 1031 
Q 3506 472 3093 190 
Q 2681 -91 1863 -91 
Q 1516 -91 1145 -36 
Q 775 19 384 128 
L 384 978 
Q 719 816 1070 734 
Q 1422 653 1784 653 
Q 2113 653 2278 743 
Q 2444 834 2444 1013 
Q 2444 1163 2330 1236 
Q 2216 1309 1875 1350 
L 1678 1375 
Q 931 1469 631 1722 
Q 331 1975 331 2491 
Q 331 3047 712 3315 
Q 1094 3584 1881 3584 
Q 2191 3584 2531 3537 
Q 2872 3491 3272 3391 
z
" transform="scale(0.015625)"/>
      <path id="DejaVuSans-Bold-5a" d="M 225 3500 
L 1313 3500 
L 1900 1088 
L 2491 3500 
L 3425 3500 
L 4013 1113 
L 4603 3500 
L 5691 3500 
L 4769 0 
L 3547 0 
L 2956 2406 
L 2369 0 
L 1147 0 
L 225 3500 
z
" transform="scale(0.015625)"/>
      <path id="DejaVuSans-Bold-55" d="M 3138 2547 
Q 2991 2616 2845 2648 
Q 2700 2681 2553 2681 
Q 2122 2681 1889 2404 
Q 1656 2128 1656 1613 
L 1656 0 
L 538 0 
L 538 3500 
L 1656 3500 
L 1656 2925 
Q 1872 3269 2151 3426 
Q 2431 3584 2822 3584 
Q 2878 3584 2943 3579 
Q 3009 3575 3134 3559 
L 3138 2547 
z
" transform="scale(0.015625)"/>
      <path id="DejaVuSans-Bold-1d" d="M 716 3500 
L 1844 3500 
L 1844 2291 
L 716 2291 
L 716 3500 
z
M 716 1209 
L 1844 1209 
L 1844 0 
L 716 0 
L 716 1209 
z
" transform="scale(0.015625)"/>
     </defs>
     <use xlink:href="#DejaVuSans-Bold-26"/>
     <use xlink:href="#DejaVuSans-Bold-52" transform="translate(73.390625 0)"/>
     <use xlink:href="#DejaVuSans-Bold-56" transform="translate(142.09375 0)"/>
     <use xlink:href="#DejaVuSans-Bold-5a" transform="translate(201.609375 0)"/>
     <use xlink:href="#DejaVuSans-Bold-44" transform="translate(294 0)"/>
     <use xlink:href="#DejaVuSans-Bold-55" transform="translate(361.484375 0)"/>
     <use xlink:href="#DejaVuSans-Bold-44" transform="translate(410.796875 0)"/>
     <use xlink:href="#DejaVuSans-Bold-1d" transform="translate(478.28125 0)"/>
    </g>
   </g>
   <g id="text_3">
    <!-- - cough + breath + speech -->
    <g style="fill: #1f2933" transform="translate(33.102 88.216157) scale(0.078 -0.078)">
     <defs>
      <path id="DejaVuSans-10" d="M 313 2009 
L 1997 2009 
L 1997 1497 
L 313 1497 
L 313 2009 
z
" transform="scale(0.015625)"/>
      <path id="DejaVuSans-3" transform="scale(0.015625)"/>
      <path id="DejaVuSans-46" d="M 3122 3366 
L 3122 2828 
Q 2878 2963 2633 3030 
Q 2388 3097 2138 3097 
Q 1578 3097 1268 2742 
Q 959 2388 959 1747 
Q 959 1106 1268 751 
Q 1578 397 2138 397 
Q 2388 397 2633 464 
Q 2878 531 3122 666 
L 3122 134 
Q 2881 22 2623 -34 
Q 2366 -91 2075 -91 
Q 1284 -91 818 406 
Q 353 903 353 1747 
Q 353 2603 823 3093 
Q 1294 3584 2113 3584 
Q 2378 3584 2631 3529 
Q 2884 3475 3122 3366 
z
" transform="scale(0.015625)"/>
      <path id="DejaVuSans-52" d="M 1959 3097 
Q 1497 3097 1228 2736 
Q 959 2375 959 1747 
Q 959 1119 1226 758 
Q 1494 397 1959 397 
Q 2419 397 2687 759 
Q 2956 1122 2956 1747 
Q 2956 2369 2687 2733 
Q 2419 3097 1959 3097 
z
M 1959 3584 
Q 2709 3584 3137 3096 
Q 3566 2609 3566 1747 
Q 3566 888 3137 398 
Q 2709 -91 1959 -91 
Q 1206 -91 779 398 
Q 353 888 353 1747 
Q 353 2609 779 3096 
Q 1206 3584 1959 3584 
z
" transform="scale(0.015625)"/>
      <path id="DejaVuSans-58" d="M 544 1381 
L 544 3500 
L 1119 3500 
L 1119 1403 
Q 1119 906 1312 657 
Q 1506 409 1894 409 
Q 2359 409 2629 706 
Q 2900 1003 2900 1516 
L 2900 3500 
L 3475 3500 
L 3475 0 
L 2900 0 
L 2900 538 
Q 2691 219 2414 64 
Q 2138 -91 1772 -91 
Q 1169 -91 856 284 
Q 544 659 544 1381 
z
M 1991 3584 
L 1991 3584 
z
" transform="scale(0.015625)"/>
      <path id="DejaVuSans-4a" d="M 2906 1791 
Q 2906 2416 2648 2759 
Q 2391 3103 1925 3103 
Q 1463 3103 1205 2759 
Q 947 2416 947 1791 
Q 947 1169 1205 825 
Q 1463 481 1925 481 
Q 2391 481 2648 825 
Q 2906 1169 2906 1791 
z
M 3481 434 
Q 3481 -459 3084 -895 
Q 2688 -1331 1869 -1331 
Q 1566 -1331 1297 -1286 
Q 1028 -1241 775 -1147 
L 775 -588 
Q 1028 -725 1275 -790 
Q 1522 -856 1778 -856 
Q 2344 -856 2625 -561 
Q 2906 -266 2906 331 
L 2906 616 
Q 2728 306 2450 153 
Q 2172 0 1784 0 
Q 1141 0 747 490 
Q 353 981 353 1791 
Q 353 2603 747 3093 
Q 1141 3584 1784 3584 
Q 2172 3584 2450 3431 
Q 2728 3278 2906 2969 
L 2906 3500 
L 3481 3500 
L 3481 434 
z
" transform="scale(0.015625)"/>
      <path id="DejaVuSans-4b" d="M 3513 2113 
L 3513 0 
L 2938 0 
L 2938 2094 
Q 2938 2591 2744 2837 
Q 2550 3084 2163 3084 
Q 1697 3084 1428 2787 
Q 1159 2491 1159 1978 
L 1159 0 
L 581 0 
L 581 4863 
L 1159 4863 
L 1159 2956 
Q 1366 3272 1645 3428 
Q 1925 3584 2291 3584 
Q 2894 3584 3203 3211 
Q 3513 2838 3513 2113 
z
" transform="scale(0.015625)"/>
      <path id="DejaVuSans-e" d="M 2944 4013 
L 2944 2272 
L 4684 2272 
L 4684 1741 
L 2944 1741 
L 2944 0 
L 2419 0 
L 2419 1741 
L 678 1741 
L 678 2272 
L 2419 2272 
L 2419 4013 
L 2944 4013 
z
" transform="scale(0.015625)"/>
      <path id="DejaVuSans-45" d="M 3116 1747 
Q 3116 2381 2855 2742 
Q 2594 3103 2138 3103 
Q 1681 3103 1420 2742 
Q 1159 2381 1159 1747 
Q 1159 1113 1420 752 
Q 1681 391 2138 391 
Q 2594 391 2855 752 
Q 3116 1113 3116 1747 
z
M 1159 2969 
Q 1341 3281 1617 3432 
Q 1894 3584 2278 3584 
Q 2916 3584 3314 3078 
Q 3713 2572 3713 1747 
Q 3713 922 3314 415 
Q 2916 -91 2278 -91 
Q 1894 -91 1617 61 
Q 1341 213 1159 525 
L 1159 0 
L 581 0 
L 581 4863 
L 1159 4863 
L 1159 2969 
z
" transform="scale(0.015625)"/>
      <path id="DejaVuSans-55" d="M 2631 2963 
Q 2534 3019 2420 3045 
Q 2306 3072 2169 3072 
Q 1681 3072 1420 2755 
Q 1159 2438 1159 1844 
L 1159 0 
L 581 0 
L 581 3500 
L 1159 3500 
L 1159 2956 
Q 1341 3275 1631 3429 
Q 1922 3584 2338 3584 
Q 2397 3584 2469 3576 
Q 2541 3569 2628 3553 
L 2631 2963 
z
" transform="scale(0.015625)"/>
      <path id="DejaVuSans-48" d="M 3597 1894 
L 3597 1613 
L 953 1613 
Q 991 1019 1311 708 
Q 1631 397 2203 397 
Q 2534 397 2845 478 
Q 3156 559 3463 722 
L 3463 178 
Q 3153 47 2828 -22 
Q 2503 -91 2169 -91 
Q 1331 -91 842 396 
Q 353 884 353 1716 
Q 353 2575 817 3079 
Q 1281 3584 2069 3584 
Q 2775 3584 3186 3129 
Q 3597 2675 3597 1894 
z
M 3022 2063 
Q 3016 2534 2758 2815 
Q 2500 3097 2075 3097 
Q 1594 3097 1305 2825 
Q 1016 2553 972 2059 
L 3022 2063 
z
" transform="scale(0.015625)"/>
      <path id="DejaVuSans-44" d="M 2194 1759 
Q 1497 1759 1228 1600 
Q 959 1441 959 1056 
Q 959 750 1161 570 
Q 1363 391 1709 391 
Q 2188 391 2477 730 
Q 2766 1069 2766 1631 
L 2766 1759 
L 2194 1759 
z
M 3341 1997 
L 3341 0 
L 2766 0 
L 2766 531 
Q 2569 213 2275 61 
Q 1981 -91 1556 -91 
Q 1019 -91 701 211 
Q 384 513 384 1019 
Q 384 1609 779 1909 
Q 1175 2209 1959 2209 
L 2766 2209 
L 2766 2266 
Q 2766 2663 2505 2880 
Q 2244 3097 1772 3097 
Q 1472 3097 1187 3025 
Q 903 2953 641 2809 
L 641 3341 
Q 956 3463 1253 3523 
Q 1550 3584 1831 3584 
Q 2591 3584 2966 3190 
Q 3341 2797 3341 1997 
z
" transform="scale(0.015625)"/>
      <path id="DejaVuSans-57" d="M 1172 4494 
L 1172 3500 
L 2356 3500 
L 2356 3053 
L 1172 3053 
L 1172 1153 
Q 1172 725 1289 603 
Q 1406 481 1766 481 
L 2356 481 
L 2356 0 
L 1766 0 
Q 1100 0 847 248 
Q 594 497 594 1153 
L 594 3053 
L 172 3053 
L 172 3500 
L 594 3500 
L 594 4494 
L 1172 4494 
z
" transform="scale(0.015625)"/>
      <path id="DejaVuSans-56" d="M 2834 3397 
L 2834 2853 
Q 2591 2978 2328 3040 
Q 2066 3103 1784 3103 
Q 1356 3103 1142 2972 
Q 928 2841 928 2578 
Q 928 2378 1081 2264 
Q 1234 2150 1697 2047 
L 1894 2003 
Q 2506 1872 2764 1633 
Q 3022 1394 3022 966 
Q 3022 478 2636 193 
Q 2250 -91 1575 -91 
Q 1294 -91 989 -36 
Q 684 19 347 128 
L 347 722 
Q 666 556 975 473 
Q 1284 391 1588 391 
Q 1994 391 2212 530 
Q 2431 669 2431 922 
Q 2431 1156 2273 1281 
Q 2116 1406 1581 1522 
L 1381 1569 
Q 847 1681 609 1914 
Q 372 2147 372 2553 
Q 372 3047 722 3315 
Q 1072 3584 1716 3584 
Q 2034 3584 2315 3537 
Q 2597 3491 2834 3397 
z
" transform="scale(0.015625)"/>
      <path id="DejaVuSans-53" d="M 1159 525 
L 1159 -1331 
L 581 -1331 
L 581 3500 
L 1159 3500 
L 1159 2969 
Q 1341 3281 1617 3432 
Q 1894 3584 2278 3584 
Q 2916 3584 3314 3078 
Q 3713 2572 3713 1747 
Q 3713 922 3314 415 
Q 2916 -91 2278 -91 
Q 1894 -91 1617 61 
Q 1341 213 1159 525 
z
M 3116 1747 
Q 3116 2381 2855 2742 
Q 2594 3103 2138 3103 
Q 1681 3103 1420 2742 
Q 1159 2381 1159 1747 
Q 1159 1113 1420 752 
Q 1681 391 2138 391 
Q 2594 391 2855 752 
Q 3116 1113 3116 1747 
z
" transform="scale(0.015625)"/>
     </defs>
     <use xlink:href="#DejaVuSans-10"/>
     <use xlink:href="#DejaVuSans-3" transform="translate(36.078125 0)"/>
     <use xlink:href="#DejaVuSans-46" transform="translate(67.859375 0)"/>
     <use xlink:href="#DejaVuSans-52" transform="translate(122.84375 0)"/>
     <use xlink:href="#DejaVuSans-58" transform="translate(184.03125 0)"/>
     <use xlink:href="#DejaVuSans-4a" transform="translate(247.40625 0)"/>
     <use xlink:href="#DejaVuSans-4b" transform="translate(310.890625 0)"/>
     <use xlink:href="#DejaVuSans-3" transform="translate(374.265625 0)"/>
     <use xlink:href="#DejaVuSans-e" transform="translate(406.046875 0)"/>
     <use xlink:href="#DejaVuSans-3" transform="translate(489.84375 0)"/>
     <use xlink:href="#DejaVuSans-45" transform="translate(521.625 0)"/>
     <use xlink:href="#DejaVuSans-55" transform="translate(585.109375 0)"/>
     <use xlink:href="#DejaVuSans-48" transform="translate(624.015625 0)"/>
     <use xlink:href="#DejaVuSans-44" transform="translate(685.546875 0)"/>
     <use xlink:href="#DejaVuSans-57" transform="translate(746.828125 0)"/>
     <use xlink:href="#DejaVuSans-4b" transform="translate(786.03125 0)"/>
     <use xlink:href="#DejaVuSans-3" transform="translate(849.40625 0)"/>
     <use xlink:href="#DejaVuSans-e" transform="translate(881.1875 0)"/>
     <use xlink:href="#DejaVuSans-3" transform="translate(964.984375 0)"/>
     <use xlink:href="#DejaVuSans-56" transform="translate(996.765625 0)"/>
     <use xlink:href="#DejaVuSans-53" transform="translate(1048.859375 0)"/>
     <use xlink:href="#DejaVuSans-48" transform="translate(1112.34375 0)"/>
     <use xlink:href="#DejaVuSans-48" transform="translate(1173.875 0)"/>
     <use xlink:href="#DejaVuSans-46" transform="translate(1235.40625 0)"/>
     <use xlink:href="#DejaVuSans-4b" transform="translate(1290.390625 0)"/>
    </g>
   </g>
   <g id="text_4">
    <!-- COUGHVID: -->
    <g style="fill: #1f2933" transform="translate(33.102 99.713804) scale(0.078 -0.078)">
     <defs>
      <path id="DejaVuSans-Bold-32" d="M 2719 3878 
Q 2169 3878 1866 3472 
Q 1563 3066 1563 2328 
Q 1563 1594 1866 1187 
Q 2169 781 2719 781 
Q 3272 781 3575 1187 
Q 3878 1594 3878 2328 
Q 3878 3066 3575 3472 
Q 3272 3878 2719 3878 
z
M 2719 4750 
Q 3844 4750 4481 4106 
Q 5119 3463 5119 2328 
Q 5119 1197 4481 553 
Q 3844 -91 2719 -91 
Q 1597 -91 958 553 
Q 319 1197 319 2328 
Q 319 3463 958 4106 
Q 1597 4750 2719 4750 
z
" transform="scale(0.015625)"/>
      <path id="DejaVuSans-Bold-38" d="M 588 4666 
L 1791 4666 
L 1791 1869 
Q 1791 1291 1980 1042 
Q 2169 794 2597 794 
Q 3028 794 3217 1042 
Q 3406 1291 3406 1869 
L 3406 4666 
L 4609 4666 
L 4609 1869 
Q 4609 878 4112 393 
Q 3616 -91 2597 -91 
Q 1581 -91 1084 393 
Q 588 878 588 1869 
L 588 4666 
z
" transform="scale(0.015625)"/>
      <path id="DejaVuSans-Bold-2a" d="M 4781 347 
Q 4331 128 3847 18 
Q 3363 -91 2847 -91 
Q 1681 -91 1000 561 
Q 319 1213 319 2328 
Q 319 3456 1012 4103 
Q 1706 4750 2913 4750 
Q 3378 4750 3804 4662 
Q 4231 4575 4609 4403 
L 4609 3438 
Q 4219 3659 3833 3768 
Q 3447 3878 3059 3878 
Q 2341 3878 1952 3476 
Q 1563 3075 1563 2328 
Q 1563 1588 1938 1184 
Q 2313 781 3003 781 
Q 3191 781 3352 804 
Q 3513 828 3641 878 
L 3641 1784 
L 2906 1784 
L 2906 2591 
L 4781 2591 
L 4781 347 
z
" transform="scale(0.015625)"/>
      <path id="DejaVuSans-Bold-2b" d="M 588 4666 
L 1791 4666 
L 1791 2888 
L 3566 2888 
L 3566 4666 
L 4769 4666 
L 4769 0 
L 3566 0 
L 3566 1978 
L 1791 1978 
L 1791 0 
L 588 0 
L 588 4666 
z
" transform="scale(0.015625)"/>
      <path id="DejaVuSans-Bold-39" d="M 31 4666 
L 1241 4666 
L 2478 1222 
L 3713 4666 
L 4922 4666 
L 3194 0 
L 1759 0 
L 31 4666 
z
" transform="scale(0.015625)"/>
      <path id="DejaVuSans-Bold-2c" d="M 588 4666 
L 1791 4666 
L 1791 0 
L 588 0 
L 588 4666 
z
" transform="scale(0.015625)"/>
     </defs>
     <use xlink:href="#DejaVuSans-Bold-26"/>
     <use xlink:href="#DejaVuSans-Bold-32" transform="translate(73.390625 0)"/>
     <use xlink:href="#DejaVuSans-Bold-38" transform="translate(158.40625 0)"/>
     <use xlink:href="#DejaVuSans-Bold-2a" transform="translate(239.609375 0)"/>
     <use xlink:href="#DejaVuSans-Bold-2b" transform="translate(321.6875 0)"/>
     <use xlink:href="#DejaVuSans-Bold-39" transform="translate(405.375 0)"/>
     <use xlink:href="#DejaVuSans-Bold-2c" transform="translate(482.765625 0)"/>
     <use xlink:href="#DejaVuSans-Bold-27" transform="translate(519.96875 0)"/>
     <use xlink:href="#DejaVuSans-Bold-1d" transform="translate(602.984375 0)"/>
    </g>
   </g>
   <g id="text_5">
    <!-- - cough only -->
    <g style="fill: #1f2933" transform="translate(33.102 111.212669) scale(0.078 -0.078)">
     <defs>
      <path id="DejaVuSans-51" d="M 3513 2113 
L 3513 0 
L 2938 0 
L 2938 2094 
Q 2938 2591 2744 2837 
Q 2550 3084 2163 3084 
Q 1697 3084 1428 2787 
Q 1159 2491 1159 1978 
L 1159 0 
L 581 0 
L 581 3500 
L 1159 3500 
L 1159 2956 
Q 1366 3272 1645 3428 
Q 1925 3584 2291 3584 
Q 2894 3584 3203 3211 
Q 3513 2838 3513 2113 
z
" transform="scale(0.015625)"/>
      <path id="DejaVuSans-4f" d="M 603 4863 
L 1178 4863 
L 1178 0 
L 603 0 
L 603 4863 
z
" transform="scale(0.015625)"/>
      <path id="DejaVuSans-5c" d="M 2059 -325 
Q 1816 -950 1584 -1140 
Q 1353 -1331 966 -1331 
L 506 -1331 
L 506 -850 
L 844 -850 
Q 1081 -850 1212 -737 
Q 1344 -625 1503 -206 
L 1606 56 
L 191 3500 
L 800 3500 
L 1894 763 
L 2988 3500 
L 3597 3500 
L 2059 -325 
z
" transform="scale(0.015625)"/>
     </defs>
     <use xlink:href="#DejaVuSans-10"/>
     <use xlink:href="#DejaVuSans-3" transform="translate(36.078125 0)"/>
     <use xlink:href="#DejaVuSans-46" transform="translate(67.859375 0)"/>
     <use xlink:href="#DejaVuSans-52" transform="translate(122.84375 0)"/>
     <use xlink:href="#DejaVuSans-58" transform="translate(184.03125 0)"/>
     <use xlink:href="#DejaVuSans-4a" transform="translate(247.40625 0)"/>
     <use xlink:href="#DejaVuSans-4b" transform="translate(310.890625 0)"/>
     <use xlink:href="#DejaVuSans-3" transform="translate(374.265625 0)"/>
     <use xlink:href="#DejaVuSans-52" transform="translate(406.046875 0)"/>
     <use xlink:href="#DejaVuSans-51" transform="translate(467.234375 0)"/>
     <use xlink:href="#DejaVuSans-4f" transform="translate(530.609375 0)"/>
     <use xlink:href="#DejaVuSans-5c" transform="translate(558.390625 0)"/>
    </g>
   </g>
   <g id="text_6">
    <!-- - Metadata controls -->
    <g style="fill: #1f2933" transform="translate(33.102 122.710925) scale(0.078 -0.078)">
     <defs>
      <path id="DejaVuSans-30" d="M 628 4666 
L 1569 4666 
L 2759 1491 
L 3956 4666 
L 4897 4666 
L 4897 0 
L 4281 0 
L 4281 4097 
L 3078 897 
L 2444 897 
L 1241 4097 
L 1241 0 
L 628 0 
L 628 4666 
z
" transform="scale(0.015625)"/>
      <path id="DejaVuSans-47" d="M 2906 2969 
L 2906 4863 
L 3481 4863 
L 3481 0 
L 2906 0 
L 2906 525 
Q 2725 213 2448 61 
Q 2172 -91 1784 -91 
Q 1150 -91 751 415 
Q 353 922 353 1747 
Q 353 2572 751 3078 
Q 1150 3584 1784 3584 
Q 2172 3584 2448 3432 
Q 2725 3281 2906 2969 
z
M 947 1747 
Q 947 1113 1208 752 
Q 1469 391 1925 391 
Q 2381 391 2643 752 
Q 2906 1113 2906 1747 
Q 2906 2381 2643 2742 
Q 2381 3103 1925 3103 
Q 1469 3103 1208 2742 
Q 947 2381 947 1747 
z
" transform="scale(0.015625)"/>
     </defs>
     <use xlink:href="#DejaVuSans-10"/>
     <use xlink:href="#DejaVuSans-3" transform="translate(36.078125 0)"/>
     <use xlink:href="#DejaVuSans-30" transform="translate(67.859375 0)"/>
     <use xlink:href="#DejaVuSans-48" transform="translate(154.140625 0)"/>
     <use xlink:href="#DejaVuSans-57" transform="translate(215.671875 0)"/>
     <use xlink:href="#DejaVuSans-44" transform="translate(254.875 0)"/>
     <use xlink:href="#DejaVuSans-47" transform="translate(316.15625 0)"/>
     <use xlink:href="#DejaVuSans-44" transform="translate(379.640625 0)"/>
     <use xlink:href="#DejaVuSans-57" transform="translate(440.921875 0)"/>
     <use xlink:href="#DejaVuSans-44" transform="translate(480.125 0)"/>
     <use xlink:href="#DejaVuSans-3" transform="translate(541.40625 0)"/>
     <use xlink:href="#DejaVuSans-46" transform="translate(573.1875 0)"/>
     <use xlink:href="#DejaVuSans-52" transform="translate(628.171875 0)"/>
     <use xlink:href="#DejaVuSans-51" transform="translate(689.359375 0)"/>
     <use xlink:href="#DejaVuSans-57" transform="translate(752.734375 0)"/>
     <use xlink:href="#DejaVuSans-55" transform="translate(791.9375 0)"/>
     <use xlink:href="#DejaVuSans-52" transform="translate(830.84375 0)"/>
     <use xlink:href="#DejaVuSans-4f" transform="translate(892.03125 0)"/>
     <use xlink:href="#DejaVuSans-56" transform="translate(919.8125 0)"/>
    </g>
   </g>
   <g id="text_7">
    <!-- 2. Model bank -->
    <g style="fill: #1f2933" transform="translate(171.486 63.309877) scale(0.1 -0.1)">
     <defs>
      <path id="DejaVuSans-Bold-15" d="M 1844 884 
L 3897 884 
L 3897 0 
L 506 0 
L 506 884 
L 2209 2388 
Q 2438 2594 2547 2791 
Q 2656 2988 2656 3200 
Q 2656 3528 2436 3728 
Q 2216 3928 1850 3928 
Q 1569 3928 1234 3808 
Q 900 3688 519 3450 
L 519 4475 
Q 925 4609 1322 4679 
Q 1719 4750 2100 4750 
Q 2938 4750 3402 4381 
Q 3866 4013 3866 3353 
Q 3866 2972 3669 2642 
Q 3472 2313 2841 1759 
L 1844 884 
z
" transform="scale(0.015625)"/>
      <path id="DejaVuSans-Bold-30" d="M 588 4666 
L 2119 4666 
L 3181 2169 
L 4250 4666 
L 5778 4666 
L 5778 0 
L 4641 0 
L 4641 3413 
L 3566 897 
L 2803 897 
L 1728 3413 
L 1728 0 
L 588 0 
L 588 4666 
z
" transform="scale(0.015625)"/>
      <path id="DejaVuSans-Bold-47" d="M 2919 2988 
L 2919 4863 
L 4044 4863 
L 4044 0 
L 2919 0 
L 2919 506 
Q 2688 197 2409 53 
Q 2131 -91 1766 -91 
Q 1119 -91 703 423 
Q 288 938 288 1747 
Q 288 2556 703 3070 
Q 1119 3584 1766 3584 
Q 2128 3584 2408 3439 
Q 2688 3294 2919 2988 
z
M 2181 722 
Q 2541 722 2730 984 
Q 2919 1247 2919 1747 
Q 2919 2247 2730 2509 
Q 2541 2772 2181 2772 
Q 1825 2772 1636 2509 
Q 1447 2247 1447 1747 
Q 1447 1247 1636 984 
Q 1825 722 2181 722 
z
" transform="scale(0.015625)"/>
      <path id="DejaVuSans-Bold-48" d="M 4031 1759 
L 4031 1441 
L 1416 1441 
Q 1456 1047 1700 850 
Q 1944 653 2381 653 
Q 2734 653 3104 758 
Q 3475 863 3866 1075 
L 3866 213 
Q 3469 63 3072 -14 
Q 2675 -91 2278 -91 
Q 1328 -91 801 392 
Q 275 875 275 1747 
Q 275 2603 792 3093 
Q 1309 3584 2216 3584 
Q 3041 3584 3536 3087 
Q 4031 2591 4031 1759 
z
M 2881 2131 
Q 2881 2450 2695 2645 
Q 2509 2841 2209 2841 
Q 1884 2841 1681 2658 
Q 1478 2475 1428 2131 
L 2881 2131 
z
" transform="scale(0.015625)"/>
      <path id="DejaVuSans-Bold-4f" d="M 538 4863 
L 1656 4863 
L 1656 0 
L 538 0 
L 538 4863 
z
" transform="scale(0.015625)"/>
      <path id="DejaVuSans-Bold-45" d="M 2400 722 
Q 2759 722 2948 984 
Q 3138 1247 3138 1747 
Q 3138 2247 2948 2509 
Q 2759 2772 2400 2772 
Q 2041 2772 1848 2508 
Q 1656 2244 1656 1747 
Q 1656 1250 1848 986 
Q 2041 722 2400 722 
z
M 1656 2988 
Q 1888 3294 2169 3439 
Q 2450 3584 2816 3584 
Q 3463 3584 3878 3070 
Q 4294 2556 4294 1747 
Q 4294 938 3878 423 
Q 3463 -91 2816 -91 
Q 2450 -91 2169 54 
Q 1888 200 1656 506 
L 1656 0 
L 538 0 
L 538 4863 
L 1656 4863 
L 1656 2988 
z
" transform="scale(0.015625)"/>
      <path id="DejaVuSans-Bold-51" d="M 4056 2131 
L 4056 0 
L 2931 0 
L 2931 347 
L 2931 1631 
Q 2931 2084 2911 2256 
Q 2891 2428 2841 2509 
Q 2775 2619 2662 2680 
Q 2550 2741 2406 2741 
Q 2056 2741 1856 2470 
Q 1656 2200 1656 1722 
L 1656 0 
L 538 0 
L 538 3500 
L 1656 3500 
L 1656 2988 
Q 1909 3294 2193 3439 
Q 2478 3584 2822 3584 
Q 3428 3584 3742 3212 
Q 4056 2841 4056 2131 
z
" transform="scale(0.015625)"/>
      <path id="DejaVuSans-Bold-4e" d="M 538 4863 
L 1656 4863 
L 1656 2216 
L 2944 3500 
L 4244 3500 
L 2534 1894 
L 4378 0 
L 3022 0 
L 1656 1459 
L 1656 0 
L 538 0 
L 538 4863 
z
" transform="scale(0.015625)"/>
     </defs>
     <use xlink:href="#DejaVuSans-Bold-15"/>
     <use xlink:href="#DejaVuSans-Bold-11" transform="translate(69.578125 0)"/>
     <use xlink:href="#DejaVuSans-Bold-3" transform="translate(107.5625 0)"/>
     <use xlink:href="#DejaVuSans-Bold-30" transform="translate(142.375 0)"/>
     <use xlink:href="#DejaVuSans-Bold-52" transform="translate(241.890625 0)"/>
     <use xlink:href="#DejaVuSans-Bold-47" transform="translate(310.59375 0)"/>
     <use xlink:href="#DejaVuSans-Bold-48" transform="translate(382.171875 0)"/>
     <use xlink:href="#DejaVuSans-Bold-4f" transform="translate(450 0)"/>
     <use xlink:href="#DejaVuSans-Bold-3" transform="translate(484.28125 0)"/>
     <use xlink:href="#DejaVuSans-Bold-45" transform="translate(519.09375 0)"/>
     <use xlink:href="#DejaVuSans-Bold-44" transform="translate(590.671875 0)"/>
     <use xlink:href="#DejaVuSans-Bold-51" transform="translate(658.15625 0)"/>
     <use xlink:href="#DejaVuSans-Bold-4e" transform="translate(729.34375 0)"/>
    </g>
   </g>
   <g id="text_8">
    <!-- - MFCC/CNN/WavLM -->
    <g style="fill: #1f2933" transform="translate(172.602 76.717292) scale(0.078 -0.078)">
     <defs>
      <path id="DejaVuSans-29" d="M 628 4666 
L 3309 4666 
L 3309 4134 
L 1259 4134 
L 1259 2759 
L 3109 2759 
L 3109 2228 
L 1259 2228 
L 1259 0 
L 628 0 
L 628 4666 
z
" transform="scale(0.015625)"/>
      <path id="DejaVuSans-26" d="M 4122 4306 
L 4122 3641 
Q 3803 3938 3442 4084 
Q 3081 4231 2675 4231 
Q 1875 4231 1450 3742 
Q 1025 3253 1025 2328 
Q 1025 1406 1450 917 
Q 1875 428 2675 428 
Q 3081 428 3442 575 
Q 3803 722 4122 1019 
L 4122 359 
Q 3791 134 3420 21 
Q 3050 -91 2638 -91 
Q 1578 -91 968 557 
Q 359 1206 359 2328 
Q 359 3453 968 4101 
Q 1578 4750 2638 4750 
Q 3056 4750 3426 4639 
Q 3797 4528 4122 4306 
z
" transform="scale(0.015625)"/>
      <path id="DejaVuSans-12" d="M 1625 4666 
L 2156 4666 
L 531 -594 
L 0 -594 
L 1625 4666 
z
" transform="scale(0.015625)"/>
      <path id="DejaVuSans-31" d="M 628 4666 
L 1478 4666 
L 3547 763 
L 3547 4666 
L 4159 4666 
L 4159 0 
L 3309 0 
L 1241 3903 
L 1241 0 
L 628 0 
L 628 4666 
z
" transform="scale(0.015625)"/>
      <path id="DejaVuSans-3a" d="M 213 4666 
L 850 4666 
L 1831 722 
L 2809 4666 
L 3519 4666 
L 4500 722 
L 5478 4666 
L 6119 4666 
L 4947 0 
L 4153 0 
L 3169 4050 
L 2175 0 
L 1381 0 
L 213 4666 
z
" transform="scale(0.015625)"/>
      <path id="DejaVuSans-59" d="M 191 3500 
L 800 3500 
L 1894 563 
L 2988 3500 
L 3597 3500 
L 2284 0 
L 1503 0 
L 191 3500 
z
" transform="scale(0.015625)"/>
      <path id="DejaVuSans-2f" d="M 628 4666 
L 1259 4666 
L 1259 531 
L 3531 531 
L 3531 0 
L 628 0 
L 628 4666 
z
" transform="scale(0.015625)"/>
     </defs>
     <use xlink:href="#DejaVuSans-10"/>
     <use xlink:href="#DejaVuSans-3" transform="translate(36.078125 0)"/>
     <use xlink:href="#DejaVuSans-30" transform="translate(67.859375 0)"/>
     <use xlink:href="#DejaVuSans-29" transform="translate(154.140625 0)"/>
     <use xlink:href="#DejaVuSans-26" transform="translate(211.65625 0)"/>
     <use xlink:href="#DejaVuSans-26" transform="translate(281.484375 0)"/>
     <use xlink:href="#DejaVuSans-12" transform="translate(351.3125 0)"/>
     <use xlink:href="#DejaVuSans-26" transform="translate(385 0)"/>
     <use xlink:href="#DejaVuSans-31" transform="translate(454.828125 0)"/>
     <use xlink:href="#DejaVuSans-31" transform="translate(529.640625 0)"/>
     <use xlink:href="#DejaVuSans-12" transform="translate(604.453125 0)"/>
     <use xlink:href="#DejaVuSans-3a" transform="translate(638.140625 0)"/>
     <use xlink:href="#DejaVuSans-44" transform="translate(730.625 0)"/>
     <use xlink:href="#DejaVuSans-59" transform="translate(791.90625 0)"/>
     <use xlink:href="#DejaVuSans-2f" transform="translate(851.09375 0)"/>
     <use xlink:href="#DejaVuSans-30" transform="translate(906.8125 0)"/>
    </g>
   </g>
   <g id="text_9">
    <!-- - ComParE+IS10 -->
    <g style="fill: #1f2933" transform="translate(172.602 90.289004) scale(0.078 -0.078)">
     <defs>
      <path id="DejaVuSans-50" d="M 3328 2828 
Q 3544 3216 3844 3400 
Q 4144 3584 4550 3584 
Q 5097 3584 5394 3201 
Q 5691 2819 5691 2113 
L 5691 0 
L 5113 0 
L 5113 2094 
Q 5113 2597 4934 2840 
Q 4756 3084 4391 3084 
Q 3944 3084 3684 2787 
Q 3425 2491 3425 1978 
L 3425 0 
L 2847 0 
L 2847 2094 
Q 2847 2600 2669 2842 
Q 2491 3084 2119 3084 
Q 1678 3084 1418 2786 
Q 1159 2488 1159 1978 
L 1159 0 
L 581 0 
L 581 3500 
L 1159 3500 
L 1159 2956 
Q 1356 3278 1631 3431 
Q 1906 3584 2284 3584 
Q 2666 3584 2933 3390 
Q 3200 3197 3328 2828 
z
" transform="scale(0.015625)"/>
      <path id="DejaVuSans-33" d="M 1259 4147 
L 1259 2394 
L 2053 2394 
Q 2494 2394 2734 2622 
Q 2975 2850 2975 3272 
Q 2975 3691 2734 3919 
Q 2494 4147 2053 4147 
L 1259 4147 
z
M 628 4666 
L 2053 4666 
Q 2838 4666 3239 4311 
Q 3641 3956 3641 3272 
Q 3641 2581 3239 2228 
Q 2838 1875 2053 1875 
L 1259 1875 
L 1259 0 
L 628 0 
L 628 4666 
z
" transform="scale(0.015625)"/>
      <path id="DejaVuSans-28" d="M 628 4666 
L 3578 4666 
L 3578 4134 
L 1259 4134 
L 1259 2753 
L 3481 2753 
L 3481 2222 
L 1259 2222 
L 1259 531 
L 3634 531 
L 3634 0 
L 628 0 
L 628 4666 
z
" transform="scale(0.015625)"/>
      <path id="DejaVuSans-2c" d="M 628 4666 
L 1259 4666 
L 1259 0 
L 628 0 
L 628 4666 
z
" transform="scale(0.015625)"/>
      <path id="DejaVuSans-36" d="M 3425 4513 
L 3425 3897 
Q 3066 4069 2747 4153 
Q 2428 4238 2131 4238 
Q 1616 4238 1336 4038 
Q 1056 3838 1056 3469 
Q 1056 3159 1242 3001 
Q 1428 2844 1947 2747 
L 2328 2669 
Q 3034 2534 3370 2195 
Q 3706 1856 3706 1288 
Q 3706 609 3251 259 
Q 2797 -91 1919 -91 
Q 1588 -91 1214 -16 
Q 841 59 441 206 
L 441 856 
Q 825 641 1194 531 
Q 1563 422 1919 422 
Q 2459 422 2753 634 
Q 3047 847 3047 1241 
Q 3047 1584 2836 1778 
Q 2625 1972 2144 2069 
L 1759 2144 
Q 1053 2284 737 2584 
Q 422 2884 422 3419 
Q 422 4038 858 4394 
Q 1294 4750 2059 4750 
Q 2388 4750 2728 4690 
Q 3069 4631 3425 4513 
z
" transform="scale(0.015625)"/>
      <path id="DejaVuSans-14" d="M 794 531 
L 1825 531 
L 1825 4091 
L 703 3866 
L 703 4441 
L 1819 4666 
L 2450 4666 
L 2450 531 
L 3481 531 
L 3481 0 
L 794 0 
L 794 531 
z
" transform="scale(0.015625)"/>
      <path id="DejaVuSans-13" d="M 2034 4250 
Q 1547 4250 1301 3770 
Q 1056 3291 1056 2328 
Q 1056 1369 1301 889 
Q 1547 409 2034 409 
Q 2525 409 2770 889 
Q 3016 1369 3016 2328 
Q 3016 3291 2770 3770 
Q 2525 4250 2034 4250 
z
M 2034 4750 
Q 2819 4750 3233 4129 
Q 3647 3509 3647 2328 
Q 3647 1150 3233 529 
Q 2819 -91 2034 -91 
Q 1250 -91 836 529 
Q 422 1150 422 2328 
Q 422 3509 836 4129 
Q 1250 4750 2034 4750 
z
" transform="scale(0.015625)"/>
     </defs>
     <use xlink:href="#DejaVuSans-10"/>
     <use xlink:href="#DejaVuSans-3" transform="translate(36.078125 0)"/>
     <use xlink:href="#DejaVuSans-26" transform="translate(67.859375 0)"/>
     <use xlink:href="#DejaVuSans-52" transform="translate(137.6875 0)"/>
     <use xlink:href="#DejaVuSans-50" transform="translate(198.875 0)"/>
     <use xlink:href="#DejaVuSans-33" transform="translate(296.28125 0)"/>
     <use xlink:href="#DejaVuSans-44" transform="translate(352.09375 0)"/>
     <use xlink:href="#DejaVuSans-55" transform="translate(413.375 0)"/>
     <use xlink:href="#DejaVuSans-28" transform="translate(454.484375 0)"/>
     <use xlink:href="#DejaVuSans-e" transform="translate(517.671875 0)"/>
     <use xlink:href="#DejaVuSans-2c" transform="translate(601.46875 0)"/>
     <use xlink:href="#DejaVuSans-36" transform="translate(630.96875 0)"/>
     <use xlink:href="#DejaVuSans-14" transform="translate(694.453125 0)"/>
     <use xlink:href="#DejaVuSans-13" transform="translate(758.078125 0)"/>
    </g>
   </g>
   <g id="text_10">
    <!-- - LightGBM/CatBoost/SVM -->
    <g style="fill: #1f2933" transform="translate(172.602 103.861325) scale(0.078 -0.078)">
     <defs>
      <path id="DejaVuSans-4c" d="M 603 3500 
L 1178 3500 
L 1178 0 
L 603 0 
L 603 3500 
z
M 603 4863 
L 1178 4863 
L 1178 4134 
L 603 4134 
L 603 4863 
z
" transform="scale(0.015625)"/>
      <path id="DejaVuSans-2a" d="M 3809 666 
L 3809 1919 
L 2778 1919 
L 2778 2438 
L 4434 2438 
L 4434 434 
Q 4069 175 3628 42 
Q 3188 -91 2688 -91 
Q 1594 -91 976 548 
Q 359 1188 359 2328 
Q 359 3472 976 4111 
Q 1594 4750 2688 4750 
Q 3144 4750 3555 4637 
Q 3966 4525 4313 4306 
L 4313 3634 
Q 3963 3931 3569 4081 
Q 3175 4231 2741 4231 
Q 1884 4231 1454 3753 
Q 1025 3275 1025 2328 
Q 1025 1384 1454 906 
Q 1884 428 2741 428 
Q 3075 428 3337 486 
Q 3600 544 3809 666 
z
" transform="scale(0.015625)"/>
      <path id="DejaVuSans-25" d="M 1259 2228 
L 1259 519 
L 2272 519 
Q 2781 519 3026 730 
Q 3272 941 3272 1375 
Q 3272 1813 3026 2020 
Q 2781 2228 2272 2228 
L 1259 2228 
z
M 1259 4147 
L 1259 2741 
L 2194 2741 
Q 2656 2741 2882 2914 
Q 3109 3088 3109 3444 
Q 3109 3797 2882 3972 
Q 2656 4147 2194 4147 
L 1259 4147 
z
M 628 4666 
L 2241 4666 
Q 2963 4666 3353 4366 
Q 3744 4066 3744 3513 
Q 3744 3084 3544 2831 
Q 3344 2578 2956 2516 
Q 3422 2416 3680 2098 
Q 3938 1781 3938 1306 
Q 3938 681 3513 340 
Q 3088 0 2303 0 
L 628 0 
L 628 4666 
z
" transform="scale(0.015625)"/>
      <path id="DejaVuSans-39" d="M 1831 0 
L 50 4666 
L 709 4666 
L 2188 738 
L 3669 4666 
L 4325 4666 
L 2547 0 
L 1831 0 
z
" transform="scale(0.015625)"/>
     </defs>
     <use xlink:href="#DejaVuSans-10"/>
     <use xlink:href="#DejaVuSans-3" transform="translate(36.078125 0)"/>
     <use xlink:href="#DejaVuSans-2f" transform="translate(67.859375 0)"/>
     <use xlink:href="#DejaVuSans-4c" transform="translate(123.578125 0)"/>
     <use xlink:href="#DejaVuSans-4a" transform="translate(151.359375 0)"/>
     <use xlink:href="#DejaVuSans-4b" transform="translate(214.84375 0)"/>
     <use xlink:href="#DejaVuSans-57" transform="translate(278.21875 0)"/>
     <use xlink:href="#DejaVuSans-2a" transform="translate(317.421875 0)"/>
     <use xlink:href="#DejaVuSans-25" transform="translate(394.90625 0)"/>
     <use xlink:href="#DejaVuSans-30" transform="translate(463.515625 0)"/>
     <use xlink:href="#DejaVuSans-12" transform="translate(549.796875 0)"/>
     <use xlink:href="#DejaVuSans-26" transform="translate(583.484375 0)"/>
     <use xlink:href="#DejaVuSans-44" transform="translate(653.3125 0)"/>
     <use xlink:href="#DejaVuSans-57" transform="translate(714.59375 0)"/>
     <use xlink:href="#DejaVuSans-25" transform="translate(753.796875 0)"/>
     <use xlink:href="#DejaVuSans-52" transform="translate(822.40625 0)"/>
     <use xlink:href="#DejaVuSans-52" transform="translate(883.59375 0)"/>
     <use xlink:href="#DejaVuSans-56" transform="translate(944.78125 0)"/>
     <use xlink:href="#DejaVuSans-57" transform="translate(996.875 0)"/>
     <use xlink:href="#DejaVuSans-12" transform="translate(1036.078125 0)"/>
     <use xlink:href="#DejaVuSans-36" transform="translate(1069.765625 0)"/>
     <use xlink:href="#DejaVuSans-39" transform="translate(1133.25 0)"/>
     <use xlink:href="#DejaVuSans-30" transform="translate(1201.65625 0)"/>
    </g>
   </g>
   <g id="text_11">
    <!-- - late fusion -->
    <g style="fill: #1f2933" transform="translate(172.602 117.433037) scale(0.078 -0.078)">
     <defs>
      <path id="DejaVuSans-49" d="M 2375 4863 
L 2375 4384 
L 1825 4384 
Q 1516 4384 1395 4259 
Q 1275 4134 1275 3809 
L 1275 3500 
L 2222 3500 
L 2222 3053 
L 1275 3053 
L 1275 0 
L 697 0 
L 697 3053 
L 147 3053 
L 147 3500 
L 697 3500 
L 697 3744 
Q 697 4328 969 4595 
Q 1241 4863 1831 4863 
L 2375 4863 
z
" transform="scale(0.015625)"/>
     </defs>
     <use xlink:href="#DejaVuSans-10"/>
     <use xlink:href="#DejaVuSans-3" transform="translate(36.078125 0)"/>
     <use xlink:href="#DejaVuSans-4f" transform="translate(67.859375 0)"/>
     <use xlink:href="#DejaVuSans-44" transform="translate(95.640625 0)"/>
     <use xlink:href="#DejaVuSans-57" transform="translate(156.921875 0)"/>
     <use xlink:href="#DejaVuSans-48" transform="translate(196.125 0)"/>
     <use xlink:href="#DejaVuSans-3" transform="translate(257.65625 0)"/>
     <use xlink:href="#DejaVuSans-49" transform="translate(289.4375 0)"/>
     <use xlink:href="#DejaVuSans-58" transform="translate(324.640625 0)"/>
     <use xlink:href="#DejaVuSans-56" transform="translate(388.015625 0)"/>
     <use xlink:href="#DejaVuSans-4c" transform="translate(440.109375 0)"/>
     <use xlink:href="#DejaVuSans-52" transform="translate(467.890625 0)"/>
     <use xlink:href="#DejaVuSans-51" transform="translate(529.078125 0)"/>
    </g>
   </g>
   <g id="text_12">
    <!-- 3. Validation -->
    <g style="fill: #1f2933" transform="translate(310.986 63.309877) scale(0.1 -0.1)">
     <defs>
      <path id="DejaVuSans-Bold-16" d="M 2981 2516 
Q 3453 2394 3698 2092 
Q 3944 1791 3944 1325 
Q 3944 631 3412 270 
Q 2881 -91 1863 -91 
Q 1503 -91 1142 -33 
Q 781 25 428 141 
L 428 1069 
Q 766 900 1098 814 
Q 1431 728 1753 728 
Q 2231 728 2486 893 
Q 2741 1059 2741 1369 
Q 2741 1688 2480 1852 
Q 2219 2016 1709 2016 
L 1228 2016 
L 1228 2791 
L 1734 2791 
Q 2188 2791 2409 2933 
Q 2631 3075 2631 3366 
Q 2631 3634 2415 3781 
Q 2200 3928 1806 3928 
Q 1516 3928 1219 3862 
Q 922 3797 628 3669 
L 628 4550 
Q 984 4650 1334 4700 
Q 1684 4750 2022 4750 
Q 2931 4750 3382 4451 
Q 3834 4153 3834 3553 
Q 3834 3144 3618 2883 
Q 3403 2622 2981 2516 
z
" transform="scale(0.015625)"/>
      <path id="DejaVuSans-Bold-4c" d="M 538 3500 
L 1656 3500 
L 1656 0 
L 538 0 
L 538 3500 
z
M 538 4863 
L 1656 4863 
L 1656 3950 
L 538 3950 
L 538 4863 
z
" transform="scale(0.015625)"/>
     </defs>
     <use xlink:href="#DejaVuSans-Bold-16"/>
     <use xlink:href="#DejaVuSans-Bold-11" transform="translate(69.578125 0)"/>
     <use xlink:href="#DejaVuSans-Bold-3" transform="translate(107.5625 0)"/>
     <use xlink:href="#DejaVuSans-Bold-39" transform="translate(142.375 0)"/>
     <use xlink:href="#DejaVuSans-Bold-44" transform="translate(214.296875 0)"/>
     <use xlink:href="#DejaVuSans-Bold-4f" transform="translate(281.78125 0)"/>
     <use xlink:href="#DejaVuSans-Bold-4c" transform="translate(316.0625 0)"/>
     <use xlink:href="#DejaVuSans-Bold-47" transform="translate(350.34375 0)"/>
     <use xlink:href="#DejaVuSans-Bold-44" transform="translate(421.921875 0)"/>
     <use xlink:href="#DejaVuSans-Bold-57" transform="translate(489.40625 0)"/>
     <use xlink:href="#DejaVuSans-Bold-4c" transform="translate(537.203125 0)"/>
     <use xlink:href="#DejaVuSans-Bold-52" transform="translate(571.484375 0)"/>
     <use xlink:href="#DejaVuSans-Bold-51" transform="translate(640.1875 0)"/>
    </g>
   </g>
   <g id="text_13">
    <!-- - participant split -->
    <g style="fill: #1f2933" transform="translate(312.102 76.717901) scale(0.078 -0.078)">
     <use xlink:href="#DejaVuSans-10"/>
     <use xlink:href="#DejaVuSans-3" transform="translate(36.078125 0)"/>
     <use xlink:href="#DejaVuSans-53" transform="translate(67.859375 0)"/>
     <use xlink:href="#DejaVuSans-44" transform="translate(131.34375 0)"/>
     <use xlink:href="#DejaVuSans-55" transform="translate(192.625 0)"/>
     <use xlink:href="#DejaVuSans-57" transform="translate(233.734375 0)"/>
     <use xlink:href="#DejaVuSans-4c" transform="translate(272.9375 0)"/>
     <use xlink:href="#DejaVuSans-46" transform="translate(300.71875 0)"/>
     <use xlink:href="#DejaVuSans-4c" transform="translate(355.703125 0)"/>
     <use xlink:href="#DejaVuSans-53" transform="translate(383.484375 0)"/>
     <use xlink:href="#DejaVuSans-44" transform="translate(446.96875 0)"/>
     <use xlink:href="#DejaVuSans-51" transform="translate(508.25 0)"/>
     <use xlink:href="#DejaVuSans-57" transform="translate(571.625 0)"/>
     <use xlink:href="#DejaVuSans-3" transform="translate(610.828125 0)"/>
     <use xlink:href="#DejaVuSans-56" transform="translate(642.609375 0)"/>
     <use xlink:href="#DejaVuSans-53" transform="translate(694.703125 0)"/>
     <use xlink:href="#DejaVuSans-4f" transform="translate(758.1875 0)"/>
     <use xlink:href="#DejaVuSans-4c" transform="translate(785.96875 0)"/>
     <use xlink:href="#DejaVuSans-57" transform="translate(813.75 0)"/>
    </g>
   </g>
   <g id="text_14">
    <!-- - time-stratified split -->
    <g style="fill: #1f2933" transform="translate(312.102 90.289613) scale(0.078 -0.078)">
     <defs>
      <path id="DejaVuSans-13af" d="M 3431 3500 
L 3431 0 
L 2853 0 
L 2853 3053 
L 1275 3053 
L 1275 0 
L 697 0 
L 697 3053 
L 147 3053 
L 147 3500 
L 697 3500 
L 697 3744 
Q 697 4316 967 4589 
Q 1238 4863 1797 4863 
L 2375 4863 
L 2375 4384 
L 1825 4384 
Q 1516 4384 1395 4259 
Q 1275 4134 1275 3809 
L 1275 3500 
L 3431 3500 
z
M 2853 4856 
L 3431 4856 
L 3431 4128 
L 2853 4128 
L 2853 4856 
z
" transform="scale(0.015625)"/>
     </defs>
     <use xlink:href="#DejaVuSans-10"/>
     <use xlink:href="#DejaVuSans-3" transform="translate(36.078125 0)"/>
     <use xlink:href="#DejaVuSans-57" transform="translate(67.859375 0)"/>
     <use xlink:href="#DejaVuSans-4c" transform="translate(107.0625 0)"/>
     <use xlink:href="#DejaVuSans-50" transform="translate(134.84375 0)"/>
     <use xlink:href="#DejaVuSans-48" transform="translate(232.25 0)"/>
     <use xlink:href="#DejaVuSans-10" transform="translate(293.78125 0)"/>
     <use xlink:href="#DejaVuSans-56" transform="translate(329.859375 0)"/>
     <use xlink:href="#DejaVuSans-57" transform="translate(381.953125 0)"/>
     <use xlink:href="#DejaVuSans-55" transform="translate(421.15625 0)"/>
     <use xlink:href="#DejaVuSans-44" transform="translate(462.265625 0)"/>
     <use xlink:href="#DejaVuSans-57" transform="translate(523.546875 0)"/>
     <use xlink:href="#DejaVuSans-4c" transform="translate(562.75 0)"/>
     <use xlink:href="#DejaVuSans-13af" transform="translate(590.53125 0)"/>
     <use xlink:href="#DejaVuSans-48" transform="translate(653.515625 0)"/>
     <use xlink:href="#DejaVuSans-47" transform="translate(715.046875 0)"/>
     <use xlink:href="#DejaVuSans-3" transform="translate(778.53125 0)"/>
     <use xlink:href="#DejaVuSans-56" transform="translate(810.3125 0)"/>
     <use xlink:href="#DejaVuSans-53" transform="translate(862.40625 0)"/>
     <use xlink:href="#DejaVuSans-4f" transform="translate(925.890625 0)"/>
     <use xlink:href="#DejaVuSans-4c" transform="translate(953.671875 0)"/>
     <use xlink:href="#DejaVuSans-57" transform="translate(981.453125 0)"/>
    </g>
   </g>
   <g id="text_15">
    <!-- - early-to-late split -->
    <g style="fill: #1f2933" transform="translate(312.102 103.861325) scale(0.078 -0.078)">
     <use xlink:href="#DejaVuSans-10"/>
     <use xlink:href="#DejaVuSans-3" transform="translate(36.078125 0)"/>
     <use xlink:href="#DejaVuSans-48" transform="translate(67.859375 0)"/>
     <use xlink:href="#DejaVuSans-44" transform="translate(129.390625 0)"/>
     <use xlink:href="#DejaVuSans-55" transform="translate(190.671875 0)"/>
     <use xlink:href="#DejaVuSans-4f" transform="translate(231.78125 0)"/>
     <use xlink:href="#DejaVuSans-5c" transform="translate(259.5625 0)"/>
     <use xlink:href="#DejaVuSans-10" transform="translate(317 0)"/>
     <use xlink:href="#DejaVuSans-57" transform="translate(353.078125 0)"/>
     <use xlink:href="#DejaVuSans-52" transform="translate(392.28125 0)"/>
     <use xlink:href="#DejaVuSans-10" transform="translate(455.328125 0)"/>
     <use xlink:href="#DejaVuSans-4f" transform="translate(491.40625 0)"/>
     <use xlink:href="#DejaVuSans-44" transform="translate(519.1875 0)"/>
     <use xlink:href="#DejaVuSans-57" transform="translate(580.46875 0)"/>
     <use xlink:href="#DejaVuSans-48" transform="translate(619.671875 0)"/>
     <use xlink:href="#DejaVuSans-3" transform="translate(681.203125 0)"/>
     <use xlink:href="#DejaVuSans-56" transform="translate(712.984375 0)"/>
     <use xlink:href="#DejaVuSans-53" transform="translate(765.078125 0)"/>
     <use xlink:href="#DejaVuSans-4f" transform="translate(828.5625 0)"/>
     <use xlink:href="#DejaVuSans-4c" transform="translate(856.34375 0)"/>
     <use xlink:href="#DejaVuSans-57" transform="translate(884.125 0)"/>
    </g>
   </g>
   <g id="text_16">
    <!-- - COUGHVID transfer -->
    <g style="fill: #1f2933" transform="translate(312.102 117.433037) scale(0.078 -0.078)">
     <defs>
      <path id="DejaVuSans-32" d="M 2522 4238 
Q 1834 4238 1429 3725 
Q 1025 3213 1025 2328 
Q 1025 1447 1429 934 
Q 1834 422 2522 422 
Q 3209 422 3611 934 
Q 4013 1447 4013 2328 
Q 4013 3213 3611 3725 
Q 3209 4238 2522 4238 
z
M 2522 4750 
Q 3503 4750 4090 4092 
Q 4678 3434 4678 2328 
Q 4678 1225 4090 567 
Q 3503 -91 2522 -91 
Q 1538 -91 948 565 
Q 359 1222 359 2328 
Q 359 3434 948 4092 
Q 1538 4750 2522 4750 
z
" transform="scale(0.015625)"/>
      <path id="DejaVuSans-38" d="M 556 4666 
L 1191 4666 
L 1191 1831 
Q 1191 1081 1462 751 
Q 1734 422 2344 422 
Q 2950 422 3222 751 
Q 3494 1081 3494 1831 
L 3494 4666 
L 4128 4666 
L 4128 1753 
Q 4128 841 3676 375 
Q 3225 -91 2344 -91 
Q 1459 -91 1007 375 
Q 556 841 556 1753 
L 556 4666 
z
" transform="scale(0.015625)"/>
      <path id="DejaVuSans-2b" d="M 628 4666 
L 1259 4666 
L 1259 2753 
L 3553 2753 
L 3553 4666 
L 4184 4666 
L 4184 0 
L 3553 0 
L 3553 2222 
L 1259 2222 
L 1259 0 
L 628 0 
L 628 4666 
z
" transform="scale(0.015625)"/>
      <path id="DejaVuSans-27" d="M 1259 4147 
L 1259 519 
L 2022 519 
Q 2988 519 3436 956 
Q 3884 1394 3884 2338 
Q 3884 3275 3436 3711 
Q 2988 4147 2022 4147 
L 1259 4147 
z
M 628 4666 
L 1925 4666 
Q 3281 4666 3915 4102 
Q 4550 3538 4550 2338 
Q 4550 1131 3912 565 
Q 3275 0 1925 0 
L 628 0 
L 628 4666 
z
" transform="scale(0.015625)"/>
     </defs>
     <use xlink:href="#DejaVuSans-10"/>
     <use xlink:href="#DejaVuSans-3" transform="translate(36.078125 0)"/>
     <use xlink:href="#DejaVuSans-26" transform="translate(67.859375 0)"/>
     <use xlink:href="#DejaVuSans-32" transform="translate(137.6875 0)"/>
     <use xlink:href="#DejaVuSans-38" transform="translate(216.40625 0)"/>
     <use xlink:href="#DejaVuSans-2a" transform="translate(289.59375 0)"/>
     <use xlink:href="#DejaVuSans-2b" transform="translate(367.078125 0)"/>
     <use xlink:href="#DejaVuSans-39" transform="translate(442.28125 0)"/>
     <use xlink:href="#DejaVuSans-2c" transform="translate(510.6875 0)"/>
     <use xlink:href="#DejaVuSans-27" transform="translate(540.1875 0)"/>
     <use xlink:href="#DejaVuSans-3" transform="translate(617.1875 0)"/>
     <use xlink:href="#DejaVuSans-57" transform="translate(648.96875 0)"/>
     <use xlink:href="#DejaVuSans-55" transform="translate(688.171875 0)"/>
     <use xlink:href="#DejaVuSans-44" transform="translate(729.28125 0)"/>
     <use xlink:href="#DejaVuSans-51" transform="translate(790.5625 0)"/>
     <use xlink:href="#DejaVuSans-56" transform="translate(853.9375 0)"/>
     <use xlink:href="#DejaVuSans-49" transform="translate(906.03125 0)"/>
     <use xlink:href="#DejaVuSans-48" transform="translate(941.234375 0)"/>
     <use xlink:href="#DejaVuSans-55" transform="translate(1002.765625 0)"/>
    </g>
   </g>
   <g id="text_17">
    <!-- 4. Interpretation -->
    <g style="fill: #1f2933" transform="translate(450.486 63.309877) scale(0.1 -0.1)">
     <defs>
      <path id="DejaVuSans-Bold-17" d="M 2356 3675 
L 1038 1722 
L 2356 1722 
L 2356 3675 
z
M 2156 4666 
L 3494 4666 
L 3494 1722 
L 4159 1722 
L 4159 850 
L 3494 850 
L 3494 0 
L 2356 0 
L 2356 850 
L 288 850 
L 288 1881 
L 2156 4666 
z
" transform="scale(0.015625)"/>
      <path id="DejaVuSans-Bold-53" d="M 1656 506 
L 1656 -1331 
L 538 -1331 
L 538 3500 
L 1656 3500 
L 1656 2988 
Q 1888 3294 2169 3439 
Q 2450 3584 2816 3584 
Q 3463 3584 3878 3070 
Q 4294 2556 4294 1747 
Q 4294 938 3878 423 
Q 3463 -91 2816 -91 
Q 2450 -91 2169 54 
Q 1888 200 1656 506 
z
M 2400 2772 
Q 2041 2772 1848 2508 
Q 1656 2244 1656 1747 
Q 1656 1250 1848 986 
Q 2041 722 2400 722 
Q 2759 722 2948 984 
Q 3138 1247 3138 1747 
Q 3138 2247 2948 2509 
Q 2759 2772 2400 2772 
z
" transform="scale(0.015625)"/>
     </defs>
     <use xlink:href="#DejaVuSans-Bold-17"/>
     <use xlink:href="#DejaVuSans-Bold-11" transform="translate(69.578125 0)"/>
     <use xlink:href="#DejaVuSans-Bold-3" transform="translate(107.5625 0)"/>
     <use xlink:href="#DejaVuSans-Bold-2c" transform="translate(142.375 0)"/>
     <use xlink:href="#DejaVuSans-Bold-51" transform="translate(179.578125 0)"/>
     <use xlink:href="#DejaVuSans-Bold-57" transform="translate(250.765625 0)"/>
     <use xlink:href="#DejaVuSans-Bold-48" transform="translate(298.5625 0)"/>
     <use xlink:href="#DejaVuSans-Bold-55" transform="translate(366.390625 0)"/>
     <use xlink:href="#DejaVuSans-Bold-53" transform="translate(415.703125 0)"/>
     <use xlink:href="#DejaVuSans-Bold-55" transform="translate(487.28125 0)"/>
     <use xlink:href="#DejaVuSans-Bold-48" transform="translate(536.59375 0)"/>
     <use xlink:href="#DejaVuSans-Bold-57" transform="translate(604.421875 0)"/>
     <use xlink:href="#DejaVuSans-Bold-44" transform="translate(652.21875 0)"/>
     <use xlink:href="#DejaVuSans-Bold-57" transform="translate(719.703125 0)"/>
     <use xlink:href="#DejaVuSans-Bold-4c" transform="translate(767.5 0)"/>
     <use xlink:href="#DejaVuSans-Bold-52" transform="translate(801.78125 0)"/>
     <use xlink:href="#DejaVuSans-Bold-51" transform="translate(870.484375 0)"/>
    </g>
   </g>
   <g id="text_18">
    <!-- - Coswara fusion evidence -->
    <g style="fill: #1f2933" transform="translate(451.602 76.717901) scale(0.078 -0.078)">
     <defs>
      <path id="DejaVuSans-5a" d="M 269 3500 
L 844 3500 
L 1563 769 
L 2278 3500 
L 2956 3500 
L 3675 769 
L 4391 3500 
L 4966 3500 
L 4050 0 
L 3372 0 
L 2619 2869 
L 1863 0 
L 1184 0 
L 269 3500 
z
" transform="scale(0.015625)"/>
     </defs>
     <use xlink:href="#DejaVuSans-10"/>
     <use xlink:href="#DejaVuSans-3" transform="translate(36.078125 0)"/>
     <use xlink:href="#DejaVuSans-26" transform="translate(67.859375 0)"/>
     <use xlink:href="#DejaVuSans-52" transform="translate(137.6875 0)"/>
     <use xlink:href="#DejaVuSans-56" transform="translate(198.875 0)"/>
     <use xlink:href="#DejaVuSans-5a" transform="translate(250.96875 0)"/>
     <use xlink:href="#DejaVuSans-44" transform="translate(332.75 0)"/>
     <use xlink:href="#DejaVuSans-55" transform="translate(394.03125 0)"/>
     <use xlink:href="#DejaVuSans-44" transform="translate(435.140625 0)"/>
     <use xlink:href="#DejaVuSans-3" transform="translate(496.421875 0)"/>
     <use xlink:href="#DejaVuSans-49" transform="translate(528.203125 0)"/>
     <use xlink:href="#DejaVuSans-58" transform="translate(563.40625 0)"/>
     <use xlink:href="#DejaVuSans-56" transform="translate(626.78125 0)"/>
     <use xlink:href="#DejaVuSans-4c" transform="translate(678.875 0)"/>
     <use xlink:href="#DejaVuSans-52" transform="translate(706.65625 0)"/>
     <use xlink:href="#DejaVuSans-51" transform="translate(767.84375 0)"/>
     <use xlink:href="#DejaVuSans-3" transform="translate(831.21875 0)"/>
     <use xlink:href="#DejaVuSans-48" transform="translate(863 0)"/>
     <use xlink:href="#DejaVuSans-59" transform="translate(924.53125 0)"/>
     <use xlink:href="#DejaVuSans-4c" transform="translate(983.71875 0)"/>
     <use xlink:href="#DejaVuSans-47" transform="translate(1011.5 0)"/>
     <use xlink:href="#DejaVuSans-48" transform="translate(1074.984375 0)"/>
     <use xlink:href="#DejaVuSans-51" transform="translate(1136.515625 0)"/>
     <use xlink:href="#DejaVuSans-46" transform="translate(1199.890625 0)"/>
     <use xlink:href="#DejaVuSans-48" transform="translate(1254.875 0)"/>
    </g>
   </g>
   <g id="text_19">
    <!-- - COUGHVID cough evidence -->
    <g style="fill: #1f2933" transform="translate(451.602 90.289613) scale(0.078 -0.078)">
     <use xlink:href="#DejaVuSans-10"/>
     <use xlink:href="#DejaVuSans-3" transform="translate(36.078125 0)"/>
     <use xlink:href="#DejaVuSans-26" transform="translate(67.859375 0)"/>
     <use xlink:href="#DejaVuSans-32" transform="translate(137.6875 0)"/>
     <use xlink:href="#DejaVuSans-38" transform="translate(216.40625 0)"/>
     <use xlink:href="#DejaVuSans-2a" transform="translate(289.59375 0)"/>
     <use xlink:href="#DejaVuSans-2b" transform="translate(367.078125 0)"/>
     <use xlink:href="#DejaVuSans-39" transform="translate(442.28125 0)"/>
     <use xlink:href="#DejaVuSans-2c" transform="translate(510.6875 0)"/>
     <use xlink:href="#DejaVuSans-27" transform="translate(540.1875 0)"/>
     <use xlink:href="#DejaVuSans-3" transform="translate(617.1875 0)"/>
     <use xlink:href="#DejaVuSans-46" transform="translate(648.96875 0)"/>
     <use xlink:href="#DejaVuSans-52" transform="translate(703.953125 0)"/>
     <use xlink:href="#DejaVuSans-58" transform="translate(765.140625 0)"/>
     <use xlink:href="#DejaVuSans-4a" transform="translate(828.515625 0)"/>
     <use xlink:href="#DejaVuSans-4b" transform="translate(892 0)"/>
     <use xlink:href="#DejaVuSans-3" transform="translate(955.375 0)"/>
     <use xlink:href="#DejaVuSans-48" transform="translate(987.15625 0)"/>
     <use xlink:href="#DejaVuSans-59" transform="translate(1048.6875 0)"/>
     <use xlink:href="#DejaVuSans-4c" transform="translate(1107.875 0)"/>
     <use xlink:href="#DejaVuSans-47" transform="translate(1135.65625 0)"/>
     <use xlink:href="#DejaVuSans-48" transform="translate(1199.140625 0)"/>
     <use xlink:href="#DejaVuSans-51" transform="translate(1260.671875 0)"/>
     <use xlink:href="#DejaVuSans-46" transform="translate(1324.046875 0)"/>
     <use xlink:href="#DejaVuSans-48" transform="translate(1379.03125 0)"/>
    </g>
   </g>
   <g id="text_20">
    <!-- - metadata shortcut risk -->
    <g style="fill: #1f2933" transform="translate(451.602 103.861325) scale(0.078 -0.078)">
     <defs>
      <path id="DejaVuSans-4e" d="M 581 4863 
L 1159 4863 
L 1159 1991 
L 2875 3500 
L 3609 3500 
L 1753 1863 
L 3688 0 
L 2938 0 
L 1159 1709 
L 1159 0 
L 581 0 
L 581 4863 
z
" transform="scale(0.015625)"/>
     </defs>
     <use xlink:href="#DejaVuSans-10"/>
     <use xlink:href="#DejaVuSans-3" transform="translate(36.078125 0)"/>
     <use xlink:href="#DejaVuSans-50" transform="translate(67.859375 0)"/>
     <use xlink:href="#DejaVuSans-48" transform="translate(165.265625 0)"/>
     <use xlink:href="#DejaVuSans-57" transform="translate(226.796875 0)"/>
     <use xlink:href="#DejaVuSans-44" transform="translate(266 0)"/>
     <use xlink:href="#DejaVuSans-47" transform="translate(327.28125 0)"/>
     <use xlink:href="#DejaVuSans-44" transform="translate(390.765625 0)"/>
     <use xlink:href="#DejaVuSans-57" transform="translate(452.046875 0)"/>
     <use xlink:href="#DejaVuSans-44" transform="translate(491.25 0)"/>
     <use xlink:href="#DejaVuSans-3" transform="translate(552.53125 0)"/>
     <use xlink:href="#DejaVuSans-56" transform="translate(584.3125 0)"/>
     <use xlink:href="#DejaVuSans-4b" transform="translate(636.40625 0)"/>
     <use xlink:href="#DejaVuSans-52" transform="translate(699.78125 0)"/>
     <use xlink:href="#DejaVuSans-55" transform="translate(760.96875 0)"/>
     <use xlink:href="#DejaVuSans-57" transform="translate(802.078125 0)"/>
     <use xlink:href="#DejaVuSans-46" transform="translate(841.28125 0)"/>
     <use xlink:href="#DejaVuSans-58" transform="translate(896.265625 0)"/>
     <use xlink:href="#DejaVuSans-57" transform="translate(959.640625 0)"/>
     <use xlink:href="#DejaVuSans-3" transform="translate(998.84375 0)"/>
     <use xlink:href="#DejaVuSans-55" transform="translate(1030.625 0)"/>
     <use xlink:href="#DejaVuSans-4c" transform="translate(1071.734375 0)"/>
     <use xlink:href="#DejaVuSans-56" transform="translate(1099.515625 0)"/>
     <use xlink:href="#DejaVuSans-4e" transform="translate(1151.609375 0)"/>
    </g>
   </g>
   <g id="text_21">
    <!-- Protocol-aware respiratory-audio validation map -->
    <g style="fill: #1f2933" transform="translate(119.694375 25.842296) scale(0.12 -0.12)">
     <defs>
      <path id="DejaVuSans-Bold-33" d="M 588 4666 
L 2584 4666 
Q 3475 4666 3951 4270 
Q 4428 3875 4428 3144 
Q 4428 2409 3951 2014 
Q 3475 1619 2584 1619 
L 1791 1619 
L 1791 0 
L 588 0 
L 588 4666 
z
M 1791 3794 
L 1791 2491 
L 2456 2491 
Q 2806 2491 2997 2661 
Q 3188 2831 3188 3144 
Q 3188 3456 2997 3625 
Q 2806 3794 2456 3794 
L 1791 3794 
z
" transform="scale(0.015625)"/>
      <path id="DejaVuSans-Bold-46" d="M 3366 3391 
L 3366 2478 
Q 3138 2634 2908 2709 
Q 2678 2784 2431 2784 
Q 1963 2784 1702 2511 
Q 1441 2238 1441 1747 
Q 1441 1256 1702 982 
Q 1963 709 2431 709 
Q 2694 709 2930 787 
Q 3166 866 3366 1019 
L 3366 103 
Q 3103 6 2833 -42 
Q 2563 -91 2291 -91 
Q 1344 -91 809 395 
Q 275 881 275 1747 
Q 275 2613 809 3098 
Q 1344 3584 2291 3584 
Q 2566 3584 2833 3536 
Q 3100 3488 3366 3391 
z
" transform="scale(0.015625)"/>
      <path id="DejaVuSans-Bold-10" d="M 347 2297 
L 2309 2297 
L 2309 1388 
L 347 1388 
L 347 2297 
z
" transform="scale(0.015625)"/>
      <path id="DejaVuSans-Bold-5c" d="M 78 3500 
L 1197 3500 
L 2138 1125 
L 2938 3500 
L 4056 3500 
L 2584 -331 
Q 2363 -916 2067 -1148 
Q 1772 -1381 1288 -1381 
L 641 -1381 
L 641 -647 
L 991 -647 
Q 1275 -647 1404 -556 
Q 1534 -466 1606 -231 
L 1638 -134 
L 78 3500 
z
" transform="scale(0.015625)"/>
      <path id="DejaVuSans-Bold-58" d="M 500 1363 
L 500 3500 
L 1625 3500 
L 1625 3150 
Q 1625 2866 1622 2436 
Q 1619 2006 1619 1863 
Q 1619 1441 1641 1255 
Q 1663 1069 1716 984 
Q 1784 875 1895 815 
Q 2006 756 2150 756 
Q 2500 756 2700 1025 
Q 2900 1294 2900 1772 
L 2900 3500 
L 4019 3500 
L 4019 0 
L 2900 0 
L 2900 506 
Q 2647 200 2364 54 
Q 2081 -91 1741 -91 
Q 1134 -91 817 281 
Q 500 653 500 1363 
z
" transform="scale(0.015625)"/>
      <path id="DejaVuSans-Bold-59" d="M 97 3500 
L 1216 3500 
L 2088 1081 
L 2956 3500 
L 4078 3500 
L 2700 0 
L 1472 0 
L 97 3500 
z
" transform="scale(0.015625)"/>
      <path id="DejaVuSans-Bold-50" d="M 3781 2919 
Q 3994 3244 4286 3414 
Q 4578 3584 4928 3584 
Q 5531 3584 5847 3212 
Q 6163 2841 6163 2131 
L 6163 0 
L 5038 0 
L 5038 1825 
Q 5041 1866 5042 1909 
Q 5044 1953 5044 2034 
Q 5044 2406 4934 2573 
Q 4825 2741 4581 2741 
Q 4263 2741 4089 2478 
Q 3916 2216 3909 1719 
L 3909 0 
L 2784 0 
L 2784 1825 
Q 2784 2406 2684 2573 
Q 2584 2741 2328 2741 
Q 2006 2741 1831 2477 
Q 1656 2213 1656 1722 
L 1656 0 
L 531 0 
L 531 3500 
L 1656 3500 
L 1656 2988 
Q 1863 3284 2130 3434 
Q 2397 3584 2719 3584 
Q 3081 3584 3359 3409 
Q 3638 3234 3781 2919 
z
" transform="scale(0.015625)"/>
     </defs>
     <use xlink:href="#DejaVuSans-Bold-33"/>
     <use xlink:href="#DejaVuSans-Bold-55" transform="translate(73.296875 0)"/>
     <use xlink:href="#DejaVuSans-Bold-52" transform="translate(122.609375 0)"/>
     <use xlink:href="#DejaVuSans-Bold-57" transform="translate(191.3125 0)"/>
     <use xlink:href="#DejaVuSans-Bold-52" transform="translate(239.109375 0)"/>
     <use xlink:href="#DejaVuSans-Bold-46" transform="translate(307.8125 0)"/>
     <use xlink:href="#DejaVuSans-Bold-52" transform="translate(367.09375 0)"/>
     <use xlink:href="#DejaVuSans-Bold-4f" transform="translate(435.796875 0)"/>
     <use xlink:href="#DejaVuSans-Bold-10" transform="translate(470.078125 0)"/>
     <use xlink:href="#DejaVuSans-Bold-44" transform="translate(511.578125 0)"/>
     <use xlink:href="#DejaVuSans-Bold-5a" transform="translate(579.0625 0)"/>
     <use xlink:href="#DejaVuSans-Bold-44" transform="translate(671.453125 0)"/>
     <use xlink:href="#DejaVuSans-Bold-55" transform="translate(738.9375 0)"/>
     <use xlink:href="#DejaVuSans-Bold-48" transform="translate(788.25 0)"/>
     <use xlink:href="#DejaVuSans-Bold-3" transform="translate(856.078125 0)"/>
     <use xlink:href="#DejaVuSans-Bold-55" transform="translate(890.890625 0)"/>
     <use xlink:href="#DejaVuSans-Bold-48" transform="translate(940.203125 0)"/>
     <use xlink:href="#DejaVuSans-Bold-56" transform="translate(1008.03125 0)"/>
     <use xlink:href="#DejaVuSans-Bold-53" transform="translate(1067.546875 0)"/>
     <use xlink:href="#DejaVuSans-Bold-4c" transform="translate(1139.125 0)"/>
     <use xlink:href="#DejaVuSans-Bold-55" transform="translate(1173.40625 0)"/>
     <use xlink:href="#DejaVuSans-Bold-44" transform="translate(1222.71875 0)"/>
     <use xlink:href="#DejaVuSans-Bold-57" transform="translate(1290.203125 0)"/>
     <use xlink:href="#DejaVuSans-Bold-52" transform="translate(1338 0)"/>
     <use xlink:href="#DejaVuSans-Bold-55" transform="translate(1406.703125 0)"/>
     <use xlink:href="#DejaVuSans-Bold-5c" transform="translate(1456.015625 0)"/>
     <use xlink:href="#DejaVuSans-Bold-10" transform="translate(1521.203125 0)"/>
     <use xlink:href="#DejaVuSans-Bold-44" transform="translate(1562.703125 0)"/>
     <use xlink:href="#DejaVuSans-Bold-58" transform="translate(1630.1875 0)"/>
     <use xlink:href="#DejaVuSans-Bold-47" transform="translate(1701.375 0)"/>
     <use xlink:href="#DejaVuSans-Bold-4c" transform="translate(1772.953125 0)"/>
     <use xlink:href="#DejaVuSans-Bold-52" transform="translate(1807.234375 0)"/>
     <use xlink:href="#DejaVuSans-Bold-3" transform="translate(1875.9375 0)"/>
     <use xlink:href="#DejaVuSans-Bold-59" transform="translate(1910.75 0)"/>
     <use xlink:href="#DejaVuSans-Bold-44" transform="translate(1975.9375 0)"/>
     <use xlink:href="#DejaVuSans-Bold-4f" transform="translate(2043.421875 0)"/>
     <use xlink:href="#DejaVuSans-Bold-4c" transform="translate(2077.703125 0)"/>
     <use xlink:href="#DejaVuSans-Bold-47" transform="translate(2111.984375 0)"/>
     <use xlink:href="#DejaVuSans-Bold-44" transform="translate(2183.5625 0)"/>
     <use xlink:href="#DejaVuSans-Bold-57" transform="translate(2251.046875 0)"/>
     <use xlink:href="#DejaVuSans-Bold-4c" transform="translate(2298.84375 0)"/>
     <use xlink:href="#DejaVuSans-Bold-52" transform="translate(2333.125 0)"/>
     <use xlink:href="#DejaVuSans-Bold-51" transform="translate(2401.828125 0)"/>
     <use xlink:href="#DejaVuSans-Bold-3" transform="translate(2473.015625 0)"/>
     <use xlink:href="#DejaVuSans-Bold-50" transform="translate(2507.828125 0)"/>
     <use xlink:href="#DejaVuSans-Bold-44" transform="translate(2612.03125 0)"/>
     <use xlink:href="#DejaVuSans-Bold-53" transform="translate(2679.515625 0)"/>
    </g>
   </g>
   <g id="text_22">
    <!-- Fusion is evaluated only in Coswara. COUGHVID is an independent cough-only transfer endpoint. -->
    <g style="fill: #6e7781" transform="translate(78.431133 182.32714) scale(0.085 -0.085)">
     <defs>
      <path id="DejaVuSans-11" d="M 684 794 
L 1344 794 
L 1344 0 
L 684 0 
L 684 794 
z
" transform="scale(0.015625)"/>
     </defs>
     <use xlink:href="#DejaVuSans-29"/>
     <use xlink:href="#DejaVuSans-58" transform="translate(52.046875 0)"/>
     <use xlink:href="#DejaVuSans-56" transform="translate(115.421875 0)"/>
     <use xlink:href="#DejaVuSans-4c" transform="translate(167.515625 0)"/>
     <use xlink:href="#DejaVuSans-52" transform="translate(195.296875 0)"/>
     <use xlink:href="#DejaVuSans-51" transform="translate(256.484375 0)"/>
     <use xlink:href="#DejaVuSans-3" transform="translate(319.859375 0)"/>
     <use xlink:href="#DejaVuSans-4c" transform="translate(351.640625 0)"/>
     <use xlink:href="#DejaVuSans-56" transform="translate(379.421875 0)"/>
     <use xlink:href="#DejaVuSans-3" transform="translate(431.515625 0)"/>
     <use xlink:href="#DejaVuSans-48" transform="translate(463.296875 0)"/>
     <use xlink:href="#DejaVuSans-59" transform="translate(524.828125 0)"/>
     <use xlink:href="#DejaVuSans-44" transform="translate(584.015625 0)"/>
     <use xlink:href="#DejaVuSans-4f" transform="translate(645.296875 0)"/>
     <use xlink:href="#DejaVuSans-58" transform="translate(673.078125 0)"/>
     <use xlink:href="#DejaVuSans-44" transform="translate(736.453125 0)"/>
     <use xlink:href="#DejaVuSans-57" transform="translate(797.734375 0)"/>
     <use xlink:href="#DejaVuSans-48" transform="translate(836.9375 0)"/>
     <use xlink:href="#DejaVuSans-47" transform="translate(898.46875 0)"/>
     <use xlink:href="#DejaVuSans-3" transform="translate(961.953125 0)"/>
     <use xlink:href="#DejaVuSans-52" transform="translate(993.734375 0)"/>
     <use xlink:href="#DejaVuSans-51" transform="translate(1054.921875 0)"/>
     <use xlink:href="#DejaVuSans-4f" transform="translate(1118.296875 0)"/>
     <use xlink:href="#DejaVuSans-5c" transform="translate(1146.078125 0)"/>
     <use xlink:href="#DejaVuSans-3" transform="translate(1205.265625 0)"/>
     <use xlink:href="#DejaVuSans-4c" transform="translate(1237.046875 0)"/>
     <use xlink:href="#DejaVuSans-51" transform="translate(1264.828125 0)"/>
     <use xlink:href="#DejaVuSans-3" transform="translate(1328.203125 0)"/>
     <use xlink:href="#DejaVuSans-26" transform="translate(1359.984375 0)"/>
     <use xlink:href="#DejaVuSans-52" transform="translate(1429.8125 0)"/>
     <use xlink:href="#DejaVuSans-56" transform="translate(1491 0)"/>
     <use xlink:href="#DejaVuSans-5a" transform="translate(1543.09375 0)"/>
     <use xlink:href="#DejaVuSans-44" transform="translate(1624.875 0)"/>
     <use xlink:href="#DejaVuSans-55" transform="translate(1686.15625 0)"/>
     <use xlink:href="#DejaVuSans-44" transform="translate(1727.265625 0)"/>
     <use xlink:href="#DejaVuSans-11" transform="translate(1788.546875 0)"/>
     <use xlink:href="#DejaVuSans-3" transform="translate(1820.328125 0)"/>
     <use xlink:href="#DejaVuSans-26" transform="translate(1852.109375 0)"/>
     <use xlink:href="#DejaVuSans-32" transform="translate(1921.9375 0)"/>
     <use xlink:href="#DejaVuSans-38" transform="translate(2000.65625 0)"/>
     <use xlink:href="#DejaVuSans-2a" transform="translate(2073.84375 0)"/>
     <use xlink:href="#DejaVuSans-2b" transform="translate(2151.328125 0)"/>
     <use xlink:href="#DejaVuSans-39" transform="translate(2226.53125 0)"/>
     <use xlink:href="#DejaVuSans-2c" transform="translate(2294.9375 0)"/>
     <use xlink:href="#DejaVuSans-27" transform="translate(2324.4375 0)"/>
     <use xlink:href="#DejaVuSans-3" transform="translate(2401.4375 0)"/>
     <use xlink:href="#DejaVuSans-4c" transform="translate(2433.21875 0)"/>
     <use xlink:href="#DejaVuSans-56" transform="translate(2461 0)"/>
     <use xlink:href="#DejaVuSans-3" transform="translate(2513.09375 0)"/>
     <use xlink:href="#DejaVuSans-44" transform="translate(2544.875 0)"/>
     <use xlink:href="#DejaVuSans-51" transform="translate(2606.15625 0)"/>
     <use xlink:href="#DejaVuSans-3" transform="translate(2669.53125 0)"/>
     <use xlink:href="#DejaVuSans-4c" transform="translate(2701.3125 0)"/>
     <use xlink:href="#DejaVuSans-51" transform="translate(2729.09375 0)"/>
     <use xlink:href="#DejaVuSans-47" transform="translate(2792.46875 0)"/>
     <use xlink:href="#DejaVuSans-48" transform="translate(2855.953125 0)"/>
     <use xlink:href="#DejaVuSans-53" transform="translate(2917.484375 0)"/>
     <use xlink:href="#DejaVuSans-48" transform="translate(2980.96875 0)"/>
     <use xlink:href="#DejaVuSans-51" transform="translate(3042.5 0)"/>
     <use xlink:href="#DejaVuSans-47" transform="translate(3105.875 0)"/>
     <use xlink:href="#DejaVuSans-48" transform="translate(3169.359375 0)"/>
     <use xlink:href="#DejaVuSans-51" transform="translate(3230.890625 0)"/>
     <use xlink:href="#DejaVuSans-57" transform="translate(3294.265625 0)"/>
     <use xlink:href="#DejaVuSans-3" transform="translate(3333.46875 0)"/>
     <use xlink:href="#DejaVuSans-46" transform="translate(3365.25 0)"/>
     <use xlink:href="#DejaVuSans-52" transform="translate(3420.234375 0)"/>
     <use xlink:href="#DejaVuSans-58" transform="translate(3481.421875 0)"/>
     <use xlink:href="#DejaVuSans-4a" transform="translate(3544.796875 0)"/>
     <use xlink:href="#DejaVuSans-4b" transform="translate(3608.28125 0)"/>
     <use xlink:href="#DejaVuSans-10" transform="translate(3671.65625 0)"/>
     <use xlink:href="#DejaVuSans-52" transform="translate(3709.59375 0)"/>
     <use xlink:href="#DejaVuSans-51" transform="translate(3770.78125 0)"/>
     <use xlink:href="#DejaVuSans-4f" transform="translate(3834.15625 0)"/>
     <use xlink:href="#DejaVuSans-5c" transform="translate(3861.9375 0)"/>
     <use xlink:href="#DejaVuSans-3" transform="translate(3921.125 0)"/>
     <use xlink:href="#DejaVuSans-57" transform="translate(3952.90625 0)"/>
     <use xlink:href="#DejaVuSans-55" transform="translate(3992.109375 0)"/>
     <use xlink:href="#DejaVuSans-44" transform="translate(4033.21875 0)"/>
     <use xlink:href="#DejaVuSans-51" transform="translate(4094.5 0)"/>
     <use xlink:href="#DejaVuSans-56" transform="translate(4157.875 0)"/>
     <use xlink:href="#DejaVuSans-49" transform="translate(4209.96875 0)"/>
     <use xlink:href="#DejaVuSans-48" transform="translate(4245.171875 0)"/>
     <use xlink:href="#DejaVuSans-55" transform="translate(4306.703125 0)"/>
     <use xlink:href="#DejaVuSans-3" transform="translate(4347.8125 0)"/>
     <use xlink:href="#DejaVuSans-48" transform="translate(4379.59375 0)"/>
     <use xlink:href="#DejaVuSans-51" transform="translate(4441.125 0)"/>
     <use xlink:href="#DejaVuSans-47" transform="translate(4504.5 0)"/>
     <use xlink:href="#DejaVuSans-53" transform="translate(4567.984375 0)"/>
     <use xlink:href="#DejaVuSans-52" transform="translate(4631.46875 0)"/>
     <use xlink:href="#DejaVuSans-4c" transform="translate(4692.65625 0)"/>
     <use xlink:href="#DejaVuSans-51" transform="translate(4720.4375 0)"/>
     <use xlink:href="#DejaVuSans-57" transform="translate(4783.8125 0)"/>
     <use xlink:href="#DejaVuSans-11" transform="translate(4823.015625 0)"/>
    </g>
   </g>
  </g>
 </g>
 <defs>
  <clipPath id="pa05d471000">
   <rect x="5.76" y="5.76" width="569.16" height="188.496"/>
  </clipPath>
 </defs>
</svg>
