<svg xmlns="http://www.w3.org/2000/svg" width="980" height="322" viewBox="0 0 980 322">
<rect width="100%" height="100%" fill="#ffffff"/>
<text x="28" y="34" font-family="Arial, sans-serif" font-size="22" font-weight="700" fill="#111827">Final Validation Summary</text>
<text x="28" y="60" font-family="Arial, sans-serif" font-size="13" fill="#4b5563">Internal split, time-aware stress tests, and optional external-transfer reference.</text>
<text x="28" y="108" font-family="Arial, sans-serif" font-size="13" fill="#111827">existing_participant_split</text>
<rect x="300" y="88" width="620" height="24" fill="#e5e7eb" rx="3"/>
<rect x="300" y="88" width="556" height="24" fill="#2563eb" rx="3"/>
<text x="930" y="106" font-family="Arial, sans-serif" font-size="13" fill="#111827">0.897</text>
<text x="28" y="154" font-family="Arial, sans-serif" font-size="13" fill="#111827">time_stratified_participant_split</text>
<rect x="300" y="134" width="620" height="24" fill="#e5e7eb" rx="3"/>
<rect x="300" y="134" width="526" height="24" fill="#2563eb" rx="3"/>
<text x="930" y="152" font-family="Arial, sans-serif" font-size="13" fill="#111827">0.849</text>
<text x="28" y="200" font-family="Arial, sans-serif" font-size="13" fill="#111827">temporal_early_to_late</text>
<rect x="300" y="180" width="620" height="24" fill="#e5e7eb" rx="3"/>
<rect x="300" y="180" width="432" height="24" fill="#2563eb" rx="3"/>
<text x="930" y="198" font-family="Arial, sans-serif" font-size="13" fill="#111827">0.698</text>
<text x="28" y="246" font-family="Arial, sans-serif" font-size="13" fill="#111827">external_transfer:lightgbm_smote_f80</text>
<rect x="300" y="226" width="620" height="24" fill="#e5e7eb" rx="3"/>
<rect x="300" y="226" width="336" height="24" fill="#2563eb" rx="3"/>
<text x="930" y="244" font-family="Arial, sans-serif" font-size="13" fill="#111827">0.543</text>
</svg>