<?xml version="1.0" encoding="utf-8" standalone="no"?>
<!DOCTYPE svg PUBLIC "-//W3C//DTD SVG 1.1//EN"
  "http://www.w3.org/Graphics/SVG/1.1/DTD/svg11.dtd">
<svg xmlns:xlink="http://www.w3.org/1999/xlink" width="648pt" height="374.4pt" viewBox="0 0 648 374.4" xmlns="http://www.w3.org/2000/svg" version="1.1">
 <metadata>
  <rdf:RDF xmlns:dc="http://purl.org/dc/elements/1.1/" xmlns:cc="http://creativecommons.org/ns#" xmlns:rdf="http://www.w3.org/1999/02/22-rdf-syntax-ns#">
   <cc:Work>
    <dc:type rdf:resource="http://purl.org/dc/dcmitype/StillImage"/>
    <dc:date>2026-07-01T17:56:21.401912</dc:date>
    <dc:format>image/svg+xml</dc:format>
    <dc:creator>
     <cc:Agent>
      <dc:title>Matplotlib v3.10.9, https://matplotlib.org/</dc:title>
     </cc:Agent>
    </dc:creator>
   </cc:Work>
  </rdf:RDF>
 </metadata>
 <defs>
  <style type="text/css">*{stroke-linejoin: round; stroke-linecap: butt}</style>
 </defs>
 <g id="figure_1">
  <g id="patch_1">
   <path d="M 0 374.4 
L 648 374.4 
L 648 0 
L 0 0 
z
" style="fill: #ffffff"/>
  </g>
  <g id="axes_1">
   <g id="patch_2">
    <path d="M 56.09 332.44 
L 637.2 332.44 
L 637.2 26.88 
L 56.09 26.88 
z
" style="fill: #ffffff"/>
   </g>
   <g id="matplotlib.axis_1">
    <g id="xtick_1">
     <g id="line2d_1">
      <path d="M 141.202071 332.44 
L 141.202071 26.88 
" clip-path="url(#p5bc2a9f7e9)" style="fill: none; stroke: #b0b0b0; stroke-opacity: 0.25; stroke-width: 0.6; stroke-linecap: square"/>
     </g>
     <g id="line2d_2">
      <defs>
       <path id="m4ae39058df" d="M 0 0 
L 0 3.5 
" style="stroke: #000000; stroke-width: 0.8"/>
      </defs>
      <g>
       <use xlink:href="#m4ae39058df" x="141.202071" y="332.44" style="stroke: #000000; stroke-width: 0.8"/>
      </g>
     </g>
     <g id="text_1">
      <!-- 0.1 -->
      <g transform="translate(133.250508 347.038437) scale(0.1 -0.1)">
       <defs>
        <path id="DejaVuSans-30" d="M 2034 4250 
Q 1547 4250 1301 3770 
Q 1056 3291 1056 2328 
Q 1056 1369 1301 889 
Q 1547 409 2034 409 
Q 2525 409 2770 889 
Q 3016 1369 3016 2328 
Q 3016 3291 2770 3770 
Q 2525 4250 2034 4250 
z
M 2034 4750 
Q 2819 4750 3233 4129 
Q 3647 3509 3647 2328 
Q 3647 1150 3233 529 
Q 2819 -91 2034 -91 
Q 1250 -91 836 529 
Q 422 1150 422 2328 
Q 422 3509 836 4129 
Q 1250 4750 2034 4750 
z
" transform="scale(0.015625)"/>
        <path id="DejaVuSans-2e" d="M 684 794 
L 1344 794 
L 1344 0 
L 684 0 
L 684 794 
z
" transform="scale(0.015625)"/>
        <path id="DejaVuSans-31" d="M 794 531 
L 1825 531 
L 1825 4091 
L 703 3866 
L 703 4441 
L 1819 4666 
L 2450 4666 
L 2450 531 
L 3481 531 
L 3481 0 
L 794 0 
L 794 531 
z
" transform="scale(0.015625)"/>
       </defs>
       <use xlink:href="#DejaVuSans-30"/>
       <use xlink:href="#DejaVuSans-2e" transform="translate(63.623047 0)"/>
       <use xlink:href="#DejaVuSans-31" transform="translate(95.410156 0)"/>
      </g>
     </g>
    </g>
    <g id="xtick_2">
     <g id="line2d_3">
      <path d="M 258.59803 332.44 
L 258.59803 26.88 
" clip-path="url(#p5bc2a9f7e9)" style="fill: none; stroke: #b0b0b0; stroke-opacity: 0.25; stroke-width: 0.6; stroke-linecap: square"/>
     </g>
     <g id="line2d_4">
      <g>
       <use xlink:href="#m4ae39058df" x="258.59803" y="332.44" style="stroke: #000000; stroke-width: 0.8"/>
      </g>
     </g>
     <g id="text_2">
      <!-- 0.2 -->
      <g transform="translate(250.646468 347.038437) scale(0.1 -0.1)">
       <defs>
        <path id="DejaVuSans-32" d="M 1228 531 
L 3431 531 
L 3431 0 
L 469 0 
L 469 531 
Q 828 903 1448 1529 
Q 2069 2156 2228 2338 
Q 2531 2678 2651 2914 
Q 2772 3150 2772 3378 
Q 2772 3750 2511 3984 
Q 2250 4219 1831 4219 
Q 1534 4219 1204 4116 
Q 875 4013 500 3803 
L 500 4441 
Q 881 4594 1212 4672 
Q 1544 4750 1819 4750 
Q 2544 4750 2975 4387 
Q 3406 4025 3406 3419 
Q 3406 3131 3298 2873 
Q 3191 2616 2906 2266 
Q 2828 2175 2409 1742 
Q 1991 1309 1228 531 
z
" transform="scale(0.015625)"/>
       </defs>
       <use xlink:href="#DejaVuSans-30"/>
       <use xlink:href="#DejaVuSans-2e" transform="translate(63.623047 0)"/>
       <use xlink:href="#DejaVuSans-32" transform="translate(95.410156 0)"/>
      </g>
     </g>
    </g>
    <g id="xtick_3">
     <g id="line2d_5">
      <path d="M 375.99399 332.44 
L 375.99399 26.88 
" clip-path="url(#p5bc2a9f7e9)" style="fill: none; stroke: #b0b0b0; stroke-opacity: 0.25; stroke-width: 0.6; stroke-linecap: square"/>
     </g>
     <g id="line2d_6">
      <g>
       <use xlink:href="#m4ae39058df" x="375.99399" y="332.44" style="stroke: #000000; stroke-width: 0.8"/>
      </g>
     </g>
     <g id="text_3">
      <!-- 0.3 -->
      <g transform="translate(368.042427 347.038437) scale(0.1 -0.1)">
       <defs>
        <path id="DejaVuSans-33" d="M 2597 2516 
Q 3050 2419 3304 2112 
Q 3559 1806 3559 1356 
Q 3559 666 3084 287 
Q 2609 -91 1734 -91 
Q 1441 -91 1130 -33 
Q 819 25 488 141 
L 488 750 
Q 750 597 1062 519 
Q 1375 441 1716 441 
Q 2309 441 2620 675 
Q 2931 909 2931 1356 
Q 2931 1769 2642 2001 
Q 2353 2234 1838 2234 
L 1294 2234 
L 1294 2753 
L 1863 2753 
Q 2328 2753 2575 2939 
Q 2822 3125 2822 3475 
Q 2822 3834 2567 4026 
Q 2313 4219 1838 4219 
Q 1578 4219 1281 4162 
Q 984 4106 628 3988 
L 628 4550 
Q 988 4650 1302 4700 
Q 1616 4750 1894 4750 
Q 2613 4750 3031 4423 
Q 3450 4097 3450 3541 
Q 3450 3153 3228 2886 
Q 3006 2619 2597 2516 
z
" transform="scale(0.015625)"/>
       </defs>
       <use xlink:href="#DejaVuSans-30"/>
       <use xlink:href="#DejaVuSans-2e" transform="translate(63.623047 0)"/>
       <use xlink:href="#DejaVuSans-33" transform="translate(95.410156 0)"/>
      </g>
     </g>
    </g>
    <g id="xtick_4">
     <g id="line2d_7">
      <path d="M 493.389949 332.44 
L 493.389949 26.88 
" clip-path="url(#p5bc2a9f7e9)" style="fill: none; stroke: #b0b0b0; stroke-opacity: 0.25; stroke-width: 0.6; stroke-linecap: square"/>
     </g>
     <g id="line2d_8">
      <g>
       <use xlink:href="#m4ae39058df" x="493.389949" y="332.44" style="stroke: #000000; stroke-width: 0.8"/>
      </g>
     </g>
     <g id="text_4">
      <!-- 0.4 -->
      <g transform="translate(485.438387 347.038437) scale(0.1 -0.1)">
       <defs>
        <path id="DejaVuSans-34" d="M 2419 4116 
L 825 1625 
L 2419 1625 
L 2419 4116 
z
M 2253 4666 
L 3047 4666 
L 3047 1625 
L 3713 1625 
L 3713 1100 
L 3047 1100 
L 3047 0 
L 2419 0 
L 2419 1100 
L 313 1100 
L 313 1709 
L 2253 4666 
z
" transform="scale(0.015625)"/>
       </defs>
       <use xlink:href="#DejaVuSans-30"/>
       <use xlink:href="#DejaVuSans-2e" transform="translate(63.623047 0)"/>
       <use xlink:href="#DejaVuSans-34" transform="translate(95.410156 0)"/>
      </g>
     </g>
    </g>
    <g id="xtick_5">
     <g id="line2d_9">
      <path d="M 610.785909 332.44 
L 610.785909 26.88 
" clip-path="url(#p5bc2a9f7e9)" style="fill: none; stroke: #b0b0b0; stroke-opacity: 0.25; stroke-width: 0.6; stroke-linecap: square"/>
     </g>
     <g id="line2d_10">
      <g>
       <use xlink:href="#m4ae39058df" x="610.785909" y="332.44" style="stroke: #000000; stroke-width: 0.8"/>
      </g>
     </g>
     <g id="text_5">
      <!-- 0.5 -->
      <g transform="translate(602.834347 347.038437) scale(0.1 -0.1)">
       <defs>
        <path id="DejaVuSans-35" d="M 691 4666 
L 3169 4666 
L 3169 4134 
L 1269 4134 
L 1269 2991 
Q 1406 3038 1543 3061 
Q 1681 3084 1819 3084 
Q 2600 3084 3056 2656 
Q 3513 2228 3513 1497 
Q 3513 744 3044 326 
Q 2575 -91 1722 -91 
Q 1428 -91 1123 -41 
Q 819 9 494 109 
L 494 744 
Q 775 591 1075 516 
Q 1375 441 1709 441 
Q 2250 441 2565 725 
Q 2881 1009 2881 1497 
Q 2881 1984 2565 2268 
Q 2250 2553 1709 2553 
Q 1456 2553 1204 2497 
Q 953 2441 691 2322 
L 691 4666 
z
" transform="scale(0.015625)"/>
       </defs>
       <use xlink:href="#DejaVuSans-30"/>
       <use xlink:href="#DejaVuSans-2e" transform="translate(63.623047 0)"/>
       <use xlink:href="#DejaVuSans-35" transform="translate(95.410156 0)"/>
      </g>
     </g>
    </g>
    <g id="text_6">
     <!-- Threshold probability -->
     <g transform="translate(293.741875 360.716563) scale(0.1 -0.1)">
      <defs>
       <path id="DejaVuSans-54" d="M -19 4666 
L 3928 4666 
L 3928 4134 
L 2272 4134 
L 2272 0 
L 1638 0 
L 1638 4134 
L -19 4134 
L -19 4666 
z
" transform="scale(0.015625)"/>
       <path id="DejaVuSans-68" d="M 3513 2113 
L 3513 0 
L 2938 0 
L 2938 2094 
Q 2938 2591 2744 2837 
Q 2550 3084 2163 3084 
Q 1697 3084 1428 2787 
Q 1159 2491 1159 1978 
L 1159 0 
L 581 0 
L 581 4863 
L 1159 4863 
L 1159 2956 
Q 1366 3272 1645 3428 
Q 1925 3584 2291 3584 
Q 2894 3584 3203 3211 
Q 3513 2838 3513 2113 
z
" transform="scale(0.015625)"/>
       <path id="DejaVuSans-72" d="M 2631 2963 
Q 2534 3019 2420 3045 
Q 2306 3072 2169 3072 
Q 1681 3072 1420 2755 
Q 1159 2438 1159 1844 
L 1159 0 
L 581 0 
L 581 3500 
L 1159 3500 
L 1159 2956 
Q 1341 3275 1631 3429 
Q 1922 3584 2338 3584 
Q 2397 3584 2469 3576 
Q 2541 3569 2628 3553 
L 2631 2963 
z
" transform="scale(0.015625)"/>
       <path id="DejaVuSans-65" d="M 3597 1894 
L 3597 1613 
L 953 1613 
Q 991 1019 1311 708 
Q 1631 397 2203 397 
Q 2534 397 2845 478 
Q 3156 559 3463 722 
L 3463 178 
Q 3153 47 2828 -22 
Q 2503 -91 2169 -91 
Q 1331 -91 842 396 
Q 353 884 353 1716 
Q 353 2575 817 3079 
Q 1281 3584 2069 3584 
Q 2775 3584 3186 3129 
Q 3597 2675 3597 1894 
z
M 3022 2063 
Q 3016 2534 2758 2815 
Q 2500 3097 2075 3097 
Q 1594 3097 1305 2825 
Q 1016 2553 972 2059 
L 3022 2063 
z
" transform="scale(0.015625)"/>
       <path id="DejaVuSans-73" d="M 2834 3397 
L 2834 2853 
Q 2591 2978 2328 3040 
Q 2066 3103 1784 3103 
Q 1356 3103 1142 2972 
Q 928 2841 928 2578 
Q 928 2378 1081 2264 
Q 1234 2150 1697 2047 
L 1894 2003 
Q 2506 1872 2764 1633 
Q 3022 1394 3022 966 
Q 3022 478 2636 193 
Q 2250 -91 1575 -91 
Q 1294 -91 989 -36 
Q 684 19 347 128 
L 347 722 
Q 666 556 975 473 
Q 1284 391 1588 391 
Q 1994 391 2212 530 
Q 2431 669 2431 922 
Q 2431 1156 2273 1281 
Q 2116 1406 1581 1522 
L 1381 1569 
Q 847 1681 609 1914 
Q 372 2147 372 2553 
Q 372 3047 722 3315 
Q 1072 3584 1716 3584 
Q 2034 3584 2315 3537 
Q 2597 3491 2834 3397 
z
" transform="scale(0.015625)"/>
       <path id="DejaVuSans-6f" d="M 1959 3097 
Q 1497 3097 1228 2736 
Q 959 2375 959 1747 
Q 959 1119 1226 758 
Q 1494 397 1959 397 
Q 2419 397 2687 759 
Q 2956 1122 2956 1747 
Q 2956 2369 2687 2733 
Q 2419 3097 1959 3097 
z
M 1959 3584 
Q 2709 3584 3137 3096 
Q 3566 2609 3566 1747 
Q 3566 888 3137 398 
Q 2709 -91 1959 -91 
Q 1206 -91 779 398 
Q 353 888 353 1747 
Q 353 2609 779 3096 
Q 1206 3584 1959 3584 
z
" transform="scale(0.015625)"/>
       <path id="DejaVuSans-6c" d="M 603 4863 
L 1178 4863 
L 1178 0 
L 603 0 
L 603 4863 
z
" transform="scale(0.015625)"/>
       <path id="DejaVuSans-64" d="M 2906 2969 
L 2906 4863 
L 3481 4863 
L 3481 0 
L 2906 0 
L 2906 525 
Q 2725 213 2448 61 
Q 2172 -91 1784 -91 
Q 1150 -91 751 415 
Q 353 922 353 1747 
Q 353 2572 751 3078 
Q 1150 3584 1784 3584 
Q 2172 3584 2448 3432 
Q 2725 3281 2906 2969 
z
M 947 1747 
Q 947 1113 1208 752 
Q 1469 391 1925 391 
Q 2381 391 2643 752 
Q 2906 1113 2906 1747 
Q 2906 2381 2643 2742 
Q 2381 3103 1925 3103 
Q 1469 3103 1208 2742 
Q 947 2381 947 1747 
z
" transform="scale(0.015625)"/>
       <path id="DejaVuSans-20" transform="scale(0.015625)"/>
       <path id="DejaVuSans-70" d="M 1159 525 
L 1159 -1331 
L 581 -1331 
L 581 3500 
L 1159 3500 
L 1159 2969 
Q 1341 3281 1617 3432 
Q 1894 3584 2278 3584 
Q 2916 3584 3314 3078 
Q 3713 2572 3713 1747 
Q 3713 922 3314 415 
Q 2916 -91 2278 -91 
Q 1894 -91 1617 61 
Q 1341 213 1159 525 
z
M 3116 1747 
Q 3116 2381 2855 2742 
Q 2594 3103 2138 3103 
Q 1681 3103 1420 2742 
Q 1159 2381 1159 1747 
Q 1159 1113 1420 752 
Q 1681 391 2138 391 
Q 2594 391 2855 752 
Q 3116 1113 3116 1747 
z
" transform="scale(0.015625)"/>
       <path id="DejaVuSans-62" d="M 3116 1747 
Q 3116 2381 2855 2742 
Q 2594 3103 2138 3103 
Q 1681 3103 1420 2742 
Q 1159 2381 1159 1747 
Q 1159 1113 1420 752 
Q 1681 391 2138 391 
Q 2594 391 2855 752 
Q 3116 1113 3116 1747 
z
M 1159 2969 
Q 1341 3281 1617 3432 
Q 1894 3584 2278 3584 
Q 2916 3584 3314 3078 
Q 3713 2572 3713 1747 
Q 3713 922 3314 415 
Q 2916 -91 2278 -91 
Q 1894 -91 1617 61 
Q 1341 213 1159 525 
L 1159 0 
L 581 0 
L 581 4863 
L 1159 4863 
L 1159 2969 
z
" transform="scale(0.015625)"/>
       <path id="DejaVuSans-61" d="M 2194 1759 
Q 1497 1759 1228 1600 
Q 959 1441 959 1056 
Q 959 750 1161 570 
Q 1363 391 1709 391 
Q 2188 391 2477 730 
Q 2766 1069 2766 1631 
L 2766 1759 
L 2194 1759 
z
M 3341 1997 
L 3341 0 
L 2766 0 
L 2766 531 
Q 2569 213 2275 61 
Q 1981 -91 1556 -91 
Q 1019 -91 701 211 
Q 384 513 384 1019 
Q 384 1609 779 1909 
Q 1175 2209 1959 2209 
L 2766 2209 
L 2766 2266 
Q 2766 2663 2505 2880 
Q 2244 3097 1772 3097 
Q 1472 3097 1187 3025 
Q 903 2953 641 2809 
L 641 3341 
Q 956 3463 1253 3523 
Q 1550 3584 1831 3584 
Q 2591 3584 2966 3190 
Q 3341 2797 3341 1997 
z
" transform="scale(0.015625)"/>
       <path id="DejaVuSans-69" d="M 603 3500 
L 1178 3500 
L 1178 0 
L 603 0 
L 603 3500 
z
M 603 4863 
L 1178 4863 
L 1178 4134 
L 603 4134 
L 603 4863 
z
" transform="scale(0.015625)"/>
       <path id="DejaVuSans-74" d="M 1172 4494 
L 1172 3500 
L 2356 3500 
L 2356 3053 
L 1172 3053 
L 1172 1153 
Q 1172 725 1289 603 
Q 1406 481 1766 481 
L 2356 481 
L 2356 0 
L 1766 0 
Q 1100 0 847 248 
Q 594 497 594 1153 
L 594 3053 
L 172 3053 
L 172 3500 
L 594 3500 
L 594 4494 
L 1172 4494 
z
" transform="scale(0.015625)"/>
       <path id="DejaVuSans-79" d="M 2059 -325 
Q 1816 -950 1584 -1140 
Q 1353 -1331 966 -1331 
L 506 -1331 
L 506 -850 
L 844 -850 
Q 1081 -850 1212 -737 
Q 1344 -625 1503 -206 
L 1606 56 
L 191 3500 
L 800 3500 
L 1894 763 
L 2988 3500 
L 3597 3500 
L 2059 -325 
z
" transform="scale(0.015625)"/>
      </defs>
      <use xlink:href="#DejaVuSans-54"/>
      <use xlink:href="#DejaVuSans-68" transform="translate(61.083984 0)"/>
      <use xlink:href="#DejaVuSans-72" transform="translate(124.462891 0)"/>
      <use xlink:href="#DejaVuSans-65" transform="translate(163.326172 0)"/>
      <use xlink:href="#DejaVuSans-73" transform="translate(224.849609 0)"/>
      <use xlink:href="#DejaVuSans-68" transform="translate(276.949219 0)"/>
      <use xlink:href="#DejaVuSans-6f" transform="translate(340.328125 0)"/>
      <use xlink:href="#DejaVuSans-6c" transform="translate(401.509766 0)"/>
      <use xlink:href="#DejaVuSans-64" transform="translate(429.292969 0)"/>
      <use xlink:href="#DejaVuSans-20" transform="translate(492.769531 0)"/>
      <use xlink:href="#DejaVuSans-70" transform="translate(524.556641 0)"/>
      <use xlink:href="#DejaVuSans-72" transform="translate(588.033203 0)"/>
      <use xlink:href="#DejaVuSans-6f" transform="translate(626.896484 0)"/>
      <use xlink:href="#DejaVuSans-62" transform="translate(688.078125 0)"/>
      <use xlink:href="#DejaVuSans-61" transform="translate(751.554688 0)"/>
      <use xlink:href="#DejaVuSans-62" transform="translate(812.833984 0)"/>
      <use xlink:href="#DejaVuSans-69" transform="translate(876.310547 0)"/>
      <use xlink:href="#DejaVuSans-6c" transform="translate(904.09375 0)"/>
      <use xlink:href="#DejaVuSans-69" transform="translate(931.876953 0)"/>
      <use xlink:href="#DejaVuSans-74" transform="translate(959.660156 0)"/>
      <use xlink:href="#DejaVuSans-79" transform="translate(998.869141 0)"/>
     </g>
    </g>
   </g>
   <g id="matplotlib.axis_2">
    <g id="ytick_1">
     <g id="line2d_11">
      <path d="M 56.09 316.587642 
L 637.2 316.587642 
" clip-path="url(#p5bc2a9f7e9)" style="fill: none; stroke: #b0b0b0; stroke-opacity: 0.25; stroke-width: 0.6; stroke-linecap: square"/>
     </g>
     <g id="line2d_12">
      <defs>
       <path id="ma986d21ae7" d="M 0 0 
L -3.5 0 
" style="stroke: #000000; stroke-width: 0.8"/>
      </defs>
      <g>
       <use xlink:href="#ma986d21ae7" x="56.09" y="316.587642" style="stroke: #000000; stroke-width: 0.8"/>
      </g>
     </g>
     <g id="text_7">
      <!-- −0.6 -->
      <g transform="translate(24.807188 320.386861) scale(0.1 -0.1)">
       <defs>
        <path id="DejaVuSans-2212" d="M 678 2272 
L 4684 2272 
L 4684 1741 
L 678 1741 
L 678 2272 
z
" transform="scale(0.015625)"/>
        <path id="DejaVuSans-36" d="M 2113 2584 
Q 1688 2584 1439 2293 
Q 1191 2003 1191 1497 
Q 1191 994 1439 701 
Q 1688 409 2113 409 
Q 2538 409 2786 701 
Q 3034 994 3034 1497 
Q 3034 2003 2786 2293 
Q 2538 2584 2113 2584 
z
M 3366 4563 
L 3366 3988 
Q 3128 4100 2886 4159 
Q 2644 4219 2406 4219 
Q 1781 4219 1451 3797 
Q 1122 3375 1075 2522 
Q 1259 2794 1537 2939 
Q 1816 3084 2150 3084 
Q 2853 3084 3261 2657 
Q 3669 2231 3669 1497 
Q 3669 778 3244 343 
Q 2819 -91 2113 -91 
Q 1303 -91 875 529 
Q 447 1150 447 2328 
Q 447 3434 972 4092 
Q 1497 4750 2381 4750 
Q 2619 4750 2861 4703 
Q 3103 4656 3366 4563 
z
" transform="scale(0.015625)"/>
       </defs>
       <use xlink:href="#DejaVuSans-2212"/>
       <use xlink:href="#DejaVuSans-30" transform="translate(83.789062 0)"/>
       <use xlink:href="#DejaVuSans-2e" transform="translate(147.412109 0)"/>
       <use xlink:href="#DejaVuSans-36" transform="translate(179.199219 0)"/>
      </g>
     </g>
    </g>
    <g id="ytick_2">
     <g id="line2d_13">
      <path d="M 56.09 275.901138 
L 637.2 275.901138 
" clip-path="url(#p5bc2a9f7e9)" style="fill: none; stroke: #b0b0b0; stroke-opacity: 0.25; stroke-width: 0.6; stroke-linecap: square"/>
     </g>
     <g id="line2d_14">
      <g>
       <use xlink:href="#ma986d21ae7" x="56.09" y="275.901138" style="stroke: #000000; stroke-width: 0.8"/>
      </g>
     </g>
     <g id="text_8">
      <!-- −0.4 -->
      <g transform="translate(24.807188 279.700357) scale(0.1 -0.1)">
       <use xlink:href="#DejaVuSans-2212"/>
       <use xlink:href="#DejaVuSans-30" transform="translate(83.789062 0)"/>
       <use xlink:href="#DejaVuSans-2e" transform="translate(147.412109 0)"/>
       <use xlink:href="#DejaVuSans-34" transform="translate(179.199219 0)"/>
      </g>
     </g>
    </g>
    <g id="ytick_3">
     <g id="line2d_15">
      <path d="M 56.09 235.214634 
L 637.2 235.214634 
" clip-path="url(#p5bc2a9f7e9)" style="fill: none; stroke: #b0b0b0; stroke-opacity: 0.25; stroke-width: 0.6; stroke-linecap: square"/>
     </g>
     <g id="line2d_16">
      <g>
       <use xlink:href="#ma986d21ae7" x="56.09" y="235.214634" style="stroke: #000000; stroke-width: 0.8"/>
      </g>
     </g>
     <g id="text_9">
      <!-- −0.2 -->
      <g transform="translate(24.807188 239.013852) scale(0.1 -0.1)">
       <use xlink:href="#DejaVuSans-2212"/>
       <use xlink:href="#DejaVuSans-30" transform="translate(83.789062 0)"/>
       <use xlink:href="#DejaVuSans-2e" transform="translate(147.412109 0)"/>
       <use xlink:href="#DejaVuSans-32" transform="translate(179.199219 0)"/>
      </g>
     </g>
    </g>
    <g id="ytick_4">
     <g id="line2d_17">
      <path d="M 56.09 194.528129 
L 637.2 194.528129 
" clip-path="url(#p5bc2a9f7e9)" style="fill: none; stroke: #b0b0b0; stroke-opacity: 0.25; stroke-width: 0.6; stroke-linecap: square"/>
     </g>
     <g id="line2d_18">
      <g>
       <use xlink:href="#ma986d21ae7" x="56.09" y="194.528129" style="stroke: #000000; stroke-width: 0.8"/>
      </g>
     </g>
     <g id="text_10">
      <!-- 0.0 -->
      <g transform="translate(33.186875 198.327348) scale(0.1 -0.1)">
       <use xlink:href="#DejaVuSans-30"/>
       <use xlink:href="#DejaVuSans-2e" transform="translate(63.623047 0)"/>
       <use xlink:href="#DejaVuSans-30" transform="translate(95.410156 0)"/>
      </g>
     </g>
    </g>
    <g id="ytick_5">
     <g id="line2d_19">
      <path d="M 56.09 153.841625 
L 637.2 153.841625 
" clip-path="url(#p5bc2a9f7e9)" style="fill: none; stroke: #b0b0b0; stroke-opacity: 0.25; stroke-width: 0.6; stroke-linecap: square"/>
     </g>
     <g id="line2d_20">
      <g>
       <use xlink:href="#ma986d21ae7" x="56.09" y="153.841625" style="stroke: #000000; stroke-width: 0.8"/>
      </g>
     </g>
     <g id="text_11">
      <!-- 0.2 -->
      <g transform="translate(33.186875 157.640844) scale(0.1 -0.1)">
       <use xlink:href="#DejaVuSans-30"/>
       <use xlink:href="#DejaVuSans-2e" transform="translate(63.623047 0)"/>
       <use xlink:href="#DejaVuSans-32" transform="translate(95.410156 0)"/>
      </g>
     </g>
    </g>
    <g id="ytick_6">
     <g id="line2d_21">
      <path d="M 56.09 113.155121 
L 637.2 113.155121 
" clip-path="url(#p5bc2a9f7e9)" style="fill: none; stroke: #b0b0b0; stroke-opacity: 0.25; stroke-width: 0.6; stroke-linecap: square"/>
     </g>
     <g id="line2d_22">
      <g>
       <use xlink:href="#ma986d21ae7" x="56.09" y="113.155121" style="stroke: #000000; stroke-width: 0.8"/>
      </g>
     </g>
     <g id="text_12">
      <!-- 0.4 -->
      <g transform="translate(33.186875 116.954339) scale(0.1 -0.1)">
       <use xlink:href="#DejaVuSans-30"/>
       <use xlink:href="#DejaVuSans-2e" transform="translate(63.623047 0)"/>
       <use xlink:href="#DejaVuSans-34" transform="translate(95.410156 0)"/>
      </g>
     </g>
    </g>
    <g id="ytick_7">
     <g id="line2d_23">
      <path d="M 56.09 72.468616 
L 637.2 72.468616 
" clip-path="url(#p5bc2a9f7e9)" style="fill: none; stroke: #b0b0b0; stroke-opacity: 0.25; stroke-width: 0.6; stroke-linecap: square"/>
     </g>
     <g id="line2d_24">
      <g>
       <use xlink:href="#ma986d21ae7" x="56.09" y="72.468616" style="stroke: #000000; stroke-width: 0.8"/>
      </g>
     </g>
     <g id="text_13">
      <!-- 0.6 -->
      <g transform="translate(33.186875 76.267835) scale(0.1 -0.1)">
       <use xlink:href="#DejaVuSans-30"/>
       <use xlink:href="#DejaVuSans-2e" transform="translate(63.623047 0)"/>
       <use xlink:href="#DejaVuSans-36" transform="translate(95.410156 0)"/>
      </g>
     </g>
    </g>
    <g id="ytick_8">
     <g id="line2d_25">
      <path d="M 56.09 31.782112 
L 637.2 31.782112 
" clip-path="url(#p5bc2a9f7e9)" style="fill: none; stroke: #b0b0b0; stroke-opacity: 0.25; stroke-width: 0.6; stroke-linecap: square"/>
     </g>
     <g id="line2d_26">
      <g>
       <use xlink:href="#ma986d21ae7" x="56.09" y="31.782112" style="stroke: #000000; stroke-width: 0.8"/>
      </g>
     </g>
     <g id="text_14">
      <!-- 0.8 -->
      <g transform="translate(33.186875 35.581331) scale(0.1 -0.1)">
       <defs>
        <path id="DejaVuSans-38" d="M 2034 2216 
Q 1584 2216 1326 1975 
Q 1069 1734 1069 1313 
Q 1069 891 1326 650 
Q 1584 409 2034 409 
Q 2484 409 2743 651 
Q 3003 894 3003 1313 
Q 3003 1734 2745 1975 
Q 2488 2216 2034 2216 
z
M 1403 2484 
Q 997 2584 770 2862 
Q 544 3141 544 3541 
Q 544 4100 942 4425 
Q 1341 4750 2034 4750 
Q 2731 4750 3128 4425 
Q 3525 4100 3525 3541 
Q 3525 3141 3298 2862 
Q 3072 2584 2669 2484 
Q 3125 2378 3379 2068 
Q 3634 1759 3634 1313 
Q 3634 634 3220 271 
Q 2806 -91 2034 -91 
Q 1263 -91 848 271 
Q 434 634 434 1313 
Q 434 1759 690 2068 
Q 947 2378 1403 2484 
z
M 1172 3481 
Q 1172 3119 1398 2916 
Q 1625 2713 2034 2713 
Q 2441 2713 2670 2916 
Q 2900 3119 2900 3481 
Q 2900 3844 2670 4047 
Q 2441 4250 2034 4250 
Q 1625 4250 1398 4047 
Q 1172 3844 1172 3481 
z
" transform="scale(0.015625)"/>
       </defs>
       <use xlink:href="#DejaVuSans-30"/>
       <use xlink:href="#DejaVuSans-2e" transform="translate(63.623047 0)"/>
       <use xlink:href="#DejaVuSans-38" transform="translate(95.410156 0)"/>
      </g>
     </g>
    </g>
    <g id="text_15">
     <!-- Net benefit -->
     <g transform="translate(18.7275 207.631875) rotate(-90) scale(0.1 -0.1)">
      <defs>
       <path id="DejaVuSans-4e" d="M 628 4666 
L 1478 4666 
L 3547 763 
L 3547 4666 
L 4159 4666 
L 4159 0 
L 3309 0 
L 1241 3903 
L 1241 0 
L 628 0 
L 628 4666 
z
" transform="scale(0.015625)"/>
       <path id="DejaVuSans-6e" d="M 3513 2113 
L 3513 0 
L 2938 0 
L 2938 2094 
Q 2938 2591 2744 2837 
Q 2550 3084 2163 3084 
Q 1697 3084 1428 2787 
Q 1159 2491 1159 1978 
L 1159 0 
L 581 0 
L 581 3500 
L 1159 3500 
L 1159 2956 
Q 1366 3272 1645 3428 
Q 1925 3584 2291 3584 
Q 2894 3584 3203 3211 
Q 3513 2838 3513 2113 
z
" transform="scale(0.015625)"/>
       <path id="DejaVuSans-66" d="M 2375 4863 
L 2375 4384 
L 1825 4384 
Q 1516 4384 1395 4259 
Q 1275 4134 1275 3809 
L 1275 3500 
L 2222 3500 
L 2222 3053 
L 1275 3053 
L 1275 0 
L 697 0 
L 697 3053 
L 147 3053 
L 147 3500 
L 697 3500 
L 697 3744 
Q 697 4328 969 4595 
Q 1241 4863 1831 4863 
L 2375 4863 
z
" transform="scale(0.015625)"/>
      </defs>
      <use xlink:href="#DejaVuSans-4e"/>
      <use xlink:href="#DejaVuSans-65" transform="translate(74.804688 0)"/>
      <use xlink:href="#DejaVuSans-74" transform="translate(136.328125 0)"/>
      <use xlink:href="#DejaVuSans-20" transform="translate(175.537109 0)"/>
      <use xlink:href="#DejaVuSans-62" transform="translate(207.324219 0)"/>
      <use xlink:href="#DejaVuSans-65" transform="translate(270.800781 0)"/>
      <use xlink:href="#DejaVuSans-6e" transform="translate(332.324219 0)"/>
      <use xlink:href="#DejaVuSans-65" transform="translate(395.703125 0)"/>
      <use xlink:href="#DejaVuSans-66" transform="translate(457.226562 0)"/>
      <use xlink:href="#DejaVuSans-69" transform="translate(492.431641 0)"/>
      <use xlink:href="#DejaVuSans-74" transform="translate(520.214844 0)"/>
     </g>
    </g>
   </g>
   <g id="line2d_27">
    <path d="M 82.504091 139.088995 
L 82.504091 138.931439 
L 141.202071 145.120907 
L 141.202071 145.907605 
L 199.900051 153.769343 
L 199.900051 151.553413 
L 258.59803 155.525442 
L 258.59803 158.347178 
L 317.29601 159.706346 
L 317.29601 161.077815 
L 375.99399 165.856432 
L 375.99399 163.895433 
L 434.69197 167.956922 
L 434.69197 166.614311 
L 493.389949 169.786336 
L 493.389949 172.22792 
L 552.087929 177.033932 
L 552.087929 178.082242 
L 610.785909 182.240259 
L 610.785909 178.033601 
" clip-path="url(#p5bc2a9f7e9)" style="fill: none; stroke: #1f77b4; stroke-width: 1.4; stroke-linecap: square"/>
   </g>
   <g id="line2d_28">
    <path d="M 82.504091 141.525059 
L 82.504091 142.471322 
L 141.202071 150.614712 
L 141.202071 148.647285 
L 199.900051 156.726293 
L 199.900051 156.976315 
L 258.59803 160.108991 
L 258.59803 160.173631 
L 317.29601 166.901491 
L 317.29601 163.31718 
L 375.99399 170.374126 
L 375.99399 169.576088 
L 434.69197 170.899696 
L 434.69197 170.712667 
L 493.389949 173.97939 
L 493.389949 171.400591 
L 552.087929 177.092835 
L 552.087929 174.319601 
L 610.785909 176.340454 
L 610.785909 181.513928 
" clip-path="url(#p5bc2a9f7e9)" style="fill: none; stroke: #ff7f0e; stroke-width: 1.4; stroke-linecap: square"/>
   </g>
   <g id="line2d_29">
    <path d="M 82.504091 136.085892 
L 82.504091 134.258223 
L 141.202071 143.414797 
L 141.202071 142.728182 
L 199.900051 148.924572 
L 199.900051 147.202082 
L 258.59803 150.06828 
L 258.59803 154.265443 
L 317.29601 154.497859 
L 317.29601 157.797257 
L 375.99399 161.46103 
L 375.99399 159.466487 
L 434.69197 164.986277 
L 434.69197 162.120269 
L 493.389949 162.810156 
L 493.389949 168.012352 
L 552.087929 166.369728 
L 552.087929 174.137457 
L 610.785909 176.923392 
L 610.785909 167.622538 
" clip-path="url(#p5bc2a9f7e9)" style="fill: none; stroke: #2ca02c; stroke-width: 1.4; stroke-linecap: square"/>
   </g>
   <g id="line2d_30">
    <path d="M 82.504091 137.693401 
L 82.504091 136.30458 
L 141.202071 141.638628 
L 141.202071 144.577849 
L 199.900051 148.074107 
L 199.900051 149.281796 
L 258.59803 154.306994 
L 258.59803 154.008373 
L 317.29601 159.071481 
L 317.29601 163.179511 
L 375.99399 166.990893 
L 375.99399 164.041743 
L 434.69197 171.234721 
L 434.69197 167.270831 
L 493.389949 169.930079 
L 493.389949 172.962059 
L 552.087929 171.924516 
L 552.087929 179.914944 
L 610.785909 186.524227 
L 610.785909 174.583765 
" clip-path="url(#p5bc2a9f7e9)" style="fill: none; stroke: #d62728; stroke-width: 1.4; stroke-linecap: square"/>
   </g>
   <g id="line2d_31">
    <path d="M 82.504091 135.36523 
L 82.504091 136.840871 
L 82.504091 137.890278 
L 82.504091 138.45378 
L 141.202071 142.510839 
L 141.202071 143.058118 
L 141.202071 142.293497 
L 141.202071 141.858812 
L 199.900051 146.393172 
L 199.900051 145.741145 
L 199.900051 145.70279 
L 199.900051 148.986379 
L 258.59803 147.582163 
L 258.59803 149.538245 
L 258.59803 150.31071 
L 258.59803 149.212231 
L 317.29601 151.711669 
L 317.29601 151.120553 
L 317.29601 151.494327 
L 317.29601 152.146354 
L 375.99399 153.897157 
L 375.99399 154.940757 
L 375.99399 154.84761 
L 375.99399 152.891528 
L 434.69197 154.453528 
L 434.69197 157.864132 
L 434.69197 157.061637 
L 434.69197 153.961233 
L 493.389949 159.970682 
L 493.389949 156.493203 
L 493.389949 156.735463 
L 493.389949 157.579915 
L 552.087929 160.563434 
L 552.087929 158.607352 
L 552.087929 158.541658 
L 552.087929 164.653423 
L 610.785909 162.578791 
L 610.785909 167.142982 
L 610.785909 161.926764 
L 610.785909 160.190793 
" clip-path="url(#p5bc2a9f7e9)" style="fill: none; stroke: #9467bd; stroke-width: 1.4; stroke-linecap: square"/>
   </g>
   <g id="line2d_32">
    <path d="M 82.504091 144.295731 
L 82.504091 141.342017 
L 82.504091 140.751485 
L 82.504091 140.853751 
L 141.202071 149.10002 
L 141.202071 147.279286 
L 141.202071 147.848354 
L 141.202071 147.926524 
L 199.900051 150.741183 
L 199.900051 150.559575 
L 199.900051 153.249141 
L 199.900051 151.216689 
L 258.59803 153.444037 
L 258.59803 153.907675 
L 258.59803 155.646268 
L 258.59803 154.438007 
L 317.29601 157.419917 
L 317.29601 159.310241 
L 317.29601 154.327566 
L 317.29601 158.861389 
L 375.99399 160.122721 
L 375.99399 163.107429 
L 375.99399 156.75727 
L 375.99399 160.543823 
L 434.69197 160.172449 
L 434.69197 161.191906 
L 434.69197 164.399387 
L 434.69197 163.129859 
L 493.389949 163.825501 
L 493.389949 159.628739 
L 493.389949 163.903879 
L 493.389949 167.227661 
L 552.087929 168.828862 
L 552.087929 163.263256 
L 552.087929 165.176575 
L 552.087929 166.456008 
L 610.785909 168.68491 
L 610.785909 170.010203 
L 610.785909 169.429312 
L 610.785909 163.685134 
" clip-path="url(#p5bc2a9f7e9)" style="fill: none; stroke: #8c564b; stroke-width: 1.4; stroke-linecap: square"/>
   </g>
   <g id="line2d_33">
    <path d="M 82.504091 134.727437 
L 82.504091 136.379961 
L 82.504091 137.400067 
L 82.504091 136.450902 
L 82.504091 134.250455 
L 141.202071 142.243003 
L 141.202071 142.19822 
L 141.202071 143.420976 
L 141.202071 142.359928 
L 141.202071 141.471416 
L 199.900051 149.316627 
L 199.900051 149.855317 
L 199.900051 146.703061 
L 199.900051 149.014413 
L 199.900051 148.797111 
L 258.59803 152.574453 
L 258.59803 153.154795 
L 258.59803 155.280698 
L 258.59803 154.703627 
L 258.59803 150.533207 
L 317.29601 158.225356 
L 317.29601 159.818174 
L 317.29601 158.551317 
L 317.29601 161.603895 
L 317.29601 153.935481 
L 375.99399 165.559787 
L 375.99399 160.98092 
L 375.99399 163.020062 
L 375.99399 156.818196 
L 375.99399 162.806448 
L 434.69197 163.968465 
L 434.69197 162.928915 
L 434.69197 160.956619 
L 434.69197 167.306513 
L 434.69197 167.580614 
L 493.389949 168.799257 
L 493.389949 171.311537 
L 493.389949 163.790344 
L 493.389949 170.5546 
L 493.389949 166.836886 
L 552.087929 173.001508 
L 552.087929 173.97939 
L 552.087929 171.833962 
L 552.087929 170.920204 
L 552.087929 168.995076 
L 610.785909 173.97939 
L 610.785909 172.942042 
L 610.785909 176.212661 
L 610.785909 174.529678 
L 610.785909 172.002729 
" clip-path="url(#p5bc2a9f7e9)" style="fill: none; stroke: #e377c2; stroke-width: 1.4; stroke-linecap: square"/>
   </g>
   <g id="line2d_34">
    <path d="M 82.504091 135.396428 
L 82.504091 135.79671 
L 82.504091 138.662485 
L 82.504091 135.057075 
L 82.504091 137.28842 
L 141.202071 143.247142 
L 141.202071 145.41865 
L 141.202071 147.24506 
L 141.202071 144.315258 
L 141.202071 143.303057 
L 199.900051 150.818888 
L 199.900051 151.650993 
L 199.900051 151.299236 
L 199.900051 155.534861 
L 199.900051 151.342474 
L 258.59803 155.606091 
L 258.59803 154.438007 
L 258.59803 157.705522 
L 258.59803 163.390499 
L 258.59803 159.332191 
L 317.29601 161.314656 
L 317.29601 164.543744 
L 317.29601 159.628739 
L 317.29601 162.604195 
L 317.29601 160.505389 
L 375.99399 166.787331 
L 375.99399 163.478401 
L 375.99399 166.059438 
L 375.99399 168.282016 
L 375.99399 168.431829 
L 434.69197 168.766397 
L 434.69197 166.951834 
L 434.69197 170.053416 
L 434.69197 171.207568 
L 434.69197 172.598721 
L 493.389949 178.235914 
L 493.389949 177.690744 
L 493.389949 173.410567 
L 493.389949 171.693867 
L 493.389949 170.010203 
L 552.087929 181.37827 
L 552.087929 171.001919 
L 552.087929 181.38113 
L 552.087929 173.142715 
L 552.087929 174.242471 
L 610.785909 170.309972 
L 610.785909 178.676245 
L 610.785909 179.287256 
L 610.785909 184.840866 
L 610.785909 175.522323 
" clip-path="url(#p5bc2a9f7e9)" style="fill: none; stroke: #7f7f7f; stroke-width: 1.4; stroke-linecap: square"/>
   </g>
   <g id="line2d_35">
    <path d="M 82.504091 137.475988 
L 141.202071 88.899705 
L 199.900051 222.240526 
L 258.59803 163.75485 
L 317.29601 40.769091 
L 375.99399 182.672076 
L 434.69197 206.067037 
L 493.389949 318.550909 
L 552.087929 245.845545 
L 610.785909 267.350395 
" clip-path="url(#p5bc2a9f7e9)" style="fill: none; stroke-dasharray: 5.55,2.4; stroke-dashoffset: 0; stroke: #777777; stroke-width: 1.5"/>
   </g>
   <g id="line2d_36">
    <path d="M 56.09 194.528129 
L 637.2 194.528129 
" clip-path="url(#p5bc2a9f7e9)" style="fill: none; stroke-dasharray: 1.5,2.475; stroke-dashoffset: 0; stroke: #222222; stroke-width: 1.5"/>
   </g>
   <g id="patch_3">
    <path d="M 56.09 332.44 
L 56.09 26.88 
" style="fill: none; stroke: #000000; stroke-width: 0.8; stroke-linejoin: miter; stroke-linecap: square"/>
   </g>
   <g id="patch_4">
    <path d="M 637.2 332.44 
L 637.2 26.88 
" style="fill: none; stroke: #000000; stroke-width: 0.8; stroke-linejoin: miter; stroke-linecap: square"/>
   </g>
   <g id="patch_5">
    <path d="M 56.09 332.44 
L 637.2 332.44 
" style="fill: none; stroke: #000000; stroke-width: 0.8; stroke-linejoin: miter; stroke-linecap: square"/>
   </g>
   <g id="patch_6">
    <path d="M 56.09 26.88 
L 637.2 26.88 
" style="fill: none; stroke: #000000; stroke-width: 0.8; stroke-linejoin: miter; stroke-linecap: square"/>
   </g>
   <g id="text_16">
    <!-- Decision curve analysis -->
    <g transform="translate(276.183437 20.88) scale(0.12 -0.12)">
     <defs>
      <path id="DejaVuSans-44" d="M 1259 4147 
L 1259 519 
L 2022 519 
Q 2988 519 3436 956 
Q 3884 1394 3884 2338 
Q 3884 3275 3436 3711 
Q 2988 4147 2022 4147 
L 1259 4147 
z
M 628 4666 
L 1925 4666 
Q 3281 4666 3915 4102 
Q 4550 3538 4550 2338 
Q 4550 1131 3912 565 
Q 3275 0 1925 0 
L 628 0 
L 628 4666 
z
" transform="scale(0.015625)"/>
      <path id="DejaVuSans-63" d="M 3122 3366 
L 3122 2828 
Q 2878 2963 2633 3030 
Q 2388 3097 2138 3097 
Q 1578 3097 1268 2742 
Q 959 2388 959 1747 
Q 959 1106 1268 751 
Q 1578 397 2138 397 
Q 2388 397 2633 464 
Q 2878 531 3122 666 
L 3122 134 
Q 2881 22 2623 -34 
Q 2366 -91 2075 -91 
Q 1284 -91 818 406 
Q 353 903 353 1747 
Q 353 2603 823 3093 
Q 1294 3584 2113 3584 
Q 2378 3584 2631 3529 
Q 2884 3475 3122 3366 
z
" transform="scale(0.015625)"/>
      <path id="DejaVuSans-75" d="M 544 1381 
L 544 3500 
L 1119 3500 
L 1119 1403 
Q 1119 906 1312 657 
Q 1506 409 1894 409 
Q 2359 409 2629 706 
Q 2900 1003 2900 1516 
L 2900 3500 
L 3475 3500 
L 3475 0 
L 2900 0 
L 2900 538 
Q 2691 219 2414 64 
Q 2138 -91 1772 -91 
Q 1169 -91 856 284 
Q 544 659 544 1381 
z
M 1991 3584 
L 1991 3584 
z
" transform="scale(0.015625)"/>
      <path id="DejaVuSans-76" d="M 191 3500 
L 800 3500 
L 1894 563 
L 2988 3500 
L 3597 3500 
L 2284 0 
L 1503 0 
L 191 3500 
z
" transform="scale(0.015625)"/>
     </defs>
     <use xlink:href="#DejaVuSans-44"/>
     <use xlink:href="#DejaVuSans-65" transform="translate(77.001953 0)"/>
     <use xlink:href="#DejaVuSans-63" transform="translate(138.525391 0)"/>
     <use xlink:href="#DejaVuSans-69" transform="translate(193.505859 0)"/>
     <use xlink:href="#DejaVuSans-73" transform="translate(221.289062 0)"/>
     <use xlink:href="#DejaVuSans-69" transform="translate(273.388672 0)"/>
     <use xlink:href="#DejaVuSans-6f" transform="translate(301.171875 0)"/>
     <use xlink:href="#DejaVuSans-6e" transform="translate(362.353516 0)"/>
     <use xlink:href="#DejaVuSans-20" transform="translate(425.732422 0)"/>
     <use xlink:href="#DejaVuSans-63" transform="translate(457.519531 0)"/>
     <use xlink:href="#DejaVuSans-75" transform="translate(512.5 0)"/>
     <use xlink:href="#DejaVuSans-72" transform="translate(575.878906 0)"/>
     <use xlink:href="#DejaVuSans-76" transform="translate(616.992188 0)"/>
     <use xlink:href="#DejaVuSans-65" transform="translate(676.171875 0)"/>
     <use xlink:href="#DejaVuSans-20" transform="translate(737.695312 0)"/>
     <use xlink:href="#DejaVuSans-61" transform="translate(769.482422 0)"/>
     <use xlink:href="#DejaVuSans-6e" transform="translate(830.761719 0)"/>
     <use xlink:href="#DejaVuSans-61" transform="translate(894.140625 0)"/>
     <use xlink:href="#DejaVuSans-6c" transform="translate(955.419922 0)"/>
     <use xlink:href="#DejaVuSans-79" transform="translate(983.203125 0)"/>
     <use xlink:href="#DejaVuSans-73" transform="translate(1042.382812 0)"/>
     <use xlink:href="#DejaVuSans-69" transform="translate(1094.482422 0)"/>
     <use xlink:href="#DejaVuSans-73" transform="translate(1122.265625 0)"/>
    </g>
   </g>
   <g id="legend_1">
    <g id="patch_7">
     <path d="M 60.99 328.94 
L 407.799531 328.94 
Q 409.199531 328.94 409.199531 327.54 
L 409.199531 223.690625 
Q 409.199531 222.290625 407.799531 222.290625 
L 60.99 222.290625 
Q 59.59 222.290625 59.59 223.690625 
L 59.59 327.54 
Q 59.59 328.94 60.99 328.94 
z
" style="fill: #ffffff; opacity: 0.8; stroke: #cccccc; stroke-linejoin: miter"/>
    </g>
    <g id="line2d_37">
     <path d="M 62.39 227.990156 
L 69.39 227.990156 
L 76.39 227.990156 
" style="fill: none; stroke: #1f77b4; stroke-width: 1.4; stroke-linecap: square"/>
    </g>
    <g id="text_17">
     <!-- compare_is10_existing_participant_split | catboost_smote_f80 | breath | nan | test -->
     <g transform="translate(81.99 230.440156) scale(0.07 -0.07)">
      <defs>
       <path id="DejaVuSans-6d" d="M 3328 2828 
Q 3544 3216 3844 3400 
Q 4144 3584 4550 3584 
Q 5097 3584 5394 3201 
Q 5691 2819 5691 2113 
L 5691 0 
L 5113 0 
L 5113 2094 
Q 5113 2597 4934 2840 
Q 4756 3084 4391 3084 
Q 3944 3084 3684 2787 
Q 3425 2491 3425 1978 
L 3425 0 
L 2847 0 
L 2847 2094 
Q 2847 2600 2669 2842 
Q 2491 3084 2119 3084 
Q 1678 3084 1418 2786 
Q 1159 2488 1159 1978 
L 1159 0 
L 581 0 
L 581 3500 
L 1159 3500 
L 1159 2956 
Q 1356 3278 1631 3431 
Q 1906 3584 2284 3584 
Q 2666 3584 2933 3390 
Q 3200 3197 3328 2828 
z
" transform="scale(0.015625)"/>
       <path id="DejaVuSans-5f" d="M 3263 -1063 
L 3263 -1509 
L -63 -1509 
L -63 -1063 
L 3263 -1063 
z
" transform="scale(0.015625)"/>
       <path id="DejaVuSans-78" d="M 3513 3500 
L 2247 1797 
L 3578 0 
L 2900 0 
L 1881 1375 
L 863 0 
L 184 0 
L 1544 1831 
L 300 3500 
L 978 3500 
L 1906 2253 
L 2834 3500 
L 3513 3500 
z
" transform="scale(0.015625)"/>
       <path id="DejaVuSans-67" d="M 2906 1791 
Q 2906 2416 2648 2759 
Q 2391 3103 1925 3103 
Q 1463 3103 1205 2759 
Q 947 2416 947 1791 
Q 947 1169 1205 825 
Q 1463 481 1925 481 
Q 2391 481 2648 825 
Q 2906 1169 2906 1791 
z
M 3481 434 
Q 3481 -459 3084 -895 
Q 2688 -1331 1869 -1331 
Q 1566 -1331 1297 -1286 
Q 1028 -1241 775 -1147 
L 775 -588 
Q 1028 -725 1275 -790 
Q 1522 -856 1778 -856 
Q 2344 -856 2625 -561 
Q 2906 -266 2906 331 
L 2906 616 
Q 2728 306 2450 153 
Q 2172 0 1784 0 
Q 1141 0 747 490 
Q 353 981 353 1791 
Q 353 2603 747 3093 
Q 1141 3584 1784 3584 
Q 2172 3584 2450 3431 
Q 2728 3278 2906 2969 
L 2906 3500 
L 3481 3500 
L 3481 434 
z
" transform="scale(0.015625)"/>
       <path id="DejaVuSans-7c" d="M 1344 4891 
L 1344 -1509 
L 813 -1509 
L 813 4891 
L 1344 4891 
z
" transform="scale(0.015625)"/>
      </defs>
      <use xlink:href="#DejaVuSans-63"/>
      <use xlink:href="#DejaVuSans-6f" transform="translate(54.980469 0)"/>
      <use xlink:href="#DejaVuSans-6d" transform="translate(116.162109 0)"/>
      <use xlink:href="#DejaVuSans-70" transform="translate(213.574219 0)"/>
      <use xlink:href="#DejaVuSans-61" transform="translate(277.050781 0)"/>
      <use xlink:href="#DejaVuSans-72" transform="translate(338.330078 0)"/>
      <use xlink:href="#DejaVuSans-65" transform="translate(377.193359 0)"/>
      <use xlink:href="#DejaVuSans-5f" transform="translate(438.716797 0)"/>
      <use xlink:href="#DejaVuSans-69" transform="translate(488.716797 0)"/>
      <use xlink:href="#DejaVuSans-73" transform="translate(516.5 0)"/>
      <use xlink:href="#DejaVuSans-31" transform="translate(568.599609 0)"/>
      <use xlink:href="#DejaVuSans-30" transform="translate(632.222656 0)"/>
      <use xlink:href="#DejaVuSans-5f" transform="translate(695.845703 0)"/>
      <use xlink:href="#DejaVuSans-65" transform="translate(745.845703 0)"/>
      <use xlink:href="#DejaVuSans-78" transform="translate(805.619141 0)"/>
      <use xlink:href="#DejaVuSans-69" transform="translate(864.798828 0)"/>
      <use xlink:href="#DejaVuSans-73" transform="translate(892.582031 0)"/>
      <use xlink:href="#DejaVuSans-74" transform="translate(944.681641 0)"/>
      <use xlink:href="#DejaVuSans-69" transform="translate(983.890625 0)"/>
      <use xlink:href="#DejaVuSans-6e" transform="translate(1011.673828 0)"/>
      <use xlink:href="#DejaVuSans-67" transform="translate(1075.052734 0)"/>
      <use xlink:href="#DejaVuSans-5f" transform="translate(1138.529297 0)"/>
      <use xlink:href="#DejaVuSans-70" transform="translate(1188.529297 0)"/>
      <use xlink:href="#DejaVuSans-61" transform="translate(1252.005859 0)"/>
      <use xlink:href="#DejaVuSans-72" transform="translate(1313.285156 0)"/>
      <use xlink:href="#DejaVuSans-74" transform="translate(1354.398438 0)"/>
      <use xlink:href="#DejaVuSans-69" transform="translate(1393.607422 0)"/>
      <use xlink:href="#DejaVuSans-63" transform="translate(1421.390625 0)"/>
      <use xlink:href="#DejaVuSans-69" transform="translate(1476.371094 0)"/>
      <use xlink:href="#DejaVuSans-70" transform="translate(1504.154297 0)"/>
      <use xlink:href="#DejaVuSans-61" transform="translate(1567.630859 0)"/>
      <use xlink:href="#DejaVuSans-6e" transform="translate(1628.910156 0)"/>
      <use xlink:href="#DejaVuSans-74" transform="translate(1692.289062 0)"/>
      <use xlink:href="#DejaVuSans-5f" transform="translate(1731.498047 0)"/>
      <use xlink:href="#DejaVuSans-73" transform="translate(1781.498047 0)"/>
      <use xlink:href="#DejaVuSans-70" transform="translate(1833.597656 0)"/>
      <use xlink:href="#DejaVuSans-6c" transform="translate(1897.074219 0)"/>
      <use xlink:href="#DejaVuSans-69" transform="translate(1924.857422 0)"/>
      <use xlink:href="#DejaVuSans-74" transform="translate(1952.640625 0)"/>
      <use xlink:href="#DejaVuSans-20" transform="translate(1991.849609 0)"/>
      <use xlink:href="#DejaVuSans-7c" transform="translate(2023.636719 0)"/>
      <use xlink:href="#DejaVuSans-20" transform="translate(2057.328125 0)"/>
      <use xlink:href="#DejaVuSans-63" transform="translate(2089.115234 0)"/>
      <use xlink:href="#DejaVuSans-61" transform="translate(2144.095703 0)"/>
      <use xlink:href="#DejaVuSans-74" transform="translate(2205.375 0)"/>
      <use xlink:href="#DejaVuSans-62" transform="translate(2244.583984 0)"/>
      <use xlink:href="#DejaVuSans-6f" transform="translate(2308.060547 0)"/>
      <use xlink:href="#DejaVuSans-6f" transform="translate(2369.242188 0)"/>
      <use xlink:href="#DejaVuSans-73" transform="translate(2430.423828 0)"/>
      <use xlink:href="#DejaVuSans-74" transform="translate(2482.523438 0)"/>
      <use xlink:href="#DejaVuSans-5f" transform="translate(2521.732422 0)"/>
      <use xlink:href="#DejaVuSans-73" transform="translate(2571.732422 0)"/>
      <use xlink:href="#DejaVuSans-6d" transform="translate(2623.832031 0)"/>
      <use xlink:href="#DejaVuSans-6f" transform="translate(2721.244141 0)"/>
      <use xlink:href="#DejaVuSans-74" transform="translate(2782.425781 0)"/>
      <use xlink:href="#DejaVuSans-65" transform="translate(2821.634766 0)"/>
      <use xlink:href="#DejaVuSans-5f" transform="translate(2883.158203 0)"/>
      <use xlink:href="#DejaVuSans-66" transform="translate(2933.158203 0)"/>
      <use xlink:href="#DejaVuSans-38" transform="translate(2968.363281 0)"/>
      <use xlink:href="#DejaVuSans-30" transform="translate(3031.986328 0)"/>
      <use xlink:href="#DejaVuSans-20" transform="translate(3095.609375 0)"/>
      <use xlink:href="#DejaVuSans-7c" transform="translate(3127.396484 0)"/>
      <use xlink:href="#DejaVuSans-20" transform="translate(3161.087891 0)"/>
      <use xlink:href="#DejaVuSans-62" transform="translate(3192.875 0)"/>
      <use xlink:href="#DejaVuSans-72" transform="translate(3256.351562 0)"/>
      <use xlink:href="#DejaVuSans-65" transform="translate(3295.214844 0)"/>
      <use xlink:href="#DejaVuSans-61" transform="translate(3356.738281 0)"/>
      <use xlink:href="#DejaVuSans-74" transform="translate(3418.017578 0)"/>
      <use xlink:href="#DejaVuSans-68" transform="translate(3457.226562 0)"/>
      <use xlink:href="#DejaVuSans-20" transform="translate(3520.605469 0)"/>
      <use xlink:href="#DejaVuSans-7c" transform="translate(3552.392578 0)"/>
      <use xlink:href="#DejaVuSans-20" transform="translate(3586.083984 0)"/>
      <use xlink:href="#DejaVuSans-6e" transform="translate(3617.871094 0)"/>
      <use xlink:href="#DejaVuSans-61" transform="translate(3681.25 0)"/>
      <use xlink:href="#DejaVuSans-6e" transform="translate(3742.529297 0)"/>
      <use xlink:href="#DejaVuSans-20" transform="translate(3805.908203 0)"/>
      <use xlink:href="#DejaVuSans-7c" transform="translate(3837.695312 0)"/>
      <use xlink:href="#DejaVuSans-20" transform="translate(3871.386719 0)"/>
      <use xlink:href="#DejaVuSans-74" transform="translate(3903.173828 0)"/>
      <use xlink:href="#DejaVuSans-65" transform="translate(3942.382812 0)"/>
      <use xlink:href="#DejaVuSans-73" transform="translate(4003.90625 0)"/>
      <use xlink:href="#DejaVuSans-74" transform="translate(4056.005859 0)"/>
     </g>
    </g>
    <g id="line2d_38">
     <path d="M 62.39 238.490156 
L 69.39 238.490156 
L 76.39 238.490156 
" style="fill: none; stroke: #ff7f0e; stroke-width: 1.4; stroke-linecap: square"/>
    </g>
    <g id="text_18">
     <!-- compare_is10_existing_participant_split | catboost_smote_f80 | breath | nan | validation -->
     <g transform="translate(81.99 240.940156) scale(0.07 -0.07)">
      <use xlink:href="#DejaVuSans-63"/>
      <use xlink:href="#DejaVuSans-6f" transform="translate(54.980469 0)"/>
      <use xlink:href="#DejaVuSans-6d" transform="translate(116.162109 0)"/>
      <use xlink:href="#DejaVuSans-70" transform="translate(213.574219 0)"/>
      <use xlink:href="#DejaVuSans-61" transform="translate(277.050781 0)"/>
      <use xlink:href="#DejaVuSans-72" transform="translate(338.330078 0)"/>
      <use xlink:href="#DejaVuSans-65" transform="translate(377.193359 0)"/>
      <use xlink:href="#DejaVuSans-5f" transform="translate(438.716797 0)"/>
      <use xlink:href="#DejaVuSans-69" transform="translate(488.716797 0)"/>
      <use xlink:href="#DejaVuSans-73" transform="translate(516.5 0)"/>
      <use xlink:href="#DejaVuSans-31" transform="translate(568.599609 0)"/>
      <use xlink:href="#DejaVuSans-30" transform="translate(632.222656 0)"/>
      <use xlink:href="#DejaVuSans-5f" transform="translate(695.845703 0)"/>
      <use xlink:href="#DejaVuSans-65" transform="translate(745.845703 0)"/>
      <use xlink:href="#DejaVuSans-78" transform="translate(805.619141 0)"/>
      <use xlink:href="#DejaVuSans-69" transform="translate(864.798828 0)"/>
      <use xlink:href="#DejaVuSans-73" transform="translate(892.582031 0)"/>
      <use xlink:href="#DejaVuSans-74" transform="translate(944.681641 0)"/>
      <use xlink:href="#DejaVuSans-69" transform="translate(983.890625 0)"/>
      <use xlink:href="#DejaVuSans-6e" transform="translate(1011.673828 0)"/>
      <use xlink:href="#DejaVuSans-67" transform="translate(1075.052734 0)"/>
      <use xlink:href="#DejaVuSans-5f" transform="translate(1138.529297 0)"/>
      <use xlink:href="#DejaVuSans-70" transform="translate(1188.529297 0)"/>
      <use xlink:href="#DejaVuSans-61" transform="translate(1252.005859 0)"/>
      <use xlink:href="#DejaVuSans-72" transform="translate(1313.285156 0)"/>
      <use xlink:href="#DejaVuSans-74" transform="translate(1354.398438 0)"/>
      <use xlink:href="#DejaVuSans-69" transform="translate(1393.607422 0)"/>
      <use xlink:href="#DejaVuSans-63" transform="translate(1421.390625 0)"/>
      <use xlink:href="#DejaVuSans-69" transform="translate(1476.371094 0)"/>
      <use xlink:href="#DejaVuSans-70" transform="translate(1504.154297 0)"/>
      <use xlink:href="#DejaVuSans-61" transform="translate(1567.630859 0)"/>
      <use xlink:href="#DejaVuSans-6e" transform="translate(1628.910156 0)"/>
      <use xlink:href="#DejaVuSans-74" transform="translate(1692.289062 0)"/>
      <use xlink:href="#DejaVuSans-5f" transform="translate(1731.498047 0)"/>
      <use xlink:href="#DejaVuSans-73" transform="translate(1781.498047 0)"/>
      <use xlink:href="#DejaVuSans-70" transform="translate(1833.597656 0)"/>
      <use xlink:href="#DejaVuSans-6c" transform="translate(1897.074219 0)"/>
      <use xlink:href="#DejaVuSans-69" transform="translate(1924.857422 0)"/>
      <use xlink:href="#DejaVuSans-74" transform="translate(1952.640625 0)"/>
      <use xlink:href="#DejaVuSans-20" transform="translate(1991.849609 0)"/>
      <use xlink:href="#DejaVuSans-7c" transform="translate(2023.636719 0)"/>
      <use xlink:href="#DejaVuSans-20" transform="translate(2057.328125 0)"/>
      <use xlink:href="#DejaVuSans-63" transform="translate(2089.115234 0)"/>
      <use xlink:href="#DejaVuSans-61" transform="translate(2144.095703 0)"/>
      <use xlink:href="#DejaVuSans-74" transform="translate(2205.375 0)"/>
      <use xlink:href="#DejaVuSans-62" transform="translate(2244.583984 0)"/>
      <use xlink:href="#DejaVuSans-6f" transform="translate(2308.060547 0)"/>
      <use xlink:href="#DejaVuSans-6f" transform="translate(2369.242188 0)"/>
      <use xlink:href="#DejaVuSans-73" transform="translate(2430.423828 0)"/>
      <use xlink:href="#DejaVuSans-74" transform="translate(2482.523438 0)"/>
      <use xlink:href="#DejaVuSans-5f" transform="translate(2521.732422 0)"/>
      <use xlink:href="#DejaVuSans-73" transform="translate(2571.732422 0)"/>
      <use xlink:href="#DejaVuSans-6d" transform="translate(2623.832031 0)"/>
      <use xlink:href="#DejaVuSans-6f" transform="translate(2721.244141 0)"/>
      <use xlink:href="#DejaVuSans-74" transform="translate(2782.425781 0)"/>
      <use xlink:href="#DejaVuSans-65" transform="translate(2821.634766 0)"/>
      <use xlink:href="#DejaVuSans-5f" transform="translate(2883.158203 0)"/>
      <use xlink:href="#DejaVuSans-66" transform="translate(2933.158203 0)"/>
      <use xlink:href="#DejaVuSans-38" transform="translate(2968.363281 0)"/>
      <use xlink:href="#DejaVuSans-30" transform="translate(3031.986328 0)"/>
      <use xlink:href="#DejaVuSans-20" transform="translate(3095.609375 0)"/>
      <use xlink:href="#DejaVuSans-7c" transform="translate(3127.396484 0)"/>
      <use xlink:href="#DejaVuSans-20" transform="translate(3161.087891 0)"/>
      <use xlink:href="#DejaVuSans-62" transform="translate(3192.875 0)"/>
      <use xlink:href="#DejaVuSans-72" transform="translate(3256.351562 0)"/>
      <use xlink:href="#DejaVuSans-65" transform="translate(3295.214844 0)"/>
      <use xlink:href="#DejaVuSans-61" transform="translate(3356.738281 0)"/>
      <use xlink:href="#DejaVuSans-74" transform="translate(3418.017578 0)"/>
      <use xlink:href="#DejaVuSans-68" transform="translate(3457.226562 0)"/>
      <use xlink:href="#DejaVuSans-20" transform="translate(3520.605469 0)"/>
      <use xlink:href="#DejaVuSans-7c" transform="translate(3552.392578 0)"/>
      <use xlink:href="#DejaVuSans-20" transform="translate(3586.083984 0)"/>
      <use xlink:href="#DejaVuSans-6e" transform="translate(3617.871094 0)"/>
      <use xlink:href="#DejaVuSans-61" transform="translate(3681.25 0)"/>
      <use xlink:href="#DejaVuSans-6e" transform="translate(3742.529297 0)"/>
      <use xlink:href="#DejaVuSans-20" transform="translate(3805.908203 0)"/>
      <use xlink:href="#DejaVuSans-7c" transform="translate(3837.695312 0)"/>
      <use xlink:href="#DejaVuSans-20" transform="translate(3871.386719 0)"/>
      <use xlink:href="#DejaVuSans-76" transform="translate(3903.173828 0)"/>
      <use xlink:href="#DejaVuSans-61" transform="translate(3962.353516 0)"/>
      <use xlink:href="#DejaVuSans-6c" transform="translate(4023.632812 0)"/>
      <use xlink:href="#DejaVuSans-69" transform="translate(4051.416016 0)"/>
      <use xlink:href="#DejaVuSans-64" transform="translate(4079.199219 0)"/>
      <use xlink:href="#DejaVuSans-61" transform="translate(4142.675781 0)"/>
      <use xlink:href="#DejaVuSans-74" transform="translate(4203.955078 0)"/>
      <use xlink:href="#DejaVuSans-69" transform="translate(4243.164062 0)"/>
      <use xlink:href="#DejaVuSans-6f" transform="translate(4270.947266 0)"/>
      <use xlink:href="#DejaVuSans-6e" transform="translate(4332.128906 0)"/>
     </g>
    </g>
    <g id="line2d_39">
     <path d="M 62.39 248.990156 
L 69.39 248.990156 
L 76.39 248.990156 
" style="fill: none; stroke: #2ca02c; stroke-width: 1.4; stroke-linecap: square"/>
    </g>
    <g id="text_19">
     <!-- compare_is10_existing_participant_split | catboost_smote_f80 | cough | nan | test -->
     <g transform="translate(81.99 251.440156) scale(0.07 -0.07)">
      <use xlink:href="#DejaVuSans-63"/>
      <use xlink:href="#DejaVuSans-6f" transform="translate(54.980469 0)"/>
      <use xlink:href="#DejaVuSans-6d" transform="translate(116.162109 0)"/>
      <use xlink:href="#DejaVuSans-70" transform="translate(213.574219 0)"/>
      <use xlink:href="#DejaVuSans-61" transform="translate(277.050781 0)"/>
      <use xlink:href="#DejaVuSans-72" transform="translate(338.330078 0)"/>
      <use xlink:href="#DejaVuSans-65" transform="translate(377.193359 0)"/>
      <use xlink:href="#DejaVuSans-5f" transform="translate(438.716797 0)"/>
      <use xlink:href="#DejaVuSans-69" transform="translate(488.716797 0)"/>
      <use xlink:href="#DejaVuSans-73" transform="translate(516.5 0)"/>
      <use xlink:href="#DejaVuSans-31" transform="translate(568.599609 0)"/>
      <use xlink:href="#DejaVuSans-30" transform="translate(632.222656 0)"/>
      <use xlink:href="#DejaVuSans-5f" transform="translate(695.845703 0)"/>
      <use xlink:href="#DejaVuSans-65" transform="translate(745.845703 0)"/>
      <use xlink:href="#DejaVuSans-78" transform="translate(805.619141 0)"/>
      <use xlink:href="#DejaVuSans-69" transform="translate(864.798828 0)"/>
      <use xlink:href="#DejaVuSans-73" transform="translate(892.582031 0)"/>
      <use xlink:href="#DejaVuSans-74" transform="translate(944.681641 0)"/>
      <use xlink:href="#DejaVuSans-69" transform="translate(983.890625 0)"/>
      <use xlink:href="#DejaVuSans-6e" transform="translate(1011.673828 0)"/>
      <use xlink:href="#DejaVuSans-67" transform="translate(1075.052734 0)"/>
      <use xlink:href="#DejaVuSans-5f" transform="translate(1138.529297 0)"/>
      <use xlink:href="#DejaVuSans-70" transform="translate(1188.529297 0)"/>
      <use xlink:href="#DejaVuSans-61" transform="translate(1252.005859 0)"/>
      <use xlink:href="#DejaVuSans-72" transform="translate(1313.285156 0)"/>
      <use xlink:href="#DejaVuSans-74" transform="translate(1354.398438 0)"/>
      <use xlink:href="#DejaVuSans-69" transform="translate(1393.607422 0)"/>
      <use xlink:href="#DejaVuSans-63" transform="translate(1421.390625 0)"/>
      <use xlink:href="#DejaVuSans-69" transform="translate(1476.371094 0)"/>
      <use xlink:href="#DejaVuSans-70" transform="translate(1504.154297 0)"/>
      <use xlink:href="#DejaVuSans-61" transform="translate(1567.630859 0)"/>
      <use xlink:href="#DejaVuSans-6e" transform="translate(1628.910156 0)"/>
      <use xlink:href="#DejaVuSans-74" transform="translate(1692.289062 0)"/>
      <use xlink:href="#DejaVuSans-5f" transform="translate(1731.498047 0)"/>
      <use xlink:href="#DejaVuSans-73" transform="translate(1781.498047 0)"/>
      <use xlink:href="#DejaVuSans-70" transform="translate(1833.597656 0)"/>
      <use xlink:href="#DejaVuSans-6c" transform="translate(1897.074219 0)"/>
      <use xlink:href="#DejaVuSans-69" transform="translate(1924.857422 0)"/>
      <use xlink:href="#DejaVuSans-74" transform="translate(1952.640625 0)"/>
      <use xlink:href="#DejaVuSans-20" transform="translate(1991.849609 0)"/>
      <use xlink:href="#DejaVuSans-7c" transform="translate(2023.636719 0)"/>
      <use xlink:href="#DejaVuSans-20" transform="translate(2057.328125 0)"/>
      <use xlink:href="#DejaVuSans-63" transform="translate(2089.115234 0)"/>
      <use xlink:href="#DejaVuSans-61" transform="translate(2144.095703 0)"/>
      <use xlink:href="#DejaVuSans-74" transform="translate(2205.375 0)"/>
      <use xlink:href="#DejaVuSans-62" transform="translate(2244.583984 0)"/>
      <use xlink:href="#DejaVuSans-6f" transform="translate(2308.060547 0)"/>
      <use xlink:href="#DejaVuSans-6f" transform="translate(2369.242188 0)"/>
      <use xlink:href="#DejaVuSans-73" transform="translate(2430.423828 0)"/>
      <use xlink:href="#DejaVuSans-74" transform="translate(2482.523438 0)"/>
      <use xlink:href="#DejaVuSans-5f" transform="translate(2521.732422 0)"/>
      <use xlink:href="#DejaVuSans-73" transform="translate(2571.732422 0)"/>
      <use xlink:href="#DejaVuSans-6d" transform="translate(2623.832031 0)"/>
      <use xlink:href="#DejaVuSans-6f" transform="translate(2721.244141 0)"/>
      <use xlink:href="#DejaVuSans-74" transform="translate(2782.425781 0)"/>
      <use xlink:href="#DejaVuSans-65" transform="translate(2821.634766 0)"/>
      <use xlink:href="#DejaVuSans-5f" transform="translate(2883.158203 0)"/>
      <use xlink:href="#DejaVuSans-66" transform="translate(2933.158203 0)"/>
      <use xlink:href="#DejaVuSans-38" transform="translate(2968.363281 0)"/>
      <use xlink:href="#DejaVuSans-30" transform="translate(3031.986328 0)"/>
      <use xlink:href="#DejaVuSans-20" transform="translate(3095.609375 0)"/>
      <use xlink:href="#DejaVuSans-7c" transform="translate(3127.396484 0)"/>
      <use xlink:href="#DejaVuSans-20" transform="translate(3161.087891 0)"/>
      <use xlink:href="#DejaVuSans-63" transform="translate(3192.875 0)"/>
      <use xlink:href="#DejaVuSans-6f" transform="translate(3247.855469 0)"/>
      <use xlink:href="#DejaVuSans-75" transform="translate(3309.037109 0)"/>
      <use xlink:href="#DejaVuSans-67" transform="translate(3372.416016 0)"/>
      <use xlink:href="#DejaVuSans-68" transform="translate(3435.892578 0)"/>
      <use xlink:href="#DejaVuSans-20" transform="translate(3499.271484 0)"/>
      <use xlink:href="#DejaVuSans-7c" transform="translate(3531.058594 0)"/>
      <use xlink:href="#DejaVuSans-20" transform="translate(3564.75 0)"/>
      <use xlink:href="#DejaVuSans-6e" transform="translate(3596.537109 0)"/>
      <use xlink:href="#DejaVuSans-61" transform="translate(3659.916016 0)"/>
      <use xlink:href="#DejaVuSans-6e" transform="translate(3721.195312 0)"/>
      <use xlink:href="#DejaVuSans-20" transform="translate(3784.574219 0)"/>
      <use xlink:href="#DejaVuSans-7c" transform="translate(3816.361328 0)"/>
      <use xlink:href="#DejaVuSans-20" transform="translate(3850.052734 0)"/>
      <use xlink:href="#DejaVuSans-74" transform="translate(3881.839844 0)"/>
      <use xlink:href="#DejaVuSans-65" transform="translate(3921.048828 0)"/>
      <use xlink:href="#DejaVuSans-73" transform="translate(3982.572266 0)"/>
      <use xlink:href="#DejaVuSans-74" transform="translate(4034.671875 0)"/>
     </g>
    </g>
    <g id="line2d_40">
     <path d="M 62.39 259.490156 
L 69.39 259.490156 
L 76.39 259.490156 
" style="fill: none; stroke: #d62728; stroke-width: 1.4; stroke-linecap: square"/>
    </g>
    <g id="text_20">
     <!-- compare_is10_existing_participant_split | catboost_smote_f80 | cough | nan | validation -->
     <g transform="translate(81.99 261.940156) scale(0.07 -0.07)">
      <use xlink:href="#DejaVuSans-63"/>
      <use xlink:href="#DejaVuSans-6f" transform="translate(54.980469 0)"/>
      <use xlink:href="#DejaVuSans-6d" transform="translate(116.162109 0)"/>
      <use xlink:href="#DejaVuSans-70" transform="translate(213.574219 0)"/>
      <use xlink:href="#DejaVuSans-61" transform="translate(277.050781 0)"/>
      <use xlink:href="#DejaVuSans-72" transform="translate(338.330078 0)"/>
      <use xlink:href="#DejaVuSans-65" transform="translate(377.193359 0)"/>
      <use xlink:href="#DejaVuSans-5f" transform="translate(438.716797 0)"/>
      <use xlink:href="#DejaVuSans-69" transform="translate(488.716797 0)"/>
      <use xlink:href="#DejaVuSans-73" transform="translate(516.5 0)"/>
      <use xlink:href="#DejaVuSans-31" transform="translate(568.599609 0)"/>
      <use xlink:href="#DejaVuSans-30" transform="translate(632.222656 0)"/>
      <use xlink:href="#DejaVuSans-5f" transform="translate(695.845703 0)"/>
      <use xlink:href="#DejaVuSans-65" transform="translate(745.845703 0)"/>
      <use xlink:href="#DejaVuSans-78" transform="translate(805.619141 0)"/>
      <use xlink:href="#DejaVuSans-69" transform="translate(864.798828 0)"/>
      <use xlink:href="#DejaVuSans-73" transform="translate(892.582031 0)"/>
      <use xlink:href="#DejaVuSans-74" transform="translate(944.681641 0)"/>
      <use xlink:href="#DejaVuSans-69" transform="translate(983.890625 0)"/>
      <use xlink:href="#DejaVuSans-6e" transform="translate(1011.673828 0)"/>
      <use xlink:href="#DejaVuSans-67" transform="translate(1075.052734 0)"/>
      <use xlink:href="#DejaVuSans-5f" transform="translate(1138.529297 0)"/>
      <use xlink:href="#DejaVuSans-70" transform="translate(1188.529297 0)"/>
      <use xlink:href="#DejaVuSans-61" transform="translate(1252.005859 0)"/>
      <use xlink:href="#DejaVuSans-72" transform="translate(1313.285156 0)"/>
      <use xlink:href="#DejaVuSans-74" transform="translate(1354.398438 0)"/>
      <use xlink:href="#DejaVuSans-69" transform="translate(1393.607422 0)"/>
      <use xlink:href="#DejaVuSans-63" transform="translate(1421.390625 0)"/>
      <use xlink:href="#DejaVuSans-69" transform="translate(1476.371094 0)"/>
      <use xlink:href="#DejaVuSans-70" transform="translate(1504.154297 0)"/>
      <use xlink:href="#DejaVuSans-61" transform="translate(1567.630859 0)"/>
      <use xlink:href="#DejaVuSans-6e" transform="translate(1628.910156 0)"/>
      <use xlink:href="#DejaVuSans-74" transform="translate(1692.289062 0)"/>
      <use xlink:href="#DejaVuSans-5f" transform="translate(1731.498047 0)"/>
      <use xlink:href="#DejaVuSans-73" transform="translate(1781.498047 0)"/>
      <use xlink:href="#DejaVuSans-70" transform="translate(1833.597656 0)"/>
      <use xlink:href="#DejaVuSans-6c" transform="translate(1897.074219 0)"/>
      <use xlink:href="#DejaVuSans-69" transform="translate(1924.857422 0)"/>
      <use xlink:href="#DejaVuSans-74" transform="translate(1952.640625 0)"/>
      <use xlink:href="#DejaVuSans-20" transform="translate(1991.849609 0)"/>
      <use xlink:href="#DejaVuSans-7c" transform="translate(2023.636719 0)"/>
      <use xlink:href="#DejaVuSans-20" transform="translate(2057.328125 0)"/>
      <use xlink:href="#DejaVuSans-63" transform="translate(2089.115234 0)"/>
      <use xlink:href="#DejaVuSans-61" transform="translate(2144.095703 0)"/>
      <use xlink:href="#DejaVuSans-74" transform="translate(2205.375 0)"/>
      <use xlink:href="#DejaVuSans-62" transform="translate(2244.583984 0)"/>
      <use xlink:href="#DejaVuSans-6f" transform="translate(2308.060547 0)"/>
      <use xlink:href="#DejaVuSans-6f" transform="translate(2369.242188 0)"/>
      <use xlink:href="#DejaVuSans-73" transform="translate(2430.423828 0)"/>
      <use xlink:href="#DejaVuSans-74" transform="translate(2482.523438 0)"/>
      <use xlink:href="#DejaVuSans-5f" transform="translate(2521.732422 0)"/>
      <use xlink:href="#DejaVuSans-73" transform="translate(2571.732422 0)"/>
      <use xlink:href="#DejaVuSans-6d" transform="translate(2623.832031 0)"/>
      <use xlink:href="#DejaVuSans-6f" transform="translate(2721.244141 0)"/>
      <use xlink:href="#DejaVuSans-74" transform="translate(2782.425781 0)"/>
      <use xlink:href="#DejaVuSans-65" transform="translate(2821.634766 0)"/>
      <use xlink:href="#DejaVuSans-5f" transform="translate(2883.158203 0)"/>
      <use xlink:href="#DejaVuSans-66" transform="translate(2933.158203 0)"/>
      <use xlink:href="#DejaVuSans-38" transform="translate(2968.363281 0)"/>
      <use xlink:href="#DejaVuSans-30" transform="translate(3031.986328 0)"/>
      <use xlink:href="#DejaVuSans-20" transform="translate(3095.609375 0)"/>
      <use xlink:href="#DejaVuSans-7c" transform="translate(3127.396484 0)"/>
      <use xlink:href="#DejaVuSans-20" transform="translate(3161.087891 0)"/>
      <use xlink:href="#DejaVuSans-63" transform="translate(3192.875 0)"/>
      <use xlink:href="#DejaVuSans-6f" transform="translate(3247.855469 0)"/>
      <use xlink:href="#DejaVuSans-75" transform="translate(3309.037109 0)"/>
      <use xlink:href="#DejaVuSans-67" transform="translate(3372.416016 0)"/>
      <use xlink:href="#DejaVuSans-68" transform="translate(3435.892578 0)"/>
      <use xlink:href="#DejaVuSans-20" transform="translate(3499.271484 0)"/>
      <use xlink:href="#DejaVuSans-7c" transform="translate(3531.058594 0)"/>
      <use xlink:href="#DejaVuSans-20" transform="translate(3564.75 0)"/>
      <use xlink:href="#DejaVuSans-6e" transform="translate(3596.537109 0)"/>
      <use xlink:href="#DejaVuSans-61" transform="translate(3659.916016 0)"/>
      <use xlink:href="#DejaVuSans-6e" transform="translate(3721.195312 0)"/>
      <use xlink:href="#DejaVuSans-20" transform="translate(3784.574219 0)"/>
      <use xlink:href="#DejaVuSans-7c" transform="translate(3816.361328 0)"/>
      <use xlink:href="#DejaVuSans-20" transform="translate(3850.052734 0)"/>
      <use xlink:href="#DejaVuSans-76" transform="translate(3881.839844 0)"/>
      <use xlink:href="#DejaVuSans-61" transform="translate(3941.019531 0)"/>
      <use xlink:href="#DejaVuSans-6c" transform="translate(4002.298828 0)"/>
      <use xlink:href="#DejaVuSans-69" transform="translate(4030.082031 0)"/>
      <use xlink:href="#DejaVuSans-64" transform="translate(4057.865234 0)"/>
      <use xlink:href="#DejaVuSans-61" transform="translate(4121.341797 0)"/>
      <use xlink:href="#DejaVuSans-74" transform="translate(4182.621094 0)"/>
      <use xlink:href="#DejaVuSans-69" transform="translate(4221.830078 0)"/>
      <use xlink:href="#DejaVuSans-6f" transform="translate(4249.613281 0)"/>
      <use xlink:href="#DejaVuSans-6e" transform="translate(4310.794922 0)"/>
     </g>
    </g>
    <g id="line2d_41">
     <path d="M 62.39 269.990156 
L 69.39 269.990156 
L 76.39 269.990156 
" style="fill: none; stroke: #9467bd; stroke-width: 1.4; stroke-linecap: square"/>
    </g>
    <g id="text_21">
     <!-- compare_is10_existing_participant_split | catboost_smote_f80 | multimodal | nan | test -->
     <g transform="translate(81.99 272.440156) scale(0.07 -0.07)">
      <use xlink:href="#DejaVuSans-63"/>
      <use xlink:href="#DejaVuSans-6f" transform="translate(54.980469 0)"/>
      <use xlink:href="#DejaVuSans-6d" transform="translate(116.162109 0)"/>
      <use xlink:href="#DejaVuSans-70" transform="translate(213.574219 0)"/>
      <use xlink:href="#DejaVuSans-61" transform="translate(277.050781 0)"/>
      <use xlink:href="#DejaVuSans-72" transform="translate(338.330078 0)"/>
      <use xlink:href="#DejaVuSans-65" transform="translate(377.193359 0)"/>
      <use xlink:href="#DejaVuSans-5f" transform="translate(438.716797 0)"/>
      <use xlink:href="#DejaVuSans-69" transform="translate(488.716797 0)"/>
      <use xlink:href="#DejaVuSans-73" transform="translate(516.5 0)"/>
      <use xlink:href="#DejaVuSans-31" transform="translate(568.599609 0)"/>
      <use xlink:href="#DejaVuSans-30" transform="translate(632.222656 0)"/>
      <use xlink:href="#DejaVuSans-5f" transform="translate(695.845703 0)"/>
      <use xlink:href="#DejaVuSans-65" transform="translate(745.845703 0)"/>
      <use xlink:href="#DejaVuSans-78" transform="translate(805.619141 0)"/>
      <use xlink:href="#DejaVuSans-69" transform="translate(864.798828 0)"/>
      <use xlink:href="#DejaVuSans-73" transform="translate(892.582031 0)"/>
      <use xlink:href="#DejaVuSans-74" transform="translate(944.681641 0)"/>
      <use xlink:href="#DejaVuSans-69" transform="translate(983.890625 0)"/>
      <use xlink:href="#DejaVuSans-6e" transform="translate(1011.673828 0)"/>
      <use xlink:href="#DejaVuSans-67" transform="translate(1075.052734 0)"/>
      <use xlink:href="#DejaVuSans-5f" transform="translate(1138.529297 0)"/>
      <use xlink:href="#DejaVuSans-70" transform="translate(1188.529297 0)"/>
      <use xlink:href="#DejaVuSans-61" transform="translate(1252.005859 0)"/>
      <use xlink:href="#DejaVuSans-72" transform="translate(1313.285156 0)"/>
      <use xlink:href="#DejaVuSans-74" transform="translate(1354.398438 0)"/>
      <use xlink:href="#DejaVuSans-69" transform="translate(1393.607422 0)"/>
      <use xlink:href="#DejaVuSans-63" transform="translate(1421.390625 0)"/>
      <use xlink:href="#DejaVuSans-69" transform="translate(1476.371094 0)"/>
      <use xlink:href="#DejaVuSans-70" transform="translate(1504.154297 0)"/>
      <use xlink:href="#DejaVuSans-61" transform="translate(1567.630859 0)"/>
      <use xlink:href="#DejaVuSans-6e" transform="translate(1628.910156 0)"/>
      <use xlink:href="#DejaVuSans-74" transform="translate(1692.289062 0)"/>
      <use xlink:href="#DejaVuSans-5f" transform="translate(1731.498047 0)"/>
      <use xlink:href="#DejaVuSans-73" transform="translate(1781.498047 0)"/>
      <use xlink:href="#DejaVuSans-70" transform="translate(1833.597656 0)"/>
      <use xlink:href="#DejaVuSans-6c" transform="translate(1897.074219 0)"/>
      <use xlink:href="#DejaVuSans-69" transform="translate(1924.857422 0)"/>
      <use xlink:href="#DejaVuSans-74" transform="translate(1952.640625 0)"/>
      <use xlink:href="#DejaVuSans-20" transform="translate(1991.849609 0)"/>
      <use xlink:href="#DejaVuSans-7c" transform="translate(2023.636719 0)"/>
      <use xlink:href="#DejaVuSans-20" transform="translate(2057.328125 0)"/>
      <use xlink:href="#DejaVuSans-63" transform="translate(2089.115234 0)"/>
      <use xlink:href="#DejaVuSans-61" transform="translate(2144.095703 0)"/>
      <use xlink:href="#DejaVuSans-74" transform="translate(2205.375 0)"/>
      <use xlink:href="#DejaVuSans-62" transform="translate(2244.583984 0)"/>
      <use xlink:href="#DejaVuSans-6f" transform="translate(2308.060547 0)"/>
      <use xlink:href="#DejaVuSans-6f" transform="translate(2369.242188 0)"/>
      <use xlink:href="#DejaVuSans-73" transform="translate(2430.423828 0)"/>
      <use xlink:href="#DejaVuSans-74" transform="translate(2482.523438 0)"/>
      <use xlink:href="#DejaVuSans-5f" transform="translate(2521.732422 0)"/>
      <use xlink:href="#DejaVuSans-73" transform="translate(2571.732422 0)"/>
      <use xlink:href="#DejaVuSans-6d" transform="translate(2623.832031 0)"/>
      <use xlink:href="#DejaVuSans-6f" transform="translate(2721.244141 0)"/>
      <use xlink:href="#DejaVuSans-74" transform="translate(2782.425781 0)"/>
      <use xlink:href="#DejaVuSans-65" transform="translate(2821.634766 0)"/>
      <use xlink:href="#DejaVuSans-5f" transform="translate(2883.158203 0)"/>
      <use xlink:href="#DejaVuSans-66" transform="translate(2933.158203 0)"/>
      <use xlink:href="#DejaVuSans-38" transform="translate(2968.363281 0)"/>
      <use xlink:href="#DejaVuSans-30" transform="translate(3031.986328 0)"/>
      <use xlink:href="#DejaVuSans-20" transform="translate(3095.609375 0)"/>
      <use xlink:href="#DejaVuSans-7c" transform="translate(3127.396484 0)"/>
      <use xlink:href="#DejaVuSans-20" transform="translate(3161.087891 0)"/>
      <use xlink:href="#DejaVuSans-6d" transform="translate(3192.875 0)"/>
      <use xlink:href="#DejaVuSans-75" transform="translate(3290.287109 0)"/>
      <use xlink:href="#DejaVuSans-6c" transform="translate(3353.666016 0)"/>
      <use xlink:href="#DejaVuSans-74" transform="translate(3381.449219 0)"/>
      <use xlink:href="#DejaVuSans-69" transform="translate(3420.658203 0)"/>
      <use xlink:href="#DejaVuSans-6d" transform="translate(3448.441406 0)"/>
      <use xlink:href="#DejaVuSans-6f" transform="translate(3545.853516 0)"/>
      <use xlink:href="#DejaVuSans-64" transform="translate(3607.035156 0)"/>
      <use xlink:href="#DejaVuSans-61" transform="translate(3670.511719 0)"/>
      <use xlink:href="#DejaVuSans-6c" transform="translate(3731.791016 0)"/>
      <use xlink:href="#DejaVuSans-20" transform="translate(3759.574219 0)"/>
      <use xlink:href="#DejaVuSans-7c" transform="translate(3791.361328 0)"/>
      <use xlink:href="#DejaVuSans-20" transform="translate(3825.052734 0)"/>
      <use xlink:href="#DejaVuSans-6e" transform="translate(3856.839844 0)"/>
      <use xlink:href="#DejaVuSans-61" transform="translate(3920.21875 0)"/>
      <use xlink:href="#DejaVuSans-6e" transform="translate(3981.498047 0)"/>
      <use xlink:href="#DejaVuSans-20" transform="translate(4044.876953 0)"/>
      <use xlink:href="#DejaVuSans-7c" transform="translate(4076.664062 0)"/>
      <use xlink:href="#DejaVuSans-20" transform="translate(4110.355469 0)"/>
      <use xlink:href="#DejaVuSans-74" transform="translate(4142.142578 0)"/>
      <use xlink:href="#DejaVuSans-65" transform="translate(4181.351562 0)"/>
      <use xlink:href="#DejaVuSans-73" transform="translate(4242.875 0)"/>
      <use xlink:href="#DejaVuSans-74" transform="translate(4294.974609 0)"/>
     </g>
    </g>
    <g id="line2d_42">
     <path d="M 62.39 280.490156 
L 69.39 280.490156 
L 76.39 280.490156 
" style="fill: none; stroke: #8c564b; stroke-width: 1.4; stroke-linecap: square"/>
    </g>
    <g id="text_22">
     <!-- compare_is10_existing_participant_split | catboost_smote_f80 | multimodal | nan | validation -->
     <g transform="translate(81.99 282.940156) scale(0.07 -0.07)">
      <use xlink:href="#DejaVuSans-63"/>
      <use xlink:href="#DejaVuSans-6f" transform="translate(54.980469 0)"/>
      <use xlink:href="#DejaVuSans-6d" transform="translate(116.162109 0)"/>
      <use xlink:href="#DejaVuSans-70" transform="translate(213.574219 0)"/>
      <use xlink:href="#DejaVuSans-61" transform="translate(277.050781 0)"/>
      <use xlink:href="#DejaVuSans-72" transform="translate(338.330078 0)"/>
      <use xlink:href="#DejaVuSans-65" transform="translate(377.193359 0)"/>
      <use xlink:href="#DejaVuSans-5f" transform="translate(438.716797 0)"/>
      <use xlink:href="#DejaVuSans-69" transform="translate(488.716797 0)"/>
      <use xlink:href="#DejaVuSans-73" transform="translate(516.5 0)"/>
      <use xlink:href="#DejaVuSans-31" transform="translate(568.599609 0)"/>
      <use xlink:href="#DejaVuSans-30" transform="translate(632.222656 0)"/>
      <use xlink:href="#DejaVuSans-5f" transform="translate(695.845703 0)"/>
      <use xlink:href="#DejaVuSans-65" transform="translate(745.845703 0)"/>
      <use xlink:href="#DejaVuSans-78" transform="translate(805.619141 0)"/>
      <use xlink:href="#DejaVuSans-69" transform="translate(864.798828 0)"/>
      <use xlink:href="#DejaVuSans-73" transform="translate(892.582031 0)"/>
      <use xlink:href="#DejaVuSans-74" transform="translate(944.681641 0)"/>
      <use xlink:href="#DejaVuSans-69" transform="translate(983.890625 0)"/>
      <use xlink:href="#DejaVuSans-6e" transform="translate(1011.673828 0)"/>
      <use xlink:href="#DejaVuSans-67" transform="translate(1075.052734 0)"/>
      <use xlink:href="#DejaVuSans-5f" transform="translate(1138.529297 0)"/>
      <use xlink:href="#DejaVuSans-70" transform="translate(1188.529297 0)"/>
      <use xlink:href="#DejaVuSans-61" transform="translate(1252.005859 0)"/>
      <use xlink:href="#DejaVuSans-72" transform="translate(1313.285156 0)"/>
      <use xlink:href="#DejaVuSans-74" transform="translate(1354.398438 0)"/>
      <use xlink:href="#DejaVuSans-69" transform="translate(1393.607422 0)"/>
      <use xlink:href="#DejaVuSans-63" transform="translate(1421.390625 0)"/>
      <use xlink:href="#DejaVuSans-69" transform="translate(1476.371094 0)"/>
      <use xlink:href="#DejaVuSans-70" transform="translate(1504.154297 0)"/>
      <use xlink:href="#DejaVuSans-61" transform="translate(1567.630859 0)"/>
      <use xlink:href="#DejaVuSans-6e" transform="translate(1628.910156 0)"/>
      <use xlink:href="#DejaVuSans-74" transform="translate(1692.289062 0)"/>
      <use xlink:href="#DejaVuSans-5f" transform="translate(1731.498047 0)"/>
      <use xlink:href="#DejaVuSans-73" transform="translate(1781.498047 0)"/>
      <use xlink:href="#DejaVuSans-70" transform="translate(1833.597656 0)"/>
      <use xlink:href="#DejaVuSans-6c" transform="translate(1897.074219 0)"/>
      <use xlink:href="#DejaVuSans-69" transform="translate(1924.857422 0)"/>
      <use xlink:href="#DejaVuSans-74" transform="translate(1952.640625 0)"/>
      <use xlink:href="#DejaVuSans-20" transform="translate(1991.849609 0)"/>
      <use xlink:href="#DejaVuSans-7c" transform="translate(2023.636719 0)"/>
      <use xlink:href="#DejaVuSans-20" transform="translate(2057.328125 0)"/>
      <use xlink:href="#DejaVuSans-63" transform="translate(2089.115234 0)"/>
      <use xlink:href="#DejaVuSans-61" transform="translate(2144.095703 0)"/>
      <use xlink:href="#DejaVuSans-74" transform="translate(2205.375 0)"/>
      <use xlink:href="#DejaVuSans-62" transform="translate(2244.583984 0)"/>
      <use xlink:href="#DejaVuSans-6f" transform="translate(2308.060547 0)"/>
      <use xlink:href="#DejaVuSans-6f" transform="translate(2369.242188 0)"/>
      <use xlink:href="#DejaVuSans-73" transform="translate(2430.423828 0)"/>
      <use xlink:href="#DejaVuSans-74" transform="translate(2482.523438 0)"/>
      <use xlink:href="#DejaVuSans-5f" transform="translate(2521.732422 0)"/>
      <use xlink:href="#DejaVuSans-73" transform="translate(2571.732422 0)"/>
      <use xlink:href="#DejaVuSans-6d" transform="translate(2623.832031 0)"/>
      <use xlink:href="#DejaVuSans-6f" transform="translate(2721.244141 0)"/>
      <use xlink:href="#DejaVuSans-74" transform="translate(2782.425781 0)"/>
      <use xlink:href="#DejaVuSans-65" transform="translate(2821.634766 0)"/>
      <use xlink:href="#DejaVuSans-5f" transform="translate(2883.158203 0)"/>
      <use xlink:href="#DejaVuSans-66" transform="translate(2933.158203 0)"/>
      <use xlink:href="#DejaVuSans-38" transform="translate(2968.363281 0)"/>
      <use xlink:href="#DejaVuSans-30" transform="translate(3031.986328 0)"/>
      <use xlink:href="#DejaVuSans-20" transform="translate(3095.609375 0)"/>
      <use xlink:href="#DejaVuSans-7c" transform="translate(3127.396484 0)"/>
      <use xlink:href="#DejaVuSans-20" transform="translate(3161.087891 0)"/>
      <use xlink:href="#DejaVuSans-6d" transform="translate(3192.875 0)"/>
      <use xlink:href="#DejaVuSans-75" transform="translate(3290.287109 0)"/>
      <use xlink:href="#DejaVuSans-6c" transform="translate(3353.666016 0)"/>
      <use xlink:href="#DejaVuSans-74" transform="translate(3381.449219 0)"/>
      <use xlink:href="#DejaVuSans-69" transform="translate(3420.658203 0)"/>
      <use xlink:href="#DejaVuSans-6d" transform="translate(3448.441406 0)"/>
      <use xlink:href="#DejaVuSans-6f" transform="translate(3545.853516 0)"/>
      <use xlink:href="#DejaVuSans-64" transform="translate(3607.035156 0)"/>
      <use xlink:href="#DejaVuSans-61" transform="translate(3670.511719 0)"/>
      <use xlink:href="#DejaVuSans-6c" transform="translate(3731.791016 0)"/>
      <use xlink:href="#DejaVuSans-20" transform="translate(3759.574219 0)"/>
      <use xlink:href="#DejaVuSans-7c" transform="translate(3791.361328 0)"/>
      <use xlink:href="#DejaVuSans-20" transform="translate(3825.052734 0)"/>
      <use xlink:href="#DejaVuSans-6e" transform="translate(3856.839844 0)"/>
      <use xlink:href="#DejaVuSans-61" transform="translate(3920.21875 0)"/>
      <use xlink:href="#DejaVuSans-6e" transform="translate(3981.498047 0)"/>
      <use xlink:href="#DejaVuSans-20" transform="translate(4044.876953 0)"/>
      <use xlink:href="#DejaVuSans-7c" transform="translate(4076.664062 0)"/>
      <use xlink:href="#DejaVuSans-20" transform="translate(4110.355469 0)"/>
      <use xlink:href="#DejaVuSans-76" transform="translate(4142.142578 0)"/>
      <use xlink:href="#DejaVuSans-61" transform="translate(4201.322266 0)"/>
      <use xlink:href="#DejaVuSans-6c" transform="translate(4262.601562 0)"/>
      <use xlink:href="#DejaVuSans-69" transform="translate(4290.384766 0)"/>
      <use xlink:href="#DejaVuSans-64" transform="translate(4318.167969 0)"/>
      <use xlink:href="#DejaVuSans-61" transform="translate(4381.644531 0)"/>
      <use xlink:href="#DejaVuSans-74" transform="translate(4442.923828 0)"/>
      <use xlink:href="#DejaVuSans-69" transform="translate(4482.132812 0)"/>
      <use xlink:href="#DejaVuSans-6f" transform="translate(4509.916016 0)"/>
      <use xlink:href="#DejaVuSans-6e" transform="translate(4571.097656 0)"/>
     </g>
    </g>
    <g id="line2d_43">
     <path d="M 62.39 290.990156 
L 69.39 290.990156 
L 76.39 290.990156 
" style="fill: none; stroke: #e377c2; stroke-width: 1.4; stroke-linecap: square"/>
    </g>
    <g id="text_23">
     <!-- compare_is10_existing_participant_split | catboost_smote_f80 | speech | nan | test -->
     <g transform="translate(81.99 293.440156) scale(0.07 -0.07)">
      <use xlink:href="#DejaVuSans-63"/>
      <use xlink:href="#DejaVuSans-6f" transform="translate(54.980469 0)"/>
      <use xlink:href="#DejaVuSans-6d" transform="translate(116.162109 0)"/>
      <use xlink:href="#DejaVuSans-70" transform="translate(213.574219 0)"/>
      <use xlink:href="#DejaVuSans-61" transform="translate(277.050781 0)"/>
      <use xlink:href="#DejaVuSans-72" transform="translate(338.330078 0)"/>
      <use xlink:href="#DejaVuSans-65" transform="translate(377.193359 0)"/>
      <use xlink:href="#DejaVuSans-5f" transform="translate(438.716797 0)"/>
      <use xlink:href="#DejaVuSans-69" transform="translate(488.716797 0)"/>
      <use xlink:href="#DejaVuSans-73" transform="translate(516.5 0)"/>
      <use xlink:href="#DejaVuSans-31" transform="translate(568.599609 0)"/>
      <use xlink:href="#DejaVuSans-30" transform="translate(632.222656 0)"/>
      <use xlink:href="#DejaVuSans-5f" transform="translate(695.845703 0)"/>
      <use xlink:href="#DejaVuSans-65" transform="translate(745.845703 0)"/>
      <use xlink:href="#DejaVuSans-78" transform="translate(805.619141 0)"/>
      <use xlink:href="#DejaVuSans-69" transform="translate(864.798828 0)"/>
      <use xlink:href="#DejaVuSans-73" transform="translate(892.582031 0)"/>
      <use xlink:href="#DejaVuSans-74" transform="translate(944.681641 0)"/>
      <use xlink:href="#DejaVuSans-69" transform="translate(983.890625 0)"/>
      <use xlink:href="#DejaVuSans-6e" transform="translate(1011.673828 0)"/>
      <use xlink:href="#DejaVuSans-67" transform="translate(1075.052734 0)"/>
      <use xlink:href="#DejaVuSans-5f" transform="translate(1138.529297 0)"/>
      <use xlink:href="#DejaVuSans-70" transform="translate(1188.529297 0)"/>
      <use xlink:href="#DejaVuSans-61" transform="translate(1252.005859 0)"/>
      <use xlink:href="#DejaVuSans-72" transform="translate(1313.285156 0)"/>
      <use xlink:href="#DejaVuSans-74" transform="translate(1354.398438 0)"/>
      <use xlink:href="#DejaVuSans-69" transform="translate(1393.607422 0)"/>
      <use xlink:href="#DejaVuSans-63" transform="translate(1421.390625 0)"/>
      <use xlink:href="#DejaVuSans-69" transform="translate(1476.371094 0)"/>
      <use xlink:href="#DejaVuSans-70" transform="translate(1504.154297 0)"/>
      <use xlink:href="#DejaVuSans-61" transform="translate(1567.630859 0)"/>
      <use xlink:href="#DejaVuSans-6e" transform="translate(1628.910156 0)"/>
      <use xlink:href="#DejaVuSans-74" transform="translate(1692.289062 0)"/>
      <use xlink:href="#DejaVuSans-5f" transform="translate(1731.498047 0)"/>
      <use xlink:href="#DejaVuSans-73" transform="translate(1781.498047 0)"/>
      <use xlink:href="#DejaVuSans-70" transform="translate(1833.597656 0)"/>
      <use xlink:href="#DejaVuSans-6c" transform="translate(1897.074219 0)"/>
      <use xlink:href="#DejaVuSans-69" transform="translate(1924.857422 0)"/>
      <use xlink:href="#DejaVuSans-74" transform="translate(1952.640625 0)"/>
      <use xlink:href="#DejaVuSans-20" transform="translate(1991.849609 0)"/>
      <use xlink:href="#DejaVuSans-7c" transform="translate(2023.636719 0)"/>
      <use xlink:href="#DejaVuSans-20" transform="translate(2057.328125 0)"/>
      <use xlink:href="#DejaVuSans-63" transform="translate(2089.115234 0)"/>
      <use xlink:href="#DejaVuSans-61" transform="translate(2144.095703 0)"/>
      <use xlink:href="#DejaVuSans-74" transform="translate(2205.375 0)"/>
      <use xlink:href="#DejaVuSans-62" transform="translate(2244.583984 0)"/>
      <use xlink:href="#DejaVuSans-6f" transform="translate(2308.060547 0)"/>
      <use xlink:href="#DejaVuSans-6f" transform="translate(2369.242188 0)"/>
      <use xlink:href="#DejaVuSans-73" transform="translate(2430.423828 0)"/>
      <use xlink:href="#DejaVuSans-74" transform="translate(2482.523438 0)"/>
      <use xlink:href="#DejaVuSans-5f" transform="translate(2521.732422 0)"/>
      <use xlink:href="#DejaVuSans-73" transform="translate(2571.732422 0)"/>
      <use xlink:href="#DejaVuSans-6d" transform="translate(2623.832031 0)"/>
      <use xlink:href="#DejaVuSans-6f" transform="translate(2721.244141 0)"/>
      <use xlink:href="#DejaVuSans-74" transform="translate(2782.425781 0)"/>
      <use xlink:href="#DejaVuSans-65" transform="translate(2821.634766 0)"/>
      <use xlink:href="#DejaVuSans-5f" transform="translate(2883.158203 0)"/>
      <use xlink:href="#DejaVuSans-66" transform="translate(2933.158203 0)"/>
      <use xlink:href="#DejaVuSans-38" transform="translate(2968.363281 0)"/>
      <use xlink:href="#DejaVuSans-30" transform="translate(3031.986328 0)"/>
      <use xlink:href="#DejaVuSans-20" transform="translate(3095.609375 0)"/>
      <use xlink:href="#DejaVuSans-7c" transform="translate(3127.396484 0)"/>
      <use xlink:href="#DejaVuSans-20" transform="translate(3161.087891 0)"/>
      <use xlink:href="#DejaVuSans-73" transform="translate(3192.875 0)"/>
      <use xlink:href="#DejaVuSans-70" transform="translate(3244.974609 0)"/>
      <use xlink:href="#DejaVuSans-65" transform="translate(3308.451172 0)"/>
      <use xlink:href="#DejaVuSans-65" transform="translate(3369.974609 0)"/>
      <use xlink:href="#DejaVuSans-63" transform="translate(3431.498047 0)"/>
      <use xlink:href="#DejaVuSans-68" transform="translate(3486.478516 0)"/>
      <use xlink:href="#DejaVuSans-20" transform="translate(3549.857422 0)"/>
      <use xlink:href="#DejaVuSans-7c" transform="translate(3581.644531 0)"/>
      <use xlink:href="#DejaVuSans-20" transform="translate(3615.335938 0)"/>
      <use xlink:href="#DejaVuSans-6e" transform="translate(3647.123047 0)"/>
      <use xlink:href="#DejaVuSans-61" transform="translate(3710.501953 0)"/>
      <use xlink:href="#DejaVuSans-6e" transform="translate(3771.78125 0)"/>
      <use xlink:href="#DejaVuSans-20" transform="translate(3835.160156 0)"/>
      <use xlink:href="#DejaVuSans-7c" transform="translate(3866.947266 0)"/>
      <use xlink:href="#DejaVuSans-20" transform="translate(3900.638672 0)"/>
      <use xlink:href="#DejaVuSans-74" transform="translate(3932.425781 0)"/>
      <use xlink:href="#DejaVuSans-65" transform="translate(3971.634766 0)"/>
      <use xlink:href="#DejaVuSans-73" transform="translate(4033.158203 0)"/>
      <use xlink:href="#DejaVuSans-74" transform="translate(4085.257812 0)"/>
     </g>
    </g>
    <g id="line2d_44">
     <path d="M 62.39 301.490156 
L 69.39 301.490156 
L 76.39 301.490156 
" style="fill: none; stroke: #7f7f7f; stroke-width: 1.4; stroke-linecap: square"/>
    </g>
    <g id="text_24">
     <!-- compare_is10_existing_participant_split | catboost_smote_f80 | speech | nan | validation -->
     <g transform="translate(81.99 303.940156) scale(0.07 -0.07)">
      <use xlink:href="#DejaVuSans-63"/>
      <use xlink:href="#DejaVuSans-6f" transform="translate(54.980469 0)"/>
      <use xlink:href="#DejaVuSans-6d" transform="translate(116.162109 0)"/>
      <use xlink:href="#DejaVuSans-70" transform="translate(213.574219 0)"/>
      <use xlink:href="#DejaVuSans-61" transform="translate(277.050781 0)"/>
      <use xlink:href="#DejaVuSans-72" transform="translate(338.330078 0)"/>
      <use xlink:href="#DejaVuSans-65" transform="translate(377.193359 0)"/>
      <use xlink:href="#DejaVuSans-5f" transform="translate(438.716797 0)"/>
      <use xlink:href="#DejaVuSans-69" transform="translate(488.716797 0)"/>
      <use xlink:href="#DejaVuSans-73" transform="translate(516.5 0)"/>
      <use xlink:href="#DejaVuSans-31" transform="translate(568.599609 0)"/>
      <use xlink:href="#DejaVuSans-30" transform="translate(632.222656 0)"/>
      <use xlink:href="#DejaVuSans-5f" transform="translate(695.845703 0)"/>
      <use xlink:href="#DejaVuSans-65" transform="translate(745.845703 0)"/>
      <use xlink:href="#DejaVuSans-78" transform="translate(805.619141 0)"/>
      <use xlink:href="#DejaVuSans-69" transform="translate(864.798828 0)"/>
      <use xlink:href="#DejaVuSans-73" transform="translate(892.582031 0)"/>
      <use xlink:href="#DejaVuSans-74" transform="translate(944.681641 0)"/>
      <use xlink:href="#DejaVuSans-69" transform="translate(983.890625 0)"/>
      <use xlink:href="#DejaVuSans-6e" transform="translate(1011.673828 0)"/>
      <use xlink:href="#DejaVuSans-67" transform="translate(1075.052734 0)"/>
      <use xlink:href="#DejaVuSans-5f" transform="translate(1138.529297 0)"/>
      <use xlink:href="#DejaVuSans-70" transform="translate(1188.529297 0)"/>
      <use xlink:href="#DejaVuSans-61" transform="translate(1252.005859 0)"/>
      <use xlink:href="#DejaVuSans-72" transform="translate(1313.285156 0)"/>
      <use xlink:href="#DejaVuSans-74" transform="translate(1354.398438 0)"/>
      <use xlink:href="#DejaVuSans-69" transform="translate(1393.607422 0)"/>
      <use xlink:href="#DejaVuSans-63" transform="translate(1421.390625 0)"/>
      <use xlink:href="#DejaVuSans-69" transform="translate(1476.371094 0)"/>
      <use xlink:href="#DejaVuSans-70" transform="translate(1504.154297 0)"/>
      <use xlink:href="#DejaVuSans-61" transform="translate(1567.630859 0)"/>
      <use xlink:href="#DejaVuSans-6e" transform="translate(1628.910156 0)"/>
      <use xlink:href="#DejaVuSans-74" transform="translate(1692.289062 0)"/>
      <use xlink:href="#DejaVuSans-5f" transform="translate(1731.498047 0)"/>
      <use xlink:href="#DejaVuSans-73" transform="translate(1781.498047 0)"/>
      <use xlink:href="#DejaVuSans-70" transform="translate(1833.597656 0)"/>
      <use xlink:href="#DejaVuSans-6c" transform="translate(1897.074219 0)"/>
      <use xlink:href="#DejaVuSans-69" transform="translate(1924.857422 0)"/>
      <use xlink:href="#DejaVuSans-74" transform="translate(1952.640625 0)"/>
      <use xlink:href="#DejaVuSans-20" transform="translate(1991.849609 0)"/>
      <use xlink:href="#DejaVuSans-7c" transform="translate(2023.636719 0)"/>
      <use xlink:href="#DejaVuSans-20" transform="translate(2057.328125 0)"/>
      <use xlink:href="#DejaVuSans-63" transform="translate(2089.115234 0)"/>
      <use xlink:href="#DejaVuSans-61" transform="translate(2144.095703 0)"/>
      <use xlink:href="#DejaVuSans-74" transform="translate(2205.375 0)"/>
      <use xlink:href="#DejaVuSans-62" transform="translate(2244.583984 0)"/>
      <use xlink:href="#DejaVuSans-6f" transform="translate(2308.060547 0)"/>
      <use xlink:href="#DejaVuSans-6f" transform="translate(2369.242188 0)"/>
      <use xlink:href="#DejaVuSans-73" transform="translate(2430.423828 0)"/>
      <use xlink:href="#DejaVuSans-74" transform="translate(2482.523438 0)"/>
      <use xlink:href="#DejaVuSans-5f" transform="translate(2521.732422 0)"/>
      <use xlink:href="#DejaVuSans-73" transform="translate(2571.732422 0)"/>
      <use xlink:href="#DejaVuSans-6d" transform="translate(2623.832031 0)"/>
      <use xlink:href="#DejaVuSans-6f" transform="translate(2721.244141 0)"/>
      <use xlink:href="#DejaVuSans-74" transform="translate(2782.425781 0)"/>
      <use xlink:href="#DejaVuSans-65" transform="translate(2821.634766 0)"/>
      <use xlink:href="#DejaVuSans-5f" transform="translate(2883.158203 0)"/>
      <use xlink:href="#DejaVuSans-66" transform="translate(2933.158203 0)"/>
      <use xlink:href="#DejaVuSans-38" transform="translate(2968.363281 0)"/>
      <use xlink:href="#DejaVuSans-30" transform="translate(3031.986328 0)"/>
      <use xlink:href="#DejaVuSans-20" transform="translate(3095.609375 0)"/>
      <use xlink:href="#DejaVuSans-7c" transform="translate(3127.396484 0)"/>
      <use xlink:href="#DejaVuSans-20" transform="translate(3161.087891 0)"/>
      <use xlink:href="#DejaVuSans-73" transform="translate(3192.875 0)"/>
      <use xlink:href="#DejaVuSans-70" transform="translate(3244.974609 0)"/>
      <use xlink:href="#DejaVuSans-65" transform="translate(3308.451172 0)"/>
      <use xlink:href="#DejaVuSans-65" transform="translate(3369.974609 0)"/>
      <use xlink:href="#DejaVuSans-63" transform="translate(3431.498047 0)"/>
      <use xlink:href="#DejaVuSans-68" transform="translate(3486.478516 0)"/>
      <use xlink:href="#DejaVuSans-20" transform="translate(3549.857422 0)"/>
      <use xlink:href="#DejaVuSans-7c" transform="translate(3581.644531 0)"/>
      <use xlink:href="#DejaVuSans-20" transform="translate(3615.335938 0)"/>
      <use xlink:href="#DejaVuSans-6e" transform="translate(3647.123047 0)"/>
      <use xlink:href="#DejaVuSans-61" transform="translate(3710.501953 0)"/>
      <use xlink:href="#DejaVuSans-6e" transform="translate(3771.78125 0)"/>
      <use xlink:href="#DejaVuSans-20" transform="translate(3835.160156 0)"/>
      <use xlink:href="#DejaVuSans-7c" transform="translate(3866.947266 0)"/>
      <use xlink:href="#DejaVuSans-20" transform="translate(3900.638672 0)"/>
      <use xlink:href="#DejaVuSans-76" transform="translate(3932.425781 0)"/>
      <use xlink:href="#DejaVuSans-61" transform="translate(3991.605469 0)"/>
      <use xlink:href="#DejaVuSans-6c" transform="translate(4052.884766 0)"/>
      <use xlink:href="#DejaVuSans-69" transform="translate(4080.667969 0)"/>
      <use xlink:href="#DejaVuSans-64" transform="translate(4108.451172 0)"/>
      <use xlink:href="#DejaVuSans-61" transform="translate(4171.927734 0)"/>
      <use xlink:href="#DejaVuSans-74" transform="translate(4233.207031 0)"/>
      <use xlink:href="#DejaVuSans-69" transform="translate(4272.416016 0)"/>
      <use xlink:href="#DejaVuSans-6f" transform="translate(4300.199219 0)"/>
      <use xlink:href="#DejaVuSans-6e" transform="translate(4361.380859 0)"/>
     </g>
    </g>
    <g id="line2d_45">
     <path d="M 62.39 311.959531 
L 69.39 311.959531 
L 76.39 311.959531 
" style="fill: none; stroke-dasharray: 5.55,2.4; stroke-dashoffset: 0; stroke: #777777; stroke-width: 1.5"/>
    </g>
    <g id="text_25">
     <!-- Treat all -->
     <g transform="translate(81.99 314.409531) scale(0.07 -0.07)">
      <use xlink:href="#DejaVuSans-54"/>
      <use xlink:href="#DejaVuSans-72" transform="translate(46.333984 0)"/>
      <use xlink:href="#DejaVuSans-65" transform="translate(85.197266 0)"/>
      <use xlink:href="#DejaVuSans-61" transform="translate(146.720703 0)"/>
      <use xlink:href="#DejaVuSans-74" transform="translate(208 0)"/>
      <use xlink:href="#DejaVuSans-20" transform="translate(247.208984 0)"/>
      <use xlink:href="#DejaVuSans-61" transform="translate(278.996094 0)"/>
      <use xlink:href="#DejaVuSans-6c" transform="translate(340.275391 0)"/>
      <use xlink:href="#DejaVuSans-6c" transform="translate(368.058594 0)"/>
     </g>
    </g>
    <g id="line2d_46">
     <path d="M 62.39 322.234219 
L 69.39 322.234219 
L 76.39 322.234219 
" style="fill: none; stroke-dasharray: 1.5,2.475; stroke-dashoffset: 0; stroke: #222222; stroke-width: 1.5"/>
    </g>
    <g id="text_26">
     <!-- Treat none -->
     <g transform="translate(81.99 324.684219) scale(0.07 -0.07)">
      <use xlink:href="#DejaVuSans-54"/>
      <use xlink:href="#DejaVuSans-72" transform="translate(46.333984 0)"/>
      <use xlink:href="#DejaVuSans-65" transform="translate(85.197266 0)"/>
      <use xlink:href="#DejaVuSans-61" transform="translate(146.720703 0)"/>
      <use xlink:href="#DejaVuSans-74" transform="translate(208 0)"/>
      <use xlink:href="#DejaVuSans-20" transform="translate(247.208984 0)"/>
      <use xlink:href="#DejaVuSans-6e" transform="translate(278.996094 0)"/>
      <use xlink:href="#DejaVuSans-6f" transform="translate(342.375 0)"/>
      <use xlink:href="#DejaVuSans-6e" transform="translate(403.556641 0)"/>
      <use xlink:href="#DejaVuSans-65" transform="translate(466.935547 0)"/>
     </g>
    </g>
   </g>
  </g>
 </g>
 <defs>
  <clipPath id="p5bc2a9f7e9">
   <rect x="56.09" y="26.88" width="581.11" height="305.56"/>
  </clipPath>
 </defs>
</svg>
